<?xml version="1.0" encoding="utf-8"?>
<!-- Generator: Adobe Illustrator 27.2.0, SVG Export Plug-In . SVG Version: 6.00 Build 0)  -->
<svg version="1.1" id="レイヤー_1" xmlns="http://www.w3.org/2000/svg" xmlns:xlink="http://www.w3.org/1999/xlink" x="0px"
	 y="0px" viewBox="0 0 445 207" style="enable-background:new 0 0 445 207;" xml:space="preserve">
<style type="text/css">
	.st0{fill:#FFFFFF;}
</style>
<path class="st0" d="M309.3,73.6c-2-5.9-8.4-9-14.3-7c-2.8,1-5.1,3-6.5,5.7c-1.3,2.7-1.5,5.8-0.6,8.6c0.9,2.7,2.7,4.9,5.2,6.2
	l-3.6,13.6c-2.1-1-4.5-1.6-7.1-1.6c-4.6,0-8.7,1.9-11.7,5l-12-5.5c0.8-2.2,1.3-4.6,1.3-7.1c0-11.2-9.1-20.3-20.3-20.3
	c-1.1,0-2.2,0.1-3.2,0.3l-4.8-5.9c3.4-3.4,5.3-8.2,4.7-13.2l8.2-2.5c0.6,1.6,1.5,3.2,2.5,4.7c3.2,4.4,7.9,7.3,13.2,8.2
	c1.1,0.2,2.2,0.3,3.3,0.3c9.8,0,18.4-7.1,20-17.1c1.8-11-5.7-21.5-16.8-23.3c-5.4-0.9-10.7,0.4-15.1,3.6c-4.4,3.2-7.3,7.9-8.2,13.2
	c-0.2,1.3-0.3,2.6-0.3,3.9l-8.9,2.7c-1.4-2.5-3.6-4.6-6.2-6c-3.8-2.1-8.1-2.6-12.2-1.4c-3.2,0.9-6,2.8-8.1,5.4l-11.4-6.6
	c0.9-4.7-1.1-9.6-5.5-12.1c-1.8-1-3.9-1.6-6-1.5c-5.5,0.1-10,4.1-11,9.3l-14.5,9c-2.1-1.1-4.5-1.6-7-1.2c-6,1-10,6.7-9,12.7
	c0.9,5.4,5.6,9.2,10.8,9.2c0.6,0,1.2,0,1.8-0.2c6-1,10-6.7,9-12.7c-0.2-1.1-0.5-2.1-1-3l10.8-6.7c1,2,2.6,3.7,4.6,4.8
	c1.8,1,3.7,1.5,5.7,1.5c1,0,2-0.1,3-0.4c1.9-0.5,3.7-1.5,5.1-2.9l11.6,6.7c-0.8,2.8-0.7,5.8,0.1,8.6c1.2,4.1,3.9,7.5,7.7,9.6
	c2.4,1.3,5.1,2,7.7,2c1.5,0,3-0.2,4.5-0.6c0.4-0.1,0.8-0.2,1.2-0.4l3.8,4.7c-6.2,3.5-10.4,10.1-10.4,17.7c0,1.8,0.2,3.5,0.7,5.2
	l-14.8,6.5c-0.8-2-2.1-3.7-3.9-5c-1.7-1.2-3.7-2-5.8-2.1c-3-0.2-6,0.7-8.3,2.7c-1.3,1.1-2.3,2.4-2.9,3.8l-17.8-8.3
	c0.2-0.9,0.3-1.8,0.3-2.8c0-8.8-7.1-15.9-15.9-15.9c-8.8,0-15.9,7.1-15.9,15.9c0,8.5,6.7,15.5,15.1,15.9l3.4,7.5
	c-1.2,1-2.2,2.2-2.9,3.6l0,0c-2.8,5.5-0.6,12.3,5,15.1c1.6,0.8,3.3,1.2,5.1,1.2c1.2,0,2.4-0.2,3.5-0.6c2.9-0.9,5.2-2.9,6.5-5.6
	c2.8-5.5,0.6-12.3-5-15.1c-2-1-4.1-1.3-6.1-1.2l-2.8-6.2c2.9-1.2,5.4-3.2,7.1-5.7l19.5,9.1c0.5,2.9,2.2,5.5,4.6,7.2
	c2,1.4,4.3,2.1,6.7,2.1c3.5,0,7-1.6,9.3-4.7c0.9-1.2,1.5-2.5,1.8-3.9l17-7.5c2.2,3.3,5.3,5.9,8.9,7.4l-2.1,4.3c-1-0.1-2-0.1-3.1,0.1
	c-2.1,0.3-4,1.2-5.6,2.5c-2.3,2-3.8,4.7-4,7.8c-0.3,3,0.7,6,2.6,8.4c0.9,1.1,2.1,2,3.4,2.7l-0.9,8.2c-9.2,0.4-16.9,6.9-19,15.6
	l-6-5.1c1.9-4.4,0.7-9.8-3.1-13c-4.8-4-11.9-3.4-15.9,1.4c-4,4.8-3.4,11.9,1.4,15.9c2,1.7,4.6,2.6,7.2,2.6c0.3,0,0.7,0,1,0
	c1.9-0.2,3.6-0.8,5.1-1.8l9.8,8.3l0.2-0.2c1.6,9.6,10,16.9,20,16.9c10.1,0,18.4-7.3,20-16.9l0.2,0.2l9.8-8.3c1.5,1,3.3,1.6,5.1,1.8
	c0.3,0,0.7,0,1,0c2.6,0,5.2-0.9,7.2-2.6c2.3-1.9,3.7-4.7,4-7.6c0.3-3-0.7-5.9-2.6-8.2c-1.9-2.3-4.7-3.7-7.6-4
	c-3-0.3-5.9,0.7-8.2,2.6c-2.3,1.9-3.7,4.7-4,7.6c-0.2,1.9,0.1,3.7,0.8,5.4l-6,5.1c-1.7-7-7.1-12.7-13.9-14.7l0.9-7.8
	c0.2,0,0.4,0,0.6-0.1c2.5-0.4,4.6-1.5,6.2-3.1c2.5-2.5,3.9-6.1,3.3-9.9c-0.4-2.7-1.8-5.2-3.9-6.9l2.6-5.4c0.4,0,0.9,0.1,1.4,0.1
	c6.3,0,12-2.9,15.7-7.4l11.8,5.4c-0.6,1.7-0.9,3.5-0.9,5.4c0,8.9,7.2,16.1,16.1,16.1c8.9,0,16.1-7.2,16.1-16.1
	c0-3.8-1.4-7.4-3.6-10.1l0.3,0.1l4.4-16.6c0.9-0.1,1.7-0.3,2.6-0.6C308.1,85.9,311.3,79.5,309.3,73.6z"/>
</svg>
