<?xml version="1.0" encoding="utf-8"?>
<!-- Generator: Adobe Illustrator 27.2.0, SVG Export Plug-In . SVG Version: 6.00 Build 0)  -->
<svg version="1.1" id="レイヤー_1" xmlns="http://www.w3.org/2000/svg" xmlns:xlink="http://www.w3.org/1999/xlink" x="0px"
	 y="0px" viewBox="0 0 1129 1129" style="enable-background:new 0 0 1129 1129;" xml:space="preserve">
<style type="text/css">
	.st0{fill:#BD3DBF;}
	.st1{fill:#A85CCD;}
	.st2{fill:#B652C7;}
	.st3{fill:#8E7FD6;}
	.st4{fill:#9C6BD3;}
	.st5{fill:#52CBEE;}
	.st6{fill:#6AA9E1;}
	.st7{fill:#62BAEA;}
	.st8{fill:#D81DB8;}
	.st9{fill:#759FE0;}
	.st10{fill:#828CDA;}
	.st11{fill:#46DAF4;}
	.st12{display:none;fill-rule:evenodd;clip-rule:evenodd;fill:#FFFFFF;}
	.st13{fill:none;stroke:#FFFFFF;stroke-width:2;}
	.st14{fill:none;}
	.st15{font-family:'ArialMT';}
	.st16{font-size:12px;}
	.st17{fill:#2EFF5F;}
	.st18{fill:#FFFFFF;}
</style>
<path class="st0" d="M404.1,657.1L76,846.5c49.5,85.6,120.9,157,206.5,206.5l190.1-329.3C444.3,707.9,420.7,684.9,404.1,657.1z"/>
<path class="st1" d="M564.5,747.5v381c102.7,0,199.1-27.5,282-75.5L656,723C629,738.5,597.8,747.4,564.5,747.5z"/>
<path class="st2" d="M563.6,747.5c-33.1,0-64.1-8.6-91-23.8L282.5,1053c83,48,179.3,75.5,282,75.5v-381
	C564.2,747.5,563.9,747.5,563.6,747.5z"/>
<path class="st3" d="M749.5,564.5c-0.5,33.5-9.9,64.9-25.9,91.9L1053,846.5c48-83,75.5-179.3,75.5-282H749.5z"/>
<path class="st4" d="M656,723l190.5,330c85.6-49.5,157-120.9,206.5-206.5L723.6,656.4C707.2,684,683.9,707,656,723z"/>
<path class="st5" d="M470,400.9L282.5,76c-85.6,49.5-157,120.9-206.5,206.5l325.5,188C417.8,441.6,441.5,417.5,470,400.9z"/>
<path class="st6" d="M658.5,401.7L846.5,76c-83-48-179.3-75.5-282-75.5v375.2C598.8,375.8,631,385.3,658.5,401.7z"/>
<path class="st7" d="M563.6,375.7c0.3,0,0.6,0,0.9,0V0.5C461.8,0.5,365.4,28,282.5,76L470,400.9
	C497.5,384.9,529.5,375.7,563.6,375.7z"/>
<path class="st8" d="M377.7,564.5H0.5c0,102.7,27.5,199.1,75.5,282l328.1-189.4C387.8,630,378.2,598.3,377.7,564.5z"/>
<path class="st9" d="M726.1,471.2L1053,282.5c-49.5-85.6-120.9-157-206.5-206.5l-188,325.7C686.7,418.5,710.1,442.5,726.1,471.2z"/>
<path class="st10" d="M749.5,561.6c0,1,0,1.9,0,2.9h379c0-102.7-27.5-199.1-75.5-282L726.1,471.2C741,498,749.5,528.8,749.5,561.6z"
	/>
<path class="st11" d="M377.7,561.6c0-33.1,8.7-64.2,23.9-91.2L76,282.5c-48,83-75.5,179.3-75.5,282h377.2
	C377.7,563.5,377.7,562.6,377.7,561.6z"/>
<path id="シェイプ_634" class="st12" d="M838.8,408.6c39.5,13.7,68.9,77.7,31.8,92c-26.4,10.2-58.3-9.2-71.5-43.3
	c-5-13-11.6-40.7,7.5-48.1c11.2-4.3,23.4,0.8,27.6,11.9c3.1,7.9,0.4,16.4-9.3,19.2c-4.7-4.5-11.7-5.9-17.8-3.4
	c-7.9,3-10.6,11.4-7.2,20.2c6,15.5,25.7,20.1,42.7,13.6c26.7-10.3,14.4-45.6-6.6-62.7l42.1-1.7c12.8-0.5,33.3-1.5,39.6,14.9
	c4.6,12-0.3,28.7,6,44.9c3.6,9.4,10,15.9,18,15.9l0.1,0.6c-20.7,1.2-43.3-0.5-51.2-21.1c-5.9-15.2-2.5-37.5-7.1-49.3
	c-0.7-1.9-1.8-3.7-3.2-5.1L838.8,408.6z M868,525.5c-1.7-1.7-2.8-3.8-3.2-6.2c-0.6-3.7,0.9-7.4,5.2-8l15.9-2.5l-0.8-4.8l2-0.3
	l0.8,4.8l5.4-0.9l0.4,2.2l-5.4,0.9l1.8,11.2l-2,0.3l-1.8-11.2l-15.6,2.5c-3.1,0.5-4.3,3.1-3.8,5.9c0.4,1.9,1.3,3.7,2.7,5.1
	L868,525.5z M882.2,554.1l-13.1,0.9l-0.2-2.2l13-0.9c5.9-0.4,9.2-3.6,8.7-9.8c-0.1-4.9-3.2-9.1-7.8-10.8l-15.4,1.1l-0.2-2.2l32-2.3
	l0.2,2.2l-13.9,1c4.1,1.9,6.7,5.9,7.1,11.2C893.2,549.9,888.7,553.7,882.2,554.1z M916.6,594.5l-4.6,34.1c-10.5,1.1-62.4,12.2-71,19
	l4.4-32.6l12.4-3.5c-6.7,0.3-11.3-5.1-10.3-12.1l5.7-42.2C859.7,566.1,906.8,590.6,916.6,594.5L916.6,594.5z M859.7,606.3
	c4.5,0.6,11.4,0.2,19.7-1.1c13.9-2.1,23-3.6,23.6-8c0.4-3.2-3.3-4.5-7.3-5c-4.8-0.6-11.6-0.5-19.5,0.4c-15.2,1.7-21.4,5.4-22,9.8
	C853.8,604.6,855.9,605.8,859.7,606.3z M845.4,646.1c10.6,6,39.9,18.2,51.6,21.5c4.7,1.3,5.8,0.1,6.8-0.3l-12.3,29.4l-35.2,16.9
	c9.5,4,22,1.3,31-6.8l-10.8,25.8c-0.5-1,0-2.4-4.2-4.8c-10.6-6-39.9-18.2-51.6-21.5c-4.7-1.3-5.8-0.2-6.8,0.2l3.7-8.8l62.1-29.4
	c-17.6-7.4-46.5,9.4-56.5,16.1l18-43C841.6,642.2,841.1,643.7,845.4,646.1z M818,710.2c8.9,8.3,34.5,27.1,45.1,33.1
	c4.2,2.4,5.6,1.5,6.7,1.3l-18.9,25.7l-38.2,8.1c8.3,6.1,21.1,6.5,31.7,0.7l-16.6,22.6c-0.2-1.1,0.6-2.3-3-5.6
	c-8.9-8.3-34.5-27.1-45.1-33.1c-4.2-2.4-5.6-1.6-6.6-1.4l5.7-7.7l67.3-14c-15.4-11.3-47.4-1.8-58.7,2.3l27.6-37.6
	C815.3,705.6,814.4,706.9,818,710.2L818,710.2z M773.8,767.2c7.1,9.8,28.5,33,37.7,40.9c3.6,3.1,5.2,2.5,6.2,2.6l-28.1,25.8
	c0-1.1,0.8-2.6-2-6.5c-7.2-9.7-28.5-33-37.7-40.9c-3.7-3.1-5.2-2.5-6.3-2.5l28.1-25.8C771.8,761.8,771,763.3,773.8,767.2z
	 M791.1,837.8l-33.4,21.5c0.2-1.1,1.3-3-2.4-6.3c-7.7-6.8-30.4-21.6-41.2-34.2c6.4,26.6,37.3,43.7,38.4,43.9l-31.3,20.2
	c2-10.8-11-63.6-17.1-69.6l30.7-19.8C737.7,801.5,780.5,835.1,791.1,837.8L791.1,837.8z M696,819.1c-0.4,0.9-1.2,2.3-0.2,6.2
	c1.5,5.9,5.2,16.1,9.1,26.3c3.8,9.9,8.2,20.1,11,25.5c1.9,3.5,3.3,4.2,4.3,4.5c0.2,0,0.4,0.1,0.6,0.2L666,903.1l-5.6-14.4
	c8.5,4.3,16.9,3.5,25.5,0.2c-0.9-3.3-2.5-8.1-4.3-13.4c-7.4,3.5-12,7.4-13.1,10.5l-6-15.5c2.9,1.6,9.1,1.4,16.8-1.1
	c-4.4-11.4-10-25.5-13.6-32.2c-6,2.3-15.3,11.3-18.6,17.3l-5.6-14.4l54.9-21.4L696,819.1z M640.7,847.4c0.1,5.8,1.2,15.9,2.6,26.2
	c1.5,11.3,3.5,22.8,5.1,28.9c1.2,4.6,2.8,5,3.6,5.7l-26.3,3.6c-17.5,2.4-40.7,7.9-43.3-10.8c-2-14.7,11.4-19,24.3-20.8
	c-0.2-1.2-0.9-3.2-10.6-1.9c-5,0.7-11.9,3.1-16.2-4.8c-3.3-5.9-7-15.3-15.5-21.7l35.4-4.9l13.5,31.9c-1-6.2-2.8-22.1-4.9-27.2
	c-1.6-3.7-2.7-4.7-3.5-5.3l37.8-5.2C642.1,841.8,640.6,842.6,640.7,847.4L640.7,847.4z M608.6,897.3c0.9,6.6,4.5,10.2,8.5,9.6
	l-2-14.2c-0.4-2.8-0.8-5.5-1.1-7.8C608.9,885.6,607.9,892.4,608.6,897.3L608.6,897.3z M555,849.8c4.1,0.5,8.3,0.5,12.4,0l-3.1,28.9
	c-7.3-13.2-24.7-25.3-33.2-26.2c-2.8-0.3-4.6,0.6-4.8,2.9c-1,9.1,40,13.8,37,41.4c-1.6,15.2-12.3,21.7-31.9,19.6
	c-7.1-0.8-14.7-2.7-22.2-3.5c-3.6-0.4-7.3-0.5-10.9,0l2.4-22.1c4.5,11.1,18.5,17.8,27.7,18.8c4.7,0.5,8.1-0.5,8.4-3
	c0.9-7.7-42.5-10.2-39.2-41c1.5-14.1,12.7-21.9,29.9-20.1C536.9,846.4,546.2,848.8,555,849.8z M458.8,900.9l-32.3-12
	c1.2-10.5,1.6-63.5-3.1-73.4l30.9,11.4l0.7,12.9c1.2-6.6,7.4-9.9,14.1-7.5l40,14.8C498.9,851.7,464.7,892.2,458.8,900.9z
	 M459.6,842.8c-1.6,4.3-2.7,11.1-3.3,19.4c-0.9,14-1.5,23.2,2.7,24.7c3.1,1.1,5.1-2.3,6.5-6c1.7-4.5,3-11.2,3.9-19.1
	c1.6-15.2-0.6-22-4.8-23.6C462.6,837.5,460.9,839.2,459.6,842.8z M425.1,822c-3.9,4.2-10.1,12.4-16.1,20.8
	c-6.7,9.2-13.1,18.9-16.2,24.4c-2.3,4.2-1.4,5.5-1.3,6.6l-21.6-15.4c-14.4-10.3-35-22.3-24-37.6c8.7-12.1,21.4-5.9,31.9,1.6
	c0.7-1,1.6-2.9-6.4-8.6c-4.1-2.9-10.8-5.9-8.5-14.6c1.7-6.6,5.5-16,3.7-26.4l29,20.8l-12,32.4c3.6-5.2,13.2-18,15.2-23.1
	c1.4-3.8,1.2-5.3,1.1-6.3l31,22.2C429.9,818.9,428.3,818.5,425.1,822L425.1,822z M367.4,836.2c-3.9,5.4-3.7,10.5-0.4,12.9l8.3-11.7
	c1.6-2.3,3.2-4.6,4.6-6.4C375.6,828,370.3,832.2,367.4,836.2z M361.4,773.3c-2.5,1.8-4.9,3.7-7.2,5.8c-4.1,3.7-10.7,21-16.5,34.2
	c-3.5,8.3-6.4,17.3-6.5,18.4L307,805c4-8.4,13.4-29.9,20.6-42c-1.4,0.5-5.7,2.2-8,4.6c-2.7,2.6-4.4,5.7-8.6,13.8
	c-4.2,8-8.1,17.8-8.2,18.9l-25.4-27.8c1.1,0.1,10.3-2,18.9-4.8c13.7-4.5,31.5-9.6,35.5-13.3c2.3-2.1,4.4-4.3,6.4-6.6
	c3.2-3.7,2.6-5.2,2.6-6.3l27.2,29.7C366.9,771.2,365.3,770.4,361.4,773.3L361.4,773.3z M289.8,718.6c-39.4-13.9-68.5-78-31.4-92.1
	c26.5-10,58.3,9.4,71.3,43.7c5,13.1,11.4,40.8-7.7,48c-11.2,4.3-23.4-1-27.6-12c-3-7.9-0.3-16.4,9.4-19.2c4.7,4.6,11.7,5.9,17.8,3.5
	c7.9-3,10.6-11.4,7.3-20.1c-5.9-15.5-25.6-20.3-42.7-13.8c-26.7,10.1-14.6,45.6,6.3,62.8l-42.1,1.5c-12.8,0.4-33.3,1.3-39.5-15.1
	c-4.6-12,0.4-28.7-5.8-45c-3.6-9.4-9.9-15.9-18-16l-0.1-0.6c20.7-1.1,43.3,0.7,51.1,21.3c5.8,15.2,2.4,37.5,6.9,49.4
	c0.7,1.9,1.7,3.7,3.2,5.1L289.8,718.6z M261.2,601.6c1.7,1.7,2.8,3.8,3.2,6.2c0.6,3.7-1,7.4-5.2,8l-15.9,2.5l0.8,4.8l-2,0.3
	l-0.8-4.8l-5.4,0.8l-0.3-2.2l5.4-0.8l-1.7-11.2l2-0.3l1.7,11.2l15.6-2.4c3.1-0.5,4.3-3.1,3.8-5.9c-0.4-1.9-1.3-3.7-2.6-5.1
	L261.2,601.6z M247.1,572.9l13.1-0.9l0.1,2.2l-13,0.9c-5.9,0.4-9.2,3.5-8.8,9.8c0.1,4.9,3.2,9.2,7.7,10.8l15.4-1l0.1,2.2l-32.1,2.2
	l-0.1-2.2l13.9-0.9c-4-1.9-6.7-5.9-7.1-11.2C236.1,577.1,240.6,573.3,247.1,572.9L247.1,572.9z M212.9,532.4l4.8-34.1
	c10.5-1.1,62.4-12,71.1-18.7l-4.6,32.6l-12.5,3.4c6.7-0.3,11.3,5.2,10.3,12.1l-5.9,42.2C269.6,561,222.7,536.3,212.9,532.4
	L212.9,532.4z M269.9,520.8c-4.5-0.6-11.4-0.3-19.7,1c-13.9,2.1-23,3.5-23.6,7.9c-0.5,3.2,3.3,4.5,7.3,5c4.8,0.7,11.6,0.5,19.5-0.3
	c15.2-1.6,21.4-5.3,22-9.7C275.8,522.6,273.7,521.3,269.9,520.8z M284.3,481c-10.6-6-39.9-18.4-51.5-21.8c-4.7-1.4-5.8-0.1-6.8,0.2
	l12.4-29.3l35.3-16.7c-9.5-4-22-1.5-31,6.6l10.9-25.8c0.4,1,0,2.4,4.2,4.8c10.6,6,39.9,18.4,51.5,21.8c4.7,1.4,5.8,0.2,6.8-0.2
	l-3.7,8.8l-62.2,29.2c17.6,7.4,46.5-9.2,56.6-15.8l-18.2,43C288.1,484.9,288.6,483.5,284.3,481L284.3,481z M312,417.1
	c-8.9-8.3-34.4-27.2-44.9-33.3c-4.2-2.4-5.6-1.5-6.7-1.4l19-25.6l38.2-7.9c-8.2-6.1-21-6.6-31.7-0.8l16.7-22.5
	c0.2,1.1-0.6,2.3,2.9,5.6c8.9,8.3,34.4,27.2,44.9,33.3c4.2,2.4,5.6,1.6,6.6,1.4l-5.7,7.7L284,387.4c15.3,11.4,47.4,2,58.7-2.1
	l-27.8,37.5C314.7,421.8,315.6,420.5,312,417.1L312,417.1z M356.5,360.3c-7-9.8-28.4-33.1-37.4-41.1c-3.6-3.1-5.1-2.5-6.2-2.6
	l28.2-25.7c-0.1,1.1-0.8,2.6,1.9,6.5c7.1,9.8,28.4,33.1,37.5,41.1c3.6,3.1,5.2,2.5,6.3,2.5l-28.2,25.7
	C358.5,365.7,359.2,364.2,356.5,360.3L356.5,360.3z M339.5,289.7l33.5-21.4c-0.2,1.1-1.3,3,2.4,6.3c7.6,6.8,30.3,21.7,41.1,34.4
	c-6.3-26.7-37.1-43.8-38.2-44.1l31.4-20.1c-2,10.8,10.8,63.6,16.8,69.7l-30.8,19.6C392.7,326.2,350.1,292.4,339.5,289.7L339.5,289.7
	z M434.5,308.8c0.4-0.9,1.2-2.3,0.2-6.2c-1.5-5.9-5.1-16.2-9-26.3c-3.8-9.9-8.1-20.2-10.9-25.5c-1.9-3.5-3.2-4.2-4.3-4.5
	c-0.2-0.1-0.4-0.1-0.5-0.2l54.9-21.1l5.6,14.5c-8.5-4.3-16.9-3.6-25.4-0.3c0.9,3.3,2.4,8.1,4.2,13.4c7.4-3.4,12-7.3,13.1-10.4
	l6,15.5c-2.9-1.6-9.1-1.4-16.8,1c4.4,11.4,9.9,25.5,13.4,32.3c6-2.3,15.3-11.3,18.7-17.3l5.6,14.5l-54.9,21.1L434.5,308.8z
	 M489.9,280.8c-0.1-5.8-1.1-15.9-2.5-26.2c-1.5-11.3-3.4-22.8-4.9-28.9c-1.2-4.6-2.8-5-3.6-5.7l26.3-3.5c17.5-2.3,40.8-7.7,43.3,11
	c2,14.8-11.5,19-24.4,20.7c0.2,1.2,0.9,3.2,10.6,1.9c5-0.7,11.9-3.1,16.2,4.9c3.2,6,6.9,15.4,15.4,21.7l-35.4,4.7l-13.4-31.9
	c0.9,6.2,2.7,22.1,4.7,27.3c1.6,3.8,2.7,4.7,3.5,5.4l-37.8,5.1C488.5,286.4,490,285.5,489.9,280.8L489.9,280.8z M522.3,231
	c-0.9-6.6-4.5-10.2-8.5-9.7l1.9,14.2c0.4,2.8,0.8,5.5,1,7.8C522,242.6,523,235.9,522.3,231z M575.7,278.7c-4.1-0.5-8.3-0.6-12.4-0.1
	l3.3-28.8c7.3,13.2,24.6,25.4,33.1,26.4c2.8,0.3,4.6-0.5,4.9-2.9c1-9.1-39.9-14-36.8-41.6c1.7-15.2,12.4-21.7,32-19.5
	c7.1,0.8,14.7,2.8,22.2,3.6c3.6,0.5,7.3,0.5,10.9,0.1l-2.5,22.1c-4.5-11.2-18.4-17.9-27.6-18.9c-4.7-0.5-8.1,0.4-8.4,3
	c-0.9,7.7,42.5,10.4,39,41.2c-1.6,14.1-12.8,21.9-30,19.9C593.8,282.2,584.4,279.7,575.7,278.7L575.7,278.7z M672,228l32.3,12.1
	c-1.3,10.5-1.9,63.5,2.8,73.4L676.3,302l-0.6-12.9c-1.2,6.6-7.5,9.9-14.1,7.4l-39.9-14.9C631.7,277.1,666.1,236.7,672,228L672,228z
	 M671,286.1c1.6-4.2,2.7-11,3.3-19.4c1-14,1.6-23.2-2.5-24.7c-3.1-1.1-5.1,2.2-6.5,6c-1.7,4.5-3,11.2-3.9,19.1
	c-1.7,15.2,0.5,22,4.7,23.6C668,291.4,669.6,289.7,671,286.1L671,286.1z M705.4,307.1c3.9-4.2,10.1-12.3,16.2-20.7
	c6.7-9.2,13.2-18.9,16.3-24.4c2.3-4.2,1.4-5.5,1.3-6.6l21.5,15.5c14.3,10.3,34.9,22.4,23.8,37.7c-8.7,12.1-21.4,5.8-31.9-1.7
	c-0.7,1-1.6,2.9,6.3,8.7c4.1,3,10.8,5.9,8.4,14.7c-1.8,6.5-5.6,15.9-3.8,26.3l-28.9-20.9l12.2-32.4c-3.6,5.2-13.3,17.9-15.3,23.1
	c-1.5,3.8-1.2,5.3-1.2,6.3l-30.9-22.3C700.6,310.1,702.2,310.5,705.4,307.1L705.4,307.1z M763.2,293.2c3.9-5.4,3.8-10.5,0.5-12.9
	l-8.3,11.6c-1.6,2.3-3.2,4.5-4.6,6.4C754.9,301.4,760.3,297.1,763.2,293.2L763.2,293.2z M768.9,356.1c2.5-1.8,5-3.7,7.2-5.7
	c4.1-3.7,10.8-20.9,16.6-34.1c3.6-8.3,6.5-17.2,6.5-18.3l24.2,26.7c-4,8.3-13.6,29.9-20.8,41.9c1.4-0.5,5.7-2.1,8.1-4.6
	c2.7-2.6,4.4-5.6,8.6-13.8c4.3-8,8.2-17.8,8.3-18.9l25.3,27.9c-1.1-0.1-10.3,2-18.9,4.7c-13.7,4.4-31.5,9.5-35.6,13.2
	c-2.3,2.1-4.5,4.3-6.5,6.6c-3.2,3.7-2.6,5.2-2.6,6.3l-27-29.9C763.4,358.2,765,359,768.9,356.1L768.9,356.1z"/>
<circle id="楕円形_2-4" class="st13" cx="564.6" cy="564.6" r="223.4"/>
<circle id="楕円形_2-5" class="st13" cx="564.9" cy="564.9" r="536"/>
<path id="SVGID_x5F_1_x5F_" class="st14" d="M564.9,280.3c157.2,0,284.7,127.4,284.7,284.7S722.1,849.6,564.9,849.6
	S280.3,722.1,280.3,564.9S407.7,280.3,564.9,280.3z"/>
<text class="st15 st16"> </text>
<path class="st17" d="M377.6,564.5L377.6,564.5c0.6,33.8,10.2,65.5,26.5,92.6c16.6,27.7,40.3,50.7,68.5,66.6l82.2-142.3
	c-5.8-3.4-9.8-9.7-9.8-16.9c0-3.5,1-6.8,2.6-9.7l-146.1-84.4c-15.2,26.9-23.9,58-23.9,91.2V564.5z"/>
<path class="st17" d="M726.1,471.2c-16-28.7-39.4-52.7-67.6-69.5c-27.5-16.4-59.7-25.9-94-26h-0.9c-34.1,0-66.1,9.2-93.6,25.2
	c-28.6,16.7-52.3,40.7-68.5,69.5l146.1,84.4c3.4-5.8,9.7-9.8,16.9-9.8c10.8,0,19.5,8.7,19.5,19.5s-8.7,19.5-19.5,19.5
	c-3.6,0-6.9-1-9.7-2.6l-82.2,142.3c26.9,15.1,58,23.8,91,23.8h0.9c33.3-0.2,64.5-9.1,91.5-24.5c27.9-16,51.2-39,67.6-66.6
	c16-27,25.4-58.3,25.9-91.9v-2.9C749.5,528.8,741,498,726.1,471.2z"/>
<g>
	<path class="st18" d="M238.5,490.6c6.6,1.4,8-0.4,9.6-7.9c1.8-8.3-0.6-12.3-18.6-25.1l1.3-5.9l28.2,8.7l-15.8,72.2l-4.4-1
		c1.4-7.7,0.7-8.6-6-10l-64.6-14.1c-6.7-1.5-7.8-1-9.8,6.6l-4.2-0.9l10.7-49l4.2,0.9c-1.6,8.5-0.9,10.1,5.8,11.6L238.5,490.6z"/>
	<path class="st18" d="M266.4,346.8c25.8,14.2,34.8,35.7,18.9,64.8c-15.8,28.8-39.1,32.8-64.8,18.7c-25.9-14.2-34.8-35.9-18.9-64.7
		C217.6,336.4,240.4,332.5,266.4,346.8z M280.6,409c5.1-9.2-3.7-18.6-30.2-33.2c-17.7-9.7-37.9-19.4-44.3-7.7
		c-3.8,6.9-0.2,16.3,30.4,33.1C264.6,416.7,276.1,417.2,280.6,409z"/>
	<path class="st18" d="M334.2,341.4l-3.2-3.2l3.6-5.1c1.9-2.5,0.9-3.5-2.6-5.7c-4.5-2.7-12.6-7.2-17.8-9.9l-16.1,16.2
		c4.1,7,8.3,13.9,10.8,17.9c2,3.2,3.5,3.8,5.8,1.9l5.7-4.8l3.2,3.2l-20.1,20.3l-3.2-3.2c4.4-5.3,4.5-6.4,2.6-11.4
		c-4.6-11.5-29.1-58.3-39-74.8l16.4-16.5c15,8.8,62.6,33.4,74.7,37.9c5.5,2.1,6.1,2.4,11.9-2.2l3.2,3.2L334.2,341.4z M308.8,314.6
		c-7.7-4.3-20.7-11.3-30.1-16.4l-0.5,0.5c4.3,7.6,12,21.4,16.9,29.6L308.8,314.6z"/>
	<path class="st18" d="M375.1,199c14.5-7.6,25.3-10.9,36.2-7.4c10.3,3.1,18.4,11.3,25.6,25c9.4,18,7.7,33.5,1,43.9
		c-6.6,10.1-13.8,15.6-27.2,22.6l-38.3,20l-2.1-4c6.8-3.9,7-4.9,3.9-11l-30.6-58.6c-3.2-6.1-4.3-6.6-11.3-3.2l-2-3.8L375.1,199z
		 M402.7,274.8c1.9,3.7,3.8,4.5,8,2.3c6.8-3.6,13.7-13.1-2.7-44.4c-12.9-24.7-24.4-32.2-35.1-26.7c-3.6,1.9-4.6,3-3.2,5.8
		L402.7,274.8z"/>
	<path class="st18" d="M500,237.3c1.6,6.7,2.4,7.3,10.2,5.7l1.1,4.4L464.1,259l-1.1-4.3c7.5-2.1,8-3.1,6.4-9.8l-15.8-64.2
		c-1.6-6.7-2.6-7.4-10.2-5.8l-1-4.2l47.2-11.6l1,4.2c-7.7,2.2-8,3.3-6.4,9.9L500,237.3z"/>
	<path class="st18" d="M555.6,152.9c10.5,16,25.6,37.2,37.3,54.2l0.4,0l-0.1-14.7c-0.1-11.9-0.7-23.5-1.5-28.3
		c-0.7-4.9-2.6-6-5.8-6.3l-7.8-0.8l0-4.3l30.8-0.2l0,4.3l-3.6,0.4c-3.1,0.4-4.3,1.6-5,6.3c-0.5,5-1,16.8-0.9,28.7l0.4,51.2
		l-21.8,0.2c-14.7-23.1-30-45.7-44.5-68.8l-0.4,0l0.2,23.4c0.1,11.9,0.5,29,1.2,33.7c0.7,4.8,2.6,6.1,5.8,6.5l8.3,0.9l0,4.5
		l-31.2,0.3l0-4.5l3.6-0.7c3.1-0.6,4.7-1.9,5.3-6.8c0.7-4.9,0.9-22,0.8-33.9l-0.3-32.8c-0.1-6.9-0.8-7.8-8.6-8.1l0-4.3L555.6,152.9z
		"/>
	<path class="st18" d="M707.3,210l-5.1-1.5c-1-18.7-4.5-31.2-15.1-34.3c-17.9-5.2-27.6,22.9-31,34.3c-3.9,13.4-12,41.9,5.2,46.9
		c3,0.9,4.9-0.8,5.9-4.3l6.3-21.8c1.9-6.5,1.7-8.4-8-11.8l1.2-4.2l44.9,13l-1.2,4.2c-5.8-1.1-7,0.5-8.9,6.9l-7.6,26.1
		c-9.8,2-23.3,0.1-33.8-3c-12.4-3.6-23.3-8.2-30.8-16.5c-7.3-8.4-11.9-21.8-5.7-43.1c3.2-11.2,9.3-22.4,18.9-28.8
		c9.6-6.4,21.9-9.8,46-2.8c10.4,3,21.4,9.1,26.3,14.2L707.3,210z"/>
	<path class="st18" d="M816,238.5c-1.9,19-3.4,45-5.1,65.5l0.3,0.3l9.1-11.5c7.4-9.3,14.2-18.8,16.6-22.9c2.5-4.3,1.8-6.3-0.6-8.5
		l-5.6-5.5l2.7-3.4l24.1,19.2L855,275l-3.1-1.9c-2.7-1.6-4.4-1.5-7.9,1.8c-3.6,3.6-11.3,12.5-18.7,21.8l-31.9,40.1l-17.1-13.6
		c3.1-27.3,5.3-54.4,8.6-81.5l-0.3-0.3L770,259.7c-7.4,9.3-17.8,22.9-20.2,27c-2.4,4.2-1.9,6.4,0.4,8.7l5.9,5.9l-2.8,3.5l-24.4-19.4
		l2.8-3.5l3.3,1.7c2.8,1.5,4.9,1.5,8.3-1.9c3.6-3.4,14.6-16.5,22-25.8l20.4-25.6c4.3-5.4,4.3-6.6-1.6-11.7l2.7-3.4L816,238.5z"/>
	<path class="st18" d="M893.7,396.8c-24.2,16.6-47.6,15-66.4-12.3c-18.6-27.1-11.7-49.7,12.4-66.3c24.4-16.7,47.7-14.9,66.3,12.2
		C924.9,357.9,918.2,380,893.7,396.8z M831.7,381.5c5.9,8.7,18.3,5.1,43.2-12c16.6-11.4,34.4-25.1,26.8-36.1
		c-4.4-6.5-14.5-7.5-43.2,12.2C832.1,363.7,826.4,373.7,831.7,381.5z"/>
	<path class="st18" d="M979.3,520l-4.2,1.1c-1.7-5.1-3.3-6.9-7.9-7c-17.9-0.3-60.1,1.1-83.4,1.9l-6.4-23.4l50.6-29.4l-0.1-0.4
		l-57.2,5.2l-6.4-23.4c24.1-13.4,48.5-26.5,72.3-40.2c4.1-2.4,5.3-3.3,4.1-9.3l4.1-1.1l12.7,46.5l-4.2,1.1l-2.5-6.4
		c-0.8-1.8-2.2-1.9-5.3-0.4c-17,7.8-33.7,16.3-50.8,24.9l0.1,0.4l64.2-6.7l5.9,21.7l-59,34.1l0.2,0.7c18.1-1,50.3-4,59.3-5.5
		c2.4-0.4,3.5-1.5,3.1-3.9l-1.1-7.1l4.2-1.1L979.3,520z"/>
	<path class="st18" d="M889.7,642.7c-6.5-1.5-8,0.3-9.7,7.8c-1.9,8.3,0.4,12.3,18.3,25.4l-1.4,5.9l-28.1-9.1l16.7-72l4.4,1
		c-1.5,7.7-0.8,8.6,5.8,10.1l64.4,15c6.7,1.6,7.8,1.1,9.8-6.5l4.2,1l-11.3,48.8l-4.2-1c1.7-8.5,1.1-10.1-5.6-11.7L889.7,642.7z"/>
	<path class="st18" d="M860,786.2c-25.6-14.5-34.4-36.2-18-65.1c16.2-28.6,39.5-32.3,65-17.9c25.7,14.5,34.3,36.3,18.1,64.9
		C908.6,797.2,885.8,800.9,860,786.2z M846.6,723.8c-5.2,9.1,3.4,18.7,29.7,33.6c17.5,9.9,37.7,19.9,44.2,8.3
		c3.9-6.8,0.4-16.3-29.9-33.5C862.7,716.3,851.2,715.6,846.6,723.8z"/>
	<path class="st18" d="M792.1,790.7l3.1,3.2l-3.7,5c-1.9,2.5-0.9,3.5,2.5,5.8c4.4,2.7,12.5,7.3,17.6,10.2l16.3-16
		c-4-7.1-8.1-14-10.6-18c-1.9-3.2-3.4-3.9-5.8-1.9l-5.8,4.7l-3.1-3.2l20.4-20l3.1,3.2c-4.5,5.2-4.6,6.3-2.8,11.4
		c4.4,11.5,28.4,58.7,38,75.3l-16.6,16.3c-14.9-9-62.1-34.1-74.2-38.8c-5.4-2.1-6.1-2.4-11.9,2.1l-3.1-3.2L792.1,790.7z
		 M817.2,817.9c7.7,4.4,20.6,11.6,29.8,16.8l0.5-0.5c-4.2-7.7-11.8-21.6-16.5-29.9L817.2,817.9z"/>
	<path class="st18" d="M749.4,932.6c-14.6,7.4-25.4,10.5-36.3,7c-10.3-3.3-18.2-11.5-25.2-25.3c-9.2-18.1-7.3-33.6-0.4-43.9
		c6.7-10,14-15.4,27.5-22.2l38.6-19.6l2,4c-6.9,3.8-7.1,4.9-4,11l29.9,58.9c3.1,6.1,4.2,6.7,11.3,3.4l2,3.9L749.4,932.6z
		 M722.8,856.5c-1.9-3.7-3.7-4.6-8-2.4c-6.9,3.5-13.8,13,2.1,44.4c12.6,24.9,24,32.6,34.8,27.1c3.6-1.8,4.6-3,3.2-5.7L722.8,856.5z"
		/>
	<path class="st18" d="M625,892.7c-1.6-6.7-2.3-7.4-10.1-5.8l-1-4.4l47.3-11l1,4.4c-7.6,2-8.1,3-6.5,9.7l15,64.4
		c1.6,6.7,2.5,7.5,10.2,6l1,4.2l-47.3,11l-1-4.2c7.7-2.1,8-3.2,6.5-9.8L625,892.7z"/>
	<path class="st18" d="M568.4,976.4c-10.3-16.1-25.2-37.5-36.6-54.6l-0.4,0l-0.1,14.7c-0.1,11.9,0.5,23.5,1.1,28.3
		c0.7,4.9,2.5,6,5.7,6.3l7.8,0.9l0,4.3l-30.8-0.1l0-4.3l3.6-0.4c3.1-0.4,4.3-1.5,5.1-6.3c0.6-5,1.2-16.8,1.3-28.7l0.2-51.2l21.8,0.1
		c14.5,23.3,29.5,46.1,43.6,69.4l0.4,0l0.1-23.4c0.1-11.9-0.1-29-0.8-33.7c-0.7-4.8-2.5-6.2-5.7-6.6l-8.3-1l0-4.5l31.2,0.1l0,4.5
		l-3.6,0.7c-3.1,0.5-4.8,1.8-5.4,6.7c-0.7,4.9-1.2,22-1.3,33.9l-0.2,32.8c0,6.9,0.7,7.8,8.5,8.2l0,4.3L568.4,976.4z"/>
	<path class="st18" d="M417.4,917.3l5.1,1.5c0.8,18.7,4.1,31.2,14.7,34.5c17.8,5.4,27.9-22.5,31.4-33.9c4.1-13.4,12.5-41.7-4.6-46.9
		c-2.9-0.9-4.9,0.7-6,4.2l-6.6,21.7c-2,6.4-1.8,8.4,7.8,11.9l-1.3,4.2l-44.7-13.6l1.3-4.2c5.8,1.2,7-0.4,8.9-6.8l7.9-26
		c9.8-1.9,23.3,0.2,33.8,3.4c12.3,3.8,23.2,8.5,30.6,16.9c7.2,8.5,11.6,22,5.2,43.1c-3.4,11.1-9.6,22.3-19.2,28.5s-22.1,9.5-46,2.2
		c-10.3-3.1-21.3-9.4-26.2-14.5L417.4,917.3z"/>
	<path class="st18" d="M309,887.4c2.1-19,4-45,5.9-65.5l-0.3-0.3l-9.3,11.4c-7.5,9.2-14.4,18.6-16.9,22.7c-2.6,4.2-1.9,6.3,0.5,8.5
		l5.5,5.6l-2.7,3.4l-23.9-19.5l2.7-3.4l3.1,2c2.7,1.6,4.3,1.5,7.9-1.7c3.6-3.6,11.5-12.3,19-21.5l32.4-39.7l16.9,13.8
		c-3.4,27.2-6,54.3-9.7,81.4l0.3,0.3l14.8-18.1c7.5-9.2,18.1-22.6,20.6-26.8s1.9-6.4-0.3-8.7l-5.8-6l2.8-3.5l24.2,19.7l-2.8,3.5
		l-3.3-1.8c-2.7-1.5-4.8-1.6-8.4,1.8c-3.6,3.4-14.8,16.3-22.3,25.5l-20.7,25.4c-4.3,5.3-4.4,6.5,1.5,11.7l-2.7,3.4L309,887.4z"/>
	<path class="st18" d="M233.4,728.2c24.4-16.3,47.8-14.4,66.2,13.2c18.3,27.4,11.1,49.8-13.3,66.1c-24.6,16.4-47.9,14.3-66.1-13.1
		C201.7,766.7,208.7,744.7,233.4,728.2z M295.2,744.3c-5.8-8.7-18.2-5.3-43.4,11.5c-16.8,11.2-34.7,24.7-27.3,35.8
		c4.4,6.5,14.4,7.7,43.4-11.7C294.6,762.1,300.4,752.1,295.2,744.3z"/>
	<path class="st18" d="M149.4,603.9l4.2-1.1c1.6,5.1,3.3,7,7.8,7.1c17.9,0.5,60.1-0.3,83.4-0.8l6.1,23.4l-51,28.7l0.1,0.4l57.3-4.5
		l6.1,23.4c-24.2,13.1-48.8,25.9-72.8,39.3c-4.2,2.4-5.4,3.3-4.3,9.2l-4.1,1.1l-12.1-46.6l4.2-1.1l2.4,6.5c0.8,1.8,2.2,1.9,5.3,0.5
		c17.1-7.6,33.9-15.9,51.1-24.3l-0.1-0.4l-64.3,5.9l-5.7-21.8l59.5-33.4l-0.2-0.7c-18.2,0.8-50.3,3.4-59.4,4.7
		c-2.4,0.3-3.5,1.5-3.2,3.9l1,7.1l-4.2,1.1L149.4,603.9z"/>
</g>
</svg>
