<?xml version="1.0" encoding="utf-8"?>
<!-- Generator: Adobe Illustrator 27.2.0, SVG Export Plug-In . SVG Version: 6.00 Build 0)  -->
<svg version="1.1" id="レイヤー_1" xmlns="http://www.w3.org/2000/svg" xmlns:xlink="http://www.w3.org/1999/xlink" x="0px"
	 y="0px" viewBox="0 0 1901 292" style="enable-background:new 0 0 1901 292;" xml:space="preserve">
<style type="text/css">
	.st0{fill:#FFFFFF;}
</style>
<path class="st0" d="M1836.5,10.2v13l16,2.5c5.7,0.8,6,6.3,3.7,15.9c-3.7,14.6-17,65.2-28.9,105.3h-0.7
	c-11.6-32.2-30.6-87.4-37.2-107.8c-2.7-7.5-2-12.5,2.3-13.4l15-2.5v-13h-120.7v5.2c-12-4.3-26.5-5.2-41.9-5.2h-129.7v13
	c18.6,0.8,20.3,3.8,20.3,24.2v197.3c0,7.4-0.2,12.5-1.4,15.9c-1.8-2.8-3.2-6.8-5.3-12.6c-12.6-35.1-50.9-187.7-61.2-237.8h-55.2
	c-7.5,37-26.9,116.2-42.4,174.9c-2.5-40.9-21.5-56.1-70-79.9c-24.4-11.6-43.8-28.1-43.8-49c0-25.7,14.8-32.5,29.3-32.5
	c23,0,38.8,22.5,55.4,72.6h13.4V23.7c-19.4-9.2-44.1-14.8-69.9-14.8c-44.2,0-73.7,18.9-84.4,52.1c-5-45.8-36.6-50.7-73.5-50.7H800.5
	v13l18,2.9c5.3,0.8,6.3,7.1,5.3,13.8c-5,30.9-24.3,120.8-37.6,179.7h-2c-13.3-56-30.3-124.1-42.6-181c-1.3-6.3-1.3-12.5,4-13.4
	l16.6-2.1v-13H519.1v13l18.6,2.5c7.6,0.8,12,4.2,13.6,18.8c1.7,14.2,3,48.9,3,84.4v43.9h-1c-27.3-51-62.9-114.5-87.5-162.6H329.6v13
	l18.6,2.5c7.6,0.8,12,4.2,13.6,18.8c1.7,14.2,3,48.9,3,84.4v43.9h-1c-27.3-51-62.9-114.5-87.5-162.6h-89.1v13
	c18.6,0.8,20.3,3.8,20.3,24.2v97.8c0,35.5-1,86.5-2.7,101.1c-0.3,3.5-0.8,6.3-1.4,8.7c-0.8-2-1.6-4.3-2.6-7
	C188.2,212.9,150,60.4,139.7,10.2H84.5C73.2,65.8,35.3,216.3,23.6,250.1c-5.3,14.6-7.3,16.7-23.6,18.4v13.4h67.8v-13.4l-17.6-2.1
	c-7.3-0.8-8.6-5.4-6.7-16.3c2.3-13.8,7-37.2,12-60.6h54.2c4,16.7,10,43.5,13,58.5c2,12.1,2,16.3-5.3,17.6l-14.6,2.9v13.4h155v-13.4
	l-19.6-2.9c-7.6-1.3-12-5.4-13.6-19.6c-1.7-14.2-2.3-65.2-2.3-100.7V75.4h1c33.9,69.4,69.8,137.1,104.4,206.5h119.7v-13.4l-19.6-2.9
	c-7.6-1.3-12-5.4-13.6-19.6c-1.7-14.2-2.3-65.2-2.3-100.7V75.4h1c33.9,69.4,69.8,137.1,104.4,206.5h164.6v-13.4
	c-19-0.8-20.3-3.3-20.3-23.8V47.4c0-6.8,0.2-11.7,1.1-15.2c1.5,3,3,7.2,4.6,13.1c20.3,78.6,40.9,158,61.2,236.6h55.2
	c14.6-63.9,45.6-182.2,61.9-239.1c0.9-2.9,1.7-5.3,2.5-7.3c0.4,3.1,0.5,7,0.5,11.9v197.3c0,20.5-1.7,23-20.3,23.8v13.4h282.3v-13.4
	c-19-0.8-20.3-3.3-20.3-23.8v-91.5h5.7c8.6,0,16,6.7,17.6,23.4c1.3,10.9,3.3,46,8,63.9c7.6,31.3,23.9,41.4,56.9,41.4h41.9v-9.8
	c17.7,7.1,38,10.4,53.2,10.4c22.1,0,39.8-4,53.7-10.9v10.3h67.8v-13.4l-17.6-2.1c-7.3-0.8-8.6-5.4-6.7-16.3c2.3-13.8,7-37.2,12-60.6
	h54.2c4,16.7,10,43.5,13,58.5c2,12.1,2,16.3-5.3,17.6l-14.6,2.9v13.4h198.9v-13.4c-19-0.8-20.3-3.3-20.3-23.8v-91.5h5.7
	c8.6,0,16,6.7,17.6,23.4c1.3,10.9,3.3,46,8,63.9c7.6,31.3,23.9,41.4,56.9,41.4h161.3v-13.4c-25.3-1.7-26.6-2.9-26.6-23v-60.2
	c0-9.6,1-14.2,2.7-19.2c12.3-39.7,34.6-101.6,43.9-125.8c5.7-15,11-15.9,23.3-17.1v-13H1836.5z M59.5,171.6
	c5.7-27.6,16-73.1,21.6-98.2h1.7c7,30.5,17,72.7,22.6,98.2H59.5z M397.1,145.2c0,35.5-1,86.5-2.7,101.1
	c-1.3,14.6-5.3,18.4-12.6,20.1l-2.3,0.6V128.9c0-35.5,1.3-70.6,2.7-85.7c1.4-11.6,3.6-16,8.4-17.9c5.8,2.7,6.6,8.5,6.6,22V145.2z
	 M586.6,244.7c0,19.5-1.5,22.7-17.6,23.7V128.9c0-35.5,1.3-70.6,2.7-85.7c1.4-11.6,3.6-16,8.4-17.9c5.8,2.7,6.6,8.5,6.6,22V244.7z
	 M947.4,263.9c-22.6,0-24.3-0.4-24.3-23v-88.6h11.3c20,0,21,1.7,32.3,41.8h12.6V93h-12.6c-11,39.7-12.3,41.4-32.3,41.4h-11.3V42
	c0-12.5,0.7-14.2,10-14.2h11.3c26.6,0,27.9,1.7,48.2,61h13V24.1c9.6,1.9,10.6,7.1,10.6,23.3v146.3h-10.6
	C978.4,261,971.7,263.9,947.4,263.9z M1013.2,263.9l3.1-45.6v26.4C1016.3,254.9,1015.9,260.6,1013.2,263.9z M1096.4,137.7h-6.3V41.2
	c0-12.1,1.3-15.5,11.6-15.5c15.6,0,24.6,20.1,24.6,56C1126.4,109.7,1121.7,137.7,1096.4,137.7z M1275.8,266.9
	c-29.7,0-48-32.5-68.9-84.3h-13.1l3,47.6c-0.9-4.9-1.8-10.5-2.7-16.9c-5-31.3-17.6-59.4-61.5-70.2v-2.5
	c33.5-1.8,53.6-17.3,62.2-38.7c2.1,35.3,17,57,70.7,83.1c35.7,17.7,38.8,34.5,38.8,50.2C1304.4,255.7,1293.5,266.9,1275.8,266.9z
	 M1334.2,267.6c5.4-3.5,10.2-7.4,14.2-11.8C1345.2,263.4,1342.4,266.1,1334.2,267.6z M1386.5,171.6c5.7-27.6,16-73.1,21.6-98.2h1.7
	c7,30.5,17,72.7,22.6,98.2H1386.5z M1614.7,137.7h-6.3V41.2c0-12.1,1.3-15.5,11.6-15.5c15.6,0,24.6,20.1,24.6,56
	C1644.6,109.7,1639.9,137.7,1614.7,137.7z M1759.3,245.6c0,18.9-1.2,21.1-22.1,22.7c-14.6-3.7-17.6-8.1-24.8-54.9
	c-5-31.3-17.6-59.4-61.5-70.2v-2.5c46.6-2.5,67.2-31.3,67.2-66c0-2.7-0.1-5.3-0.2-7.8c12.5,31.1,29.1,75.2,38.5,101.9
	c2,5.9,3,11.7,3,19.6V245.6z"/>
</svg>
