<?xml version="1.0" encoding="utf-8"?>
<!-- Generator: Adobe Illustrator 27.2.0, SVG Export Plug-In . SVG Version: 6.00 Build 0)  -->
<svg version="1.1" id="レイヤー_1" xmlns="http://www.w3.org/2000/svg" xmlns:xlink="http://www.w3.org/1999/xlink" x="0px"
	 y="0px" viewBox="0 0 628 37" style="enable-background:new 0 0 628 37;" xml:space="preserve">
<style type="text/css">
	.st0{fill:#FFFFFF;}
</style>
<g>
	<path class="st0" d="M38.9,18.5c0,12-5.9,19.4-19.4,19.4c-13.4,0-19.4-7.5-19.4-19.4C0.1,6.4,6.1-1,19.5-1C33-1,38.9,6.4,38.9,18.5
		z M19.5,35.7c4.3,0,5.9-5,5.9-17.3c0-8.2-0.5-17.3-5.9-17.3c-3.2,0-5.9,3.1-5.9,17.3C13.6,31.5,15.6,35.7,19.5,35.7z"/>
	<path class="st0" d="M72.9-0.1v11.2h-2.2c-2.6-5.9-3.6-8.9-8.3-8.9h-1.7C59.2,2.3,59,2.5,59,4v14h2.7c2.9,0,3.1-0.2,5.2-5.7h2.2
		v14.1h-2.2c-1.8-5-2.3-6-5.2-6H59v11.5c0,2.8,0.2,3.1,4.2,3.2V37H42.7v-1.8c3.2-0.1,3.5-0.5,3.5-3.2V5c0-2.8-0.3-3.2-3.5-3.3v-1.8
		H72.9z"/>
	<path class="st0" d="M106.4-0.1v11.2h-2.2c-2.6-5.9-3.6-8.9-8.3-8.9h-1.7c-1.6,0-1.8,0.2-1.8,1.7v14h2.7c2.9,0,3.1-0.2,5.2-5.7h2.2
		v14.1h-2.2c-1.8-5-2.3-6-5.2-6h-2.7v11.5c0,2.8,0.2,3.1,4.2,3.2V37H76.2v-1.8c3.2-0.1,3.5-0.5,3.5-3.2V5c0-2.8-0.3-3.2-3.5-3.3
		v-1.8H106.4z"/>
	<path class="st0" d="M125.9,31.9c0,2.8,0.2,3.1,3.5,3.2V37h-19.8v-1.8c3.2-0.1,3.5-0.5,3.5-3.2V5c0-2.8-0.3-3.2-3.5-3.3v-1.8h19.8
		v1.8c-3.2,0.1-3.5,0.5-3.5,3.3V31.9z"/>
	<path class="st0" d="M164.1,11.6c-1.6-4.7-4.4-10.4-9.2-10.4c-7.6,0-8.6,12.3-8.6,17.1c0,6.8,1.3,17.6,8.8,17.6
		c5.1,0,6.8-4.3,9.7-11.1h2l-0.9,10.6c-3.6,1.9-8,2.6-12.3,2.6c-7.2,0-12.1-1.2-15.7-4.4c-3.4-3-5.1-8.4-5.1-14.6
		c0-5.6,1.3-10.9,4.7-14.4C140.9,1,145.4-1,154.4-1c3.1,0,9.2,0.8,11.7,2.3v10.2H164.1z"/>
	<path class="st0" d="M186.5,31.9c0,2.8,0.2,3.1,3.5,3.2V37h-19.8v-1.8c3.2-0.1,3.5-0.5,3.5-3.2V5c0-2.8-0.3-3.2-3.5-3.3v-1.8h19.8
		v1.8c-3.2,0.1-3.5,0.5-3.5,3.3V31.9z"/>
	<path class="st0" d="M207.8,37v-1.8l2.5-0.4c1.3-0.2,1.3-0.7,0.9-2.4c-0.5-2.1-1.5-5.7-2.2-8h-9.3c-0.9,3.2-1.7,6.4-2.1,8.3
		c-0.3,1.5-0.1,2.1,1.1,2.2l3,0.3V37h-11.6v-1.8c2.8-0.2,3.1-0.5,4-2.5c2-4.6,8.5-25.1,10.4-32.7h9.5c1.8,6.8,8.3,27.6,10.5,32.4
		c1,2.2,1.1,2.5,4,2.8V37H207.8z M208.2,22c-1-3.5-2.7-9.2-3.9-13.4h-0.3c-1,3.4-2.7,9.6-3.7,13.4H208.2z"/>
	<path class="st0" d="M245.4,31.5c0,2.7,0.9,3.1,4,3.1c3.5,0,4.8-1.3,8.4-9.6h2.5l-1,12h-30.1v-1.8c3.2-0.1,3.5-0.5,3.5-3.2V5
		c0-2.8-0.3-3.2-3.5-3.3v-1.8h20.4v1.8c-3.5,0.1-4.1,0.5-4.1,3.3V31.5z"/>
	<path class="st0" d="M297.3,11.5c-2.7-7.1-5.2-10.3-9-10.3c-2.3,0-4.7,1-4.7,4.6c0,3,3.1,5.3,7.1,7c8.4,3.6,11.3,5.9,11.3,12.8
		c0,6.6-4,12.4-15.5,12.4c-3.5,0-8.8-1-12-3.1l-0.8-11.1h2.1c3.4,7.4,6.3,12,11.1,12c2.9,0,4.6-1.6,4.6-4.5c0-2.2-0.5-4.6-6.3-7.1
		c-9.5-4-11.5-7.4-11.5-13.2C273.8,3.4,279-1,288.2-1c4.2,0,8.2,0.8,11.3,2.1v10.3H297.3z"/>
	<path class="st0" d="M321.2,31.9c0,2.8,0.2,3.1,3.5,3.2V37h-19.8v-1.8c3.2-0.1,3.5-0.5,3.5-3.2V5c0-2.8-0.3-3.2-3.5-3.3v-1.8h19.8
		v1.8c-3.2,0.1-3.5,0.5-3.5,3.3V31.9z"/>
	<path class="st0" d="M338.3,2.4h-1.7c-3.2,0-3.7,0.4-6.3,8.9h-2.5V-0.1h33.8v11.3h-2.5c-2.6-8.4-3.1-8.9-6.4-8.9H351v29.5
		c0,2.8,1,3.1,5,3.2V37h-22.5v-1.8c3.9-0.1,4.8-0.5,4.8-3.2V2.4z"/>
	<path class="st0" d="M367.9,5c0-2.8-0.3-3.2-3.5-3.3v-1.8h30.4v10.7h-2.2c-3.5-8.1-3.7-8.3-8.3-8.3h-1.9c-1.6,0-1.7,0.2-1.7,1.9
		v12.6h1.9c3.4,0,3.6-0.2,5.5-5.6h2.2V25h-2.2c-1.9-5.5-2.1-5.7-5.5-5.7h-1.9v12.1c0,3.1,0.3,3.1,4.2,3.1c4.2,0,5.3-0.4,10-9.6h2.1
		l-1,12h-31.5v-1.8c3.2-0.1,3.5-0.5,3.5-3.2V5z"/>
	<path class="st0" d="M426.8,31.9c0,2.8,0.2,3.1,3.5,3.2V37h-19.8v-1.8c3.2-0.1,3.5-0.5,3.5-3.2V5c0-2.8-0.3-3.2-3.5-3.3v-1.8h19.8
		v1.8c-3.2,0.1-3.5,0.5-3.5,3.3V31.9z"/>
	<path class="st0" d="M457.1,11.5c-2.7-7.1-5.2-10.3-9-10.3c-2.3,0-4.7,1-4.7,4.6c0,3,3.1,5.3,7.1,7c8.4,3.6,11.3,5.9,11.3,12.8
		c0,6.6-4,12.4-15.5,12.4c-3.5,0-8.8-1-12-3.1l-0.8-11.1h2.1c3.4,7.4,6.3,12,11.1,12c2.8,0,4.6-1.6,4.6-4.5c0-2.2-0.5-4.6-6.3-7.1
		c-9.5-4-11.5-7.4-11.5-13.2C433.6,3.4,438.9-1,448-1c4.2,0,8.2,0.8,11.3,2.1v10.3H457.1z"/>
	<path class="st0" d="M500,16.3V4.5c0-2.4-0.2-2.7-2.9-2.8v-1.8h19.2v1.8c-3.4,0.1-3.5,0.4-3.5,2.8v28c0,2.4,0.2,2.6,3.5,2.7V37
		h-19.2v-1.8c2.7-0.1,2.9-0.2,2.9-2.7V18.7h-8.2v13.8c0,2.4,0.2,2.6,2.9,2.7V37h-19.2v-1.8c3-0.1,3.5-0.4,3.5-2.7v-28
		c0-2.4-0.3-2.7-3.5-2.8v-1.8h19.2v1.8c-2.7,0.1-2.9,0.4-2.9,2.8v11.8H500z"/>
	<path class="st0" d="M523,5c0-2.8-0.3-3.2-3.5-3.3v-1.8H550v10.7h-2.2c-3.5-8.1-3.7-8.3-8.3-8.3h-1.9c-1.6,0-1.7,0.2-1.7,1.9v12.6
		h1.9c3.4,0,3.6-0.2,5.5-5.6h2.2V25h-2.2c-1.9-5.5-2.1-5.7-5.5-5.7h-1.9v12.1c0,3.1,0.3,3.1,4.2,3.1c4.2,0,5.3-0.4,10-9.6h2.1l-1,12
		h-31.5v-1.8c3.2-0.1,3.5-0.5,3.5-3.2V5z"/>
	<path class="st0" d="M571.3,31.9c0,2.8,0.2,3.1,3.5,3.2V37h-19.6v-1.8c3.2-0.1,3.5-0.5,3.5-3.2V5c0-2.8-0.3-3.2-3.5-3.3v-1.8h22.2
		c6.9,0,12.7,0.8,12.7,8.8c0,4.7-3.5,8.7-11.5,9v0.3c7.5,1.5,9.7,5.3,10.5,9.6c1.3,6.6,1.8,7,4.4,7.5V37h-7.2
		c-5.6,0-8.4-1.4-9.7-5.6c-0.8-2.5-1.1-7.2-1.4-8.7c-0.3-2.3-1.5-3.2-3-3.2h-1V31.9z M571.3,17.3h1.1c4.3,0,5.1-3.8,5.1-7.6
		c0-4.9-1.5-7.6-4.2-7.6c-1.8,0-2,0.5-2,2.1V17.3z"/>
	<path class="st0" d="M598.9,5c0-2.8-0.3-3.2-3.5-3.3v-1.8h30.4v10.7h-2.2c-3.5-8.1-3.7-8.3-8.3-8.3h-1.9c-1.6,0-1.7,0.2-1.7,1.9
		v12.6h1.9c3.4,0,3.6-0.2,5.5-5.6h2.2V25h-2.2c-1.9-5.5-2.1-5.7-5.5-5.7h-1.9v12.1c0,3.1,0.3,3.1,4.2,3.1c4.2,0,5.3-0.4,10-9.6h2.1
		l-1,12h-31.5v-1.8c3.2-0.1,3.5-0.5,3.5-3.2V5z"/>
</g>
</svg>
