<?xml version="1.0" encoding="utf-8"?>
<!-- Generator: Adobe Illustrator 27.2.0, SVG Export Plug-In . SVG Version: 6.00 Build 0)  -->
<svg version="1.1" id="レイヤー_1" xmlns="http://www.w3.org/2000/svg" xmlns:xlink="http://www.w3.org/1999/xlink" x="0px"
	 y="0px" viewBox="0 0 1424 210" style="enable-background:new 0 0 1424 210;" xml:space="preserve">
<style type="text/css">
	.st0{fill:#FFFFFF;}
</style>
<g>
	<path class="st0" d="M140.3,93.1V26.5c0-13.5-1-15.1-16.6-15.8v-10h109.8v10c-19.6,0.6-19.9,2.3-19.9,15.8v158.1
		c0,13.5,1.3,14.5,19.9,15.1V210H123.7v-10.3c15.6-0.6,16.6-1.3,16.6-15.1v-77.9H93.4v77.9c0,13.5,1.3,14.5,16.6,15.1V210H0.2v-10.3
		c17.3-0.6,19.9-2.3,19.9-15.1V26.5c0-13.5-1.6-15.1-19.9-15.8v-10H110v10c-15.6,0.6-16.6,2.3-16.6,15.8v66.7H140.3z"/>
	<path class="st0" d="M349.8,181.3c0,15.8,1.3,17.7,19.9,18.4V210H256.6v-10.3c18.2-0.6,19.9-2.6,19.9-18.4v-152
		c0-15.8-1.6-18-19.9-18.7v-10h113.1v10c-18.6,0.6-19.9,2.9-19.9,18.7V181.3z"/>
	<path class="st0" d="M530.1,67.5c-17.5-38.4-34.3-55.6-58.5-55.6c-15.3,0-30.9,5.2-30.9,24.9c0,16,20.5,28.6,46.2,37.5
		c55.2,19.6,74.2,31.6,74.2,68.8c0,35.6-26.5,66.9-101.4,66.9c-23.1,0-57.4-5.2-78.7-16.9l-5.2-59.6h13.8
		c22,39.6,41.4,64.5,72.7,64.5c18.6,0,30.2-8.6,30.2-24.3c0-12-3.4-24.9-41-38.4c-61.9-21.8-74.9-39.6-74.9-71.2
		c0-39.9,34.3-63.6,94-63.6c27.2,0,53.3,4.3,73.8,11.4v55.6H530.1z"/>
	<path class="st0" d="M622,14.5h-9.8c-18.6,0-21.2,2.3-36.2,50.2h-14.3V0.7h193.2v64.1h-14c-15-47.7-17.6-50.2-36.5-50.2h-9.8v166.8
		c0,15.8,5.5,17.7,28.4,18.4V210H594.3v-10.3c22.5-0.6,27.7-2.6,27.7-18.4V14.5z"/>
	<path class="st0" d="M998.7,104.9c0,64.7-35.7,105-116.9,105c-80.6,0-116.6-40.7-116.6-105c0-65,36-105,116.6-105
		C963.3-0.1,998.7,39.6,998.7,104.9z M881.7,198.2c25.7,0,35.7-26.8,35.7-93.3c0-44.4-3.1-93.6-35.7-93.6
		c-19.2,0-35.3,16.9-35.3,93.6C846.4,175.4,858.8,198.2,881.7,198.2z"/>
	<path class="st0" d="M1093,181.3c0,15.8,1.3,17.7,19.9,18.4V210h-112.1v-10.3c18.2-0.6,19.9-2.6,19.9-18.4v-152
		c0-15.8-1.6-18-19.9-18.7v-10h127.1c39.4,0,72.7,4.5,72.7,49.6c0,26.7-20.2,48.9-65.8,50.9v1.9c43,8.4,55.4,29.9,60.3,54.1
		c7.2,37,10.1,39.6,25.4,42.5V210h-41.1c-32.3,0-48.2-7.7-55.7-31.9c-4.6-13.8-6.5-40.9-7.8-49.3c-1.6-12.9-8.8-18-17.3-18h-5.5
		V181.3z M1093,98.9h6.2c24.8,0,29.3-21.6,29.3-43.1c0-27.7-8.8-43.1-24.1-43.1c-10.1,0-11.4,2.6-11.4,11.9V98.9z"/>
	<path class="st0" d="M1423.1,0.7v10c-12.1,1-17.3,1.6-22.8,13.2c-9.1,18.7-31,66.3-43,96.9c-1.6,3.9-2.6,7.4-2.6,14.8V182
		c0,15.5,1.3,16.4,26.1,17.7V210h-122.2v-10.3c24.4-1.3,25.7-2.3,25.7-17.7v-44.1c0-6.1-1-10.6-2.9-15.1
		c-12.7-28.3-38.8-82.1-49.2-100.1c-5.5-9.7-8.5-10.9-19.9-11.9v-10h118.3v10l-14.7,1.9c-4.2,0.6-4.9,4.5-2.3,10.3
		c6.5,15.8,25.1,58.3,36.5,83.1h0.7c11.7-30.9,24.8-69.9,28.4-81.1c2.3-7.4,2-11.6-3.6-12.2l-15.6-1.9v-10H1423.1z"/>
</g>
</svg>
