<?xml version="1.0" encoding="utf-8"?>
<!-- Generator: Adobe Illustrator 27.2.0, SVG Export Plug-In . SVG Version: 6.00 Build 0)  -->
<svg version="1.1" id="レイヤー_1" xmlns="http://www.w3.org/2000/svg" xmlns:xlink="http://www.w3.org/1999/xlink" x="0px"
	 y="0px" viewBox="0 0 1012 203" style="enable-background:new 0 0 1012 203;" xml:space="preserve">
<style type="text/css">
	.st0{fill:#FFFFFF;}
</style>
<path class="st0" d="M166,88.2l8.1-32H135l15.1-55.5h-17.5l-15.1,55.5H81.4L96.6,0.7H78.7L63.6,56.2H25.2l-9.4,32h38.8l-6.2,22.5
	H10.1l-9,32h38.4l-16.7,59.7h18.2l16.3-59.7h36l-16.7,59.7h17.9l16.3-59.7h40.4l8.1-32h-39.5l6.2-22.5H166z M108.5,88.2l-6.2,22.5
	H66.3l6.2-22.5H108.5z"/>
<path class="st0" d="M310.3,172.6c0,14.9,5.3,17.1,24.7,17.1c21.5,0,30-7.1,51.8-52.2H402l-6.3,65.2H209.5v-9.9
	c19.7-0.6,21.5-2.5,21.5-17.7V28.5c0-15.2-1.8-17.4-21.5-18V0.8h126.2v9.6c-21.9,0.6-25.4,2.8-25.4,18V172.6z"/>
<path class="st0" d="M527.2,175.1c0,15.2,1.4,17.1,21.5,17.7v9.9H426.3v-9.9c19.7-0.6,21.5-2.5,21.5-17.7V28.5
	c0-15.2-1.8-17.4-21.5-18V0.8h122.3v9.6c-20.1,0.6-21.5,2.8-21.5,18V175.1z"/>
<path class="st0" d="M798.6,10.5c-14.8,1.2-18.3,2.2-23.6,14.6c-17.3,42.2-50.1,130.2-65.6,177.7h-58.5
	C629.4,144.4,607.5,85.3,586,26.9c-5.6-14.3-8.8-15.2-22.6-16.5V0.8h123.4v9.6L669.2,12c-5.6,0.6-5.6,5.3-4.2,9.9
	c13,42.2,31,92.9,45.1,134.5h2.1c14.1-43.8,34.6-110.6,39.8-133.6c1.1-5,0-9.6-5.6-10.3l-19-2.2V0.8h71.2V10.5z"/>
<path class="st0" d="M831,28.5c0-15.2-1.8-17.4-21.5-18V0.8h188.3v58.4h-13.8c-21.5-44.1-22.9-45.4-51.1-45.4h-12
	c-9.9,0-10.6,1.2-10.6,10.6v68.7h12c21.2,0,22.6-1.2,34.2-30.8H970v75.2h-13.4c-12-29.8-13-31.1-34.2-31.1h-12v65.9
	c0,16.8,1.8,17.1,25.7,17.1c25.7,0,32.8-2.2,61.7-52.2h13l-6.3,65.5h-195v-9.9c19.7-0.6,21.5-2.5,21.5-17.7V28.5z"/>
</svg>
