<?xml version="1.0" encoding="utf-8"?>
<!-- Generator: Adobe Illustrator 27.2.0, SVG Export Plug-In . SVG Version: 6.00 Build 0)  -->
<svg version="1.1" id="レイヤー_1" xmlns="http://www.w3.org/2000/svg" xmlns:xlink="http://www.w3.org/1999/xlink" x="0px"
	 y="0px" viewBox="0 0 913.9 108.1" style="enable-background:new 0 0 913.9 108.1;" xml:space="preserve">
<style type="text/css">
	.st0{fill:#FFFFFF;}
</style>
<g id="レイヤー_1_00000056424941909010953770000002145441153977815733_">
</g>
<g>
	<path class="st0" d="M15.5,93.2H8l3.6-23.2H0.5v-5.6h12.2L15.5,46H3.7v-5.6h12.7l3.6-22.6h7.4l-3.6,22.6H38l3.6-22.6h7.2l-3.4,22.6
		h11.1V46h-12l-2.8,18.4h11.8V70H40.6L37,93.2h-7.4L33.2,70H19.1L15.5,93.2z M20.1,64.4h14.3L37,46H22.8L20.1,64.4z"/>
	<path class="st0" d="M77.3,52.4c2.9,2.5,11.1,11,13.1,13.1l-3.2,4.3c-1.8-2.7-6.5-8.1-10-11.9v35.2h-4.9V55.4
		c-3.5,9.3-8.3,18.7-12.7,24.3c-0.6-1.5-1.8-3.8-2.7-5.2c5.2-6.1,11.1-17.7,14.5-27.8H57.9v-5.3h14.5V27.6
		c-4.4,1.3-9.1,2.4-13.5,3.4c-0.2-1.1-1-3-1.6-4.2c10.2-2.2,22-5.8,28.2-9.7l4.6,4.1c-0.2,0.2-0.5,0.3-0.8,0.3c-0.2,0-0.4,0-0.6-0.1
		c-3,1.6-7,3.3-11.4,4.7v15.4h12.8v5.3H77.3V52.4z M113.8,57.9c5.5,10.7,10.8,24.7,12.4,33.5l-5,2c-0.4-2.3-1.1-5-1.9-7.9
		c-12.5,1.6-25.4,3.1-33.5,3.9c-0.1,0.7-0.5,1.1-1,1.1l-2-6.7l7.1-0.6c4.6-17.6,9.6-44.6,12.2-64.5l7.1,1.7
		c-0.1,0.7-0.9,1.1-1.8,1.3c-2.8,18.2-7.7,43.3-12.2,61c6.9-0.6,14.8-1.4,22.6-2.1c-2.3-7-5.3-14.7-8.5-21.1L113.8,57.9z"/>
	<path class="st0" d="M161.6,32c-0.3,0.7-0.9,1.3-1.8,1.3C157.1,58.8,149.4,81,137.2,81c-6.2,0-11.8-6.9-11.8-19.8
		c0-19.7,13.8-36.1,33.2-36.1c21.3,0,30.5,15,30.5,31c0,19.5-10.2,28.9-28,33.5c-0.7-1.3-1.9-3.5-3.1-5c17-3.6,25.7-12.8,25.7-28.3
		c0-13.5-7.8-25.8-25.1-25.8c-0.7,0-1.5,0.1-2.2,0.2L161.6,32z M154.5,30.9c-14.9,2-24.1,15.7-24.1,30.1c0,8.8,3.4,14.3,6.9,14.3
		C146.3,75.3,152.7,53.4,154.5,30.9z"/>
	<path class="st0" d="M216.6,54.1l0.7,4.8l-8.4,3.3v24.2c0,6.3-2.7,7-12.2,6.8c-0.1-1.4-0.9-3.8-1.5-5.3c2.1,0.1,3.9,0.2,5.4,0.2
		c3.2,0,3.5,0,3.5-1.6V64c-3.5,1.3-6.7,2.5-9.2,3.4c-0.1,0.7-0.4,1.1-1,1.4l-1.8-6.4c3.2-1,7.4-2.4,11.9-4V39.1h-11.1v-5.2H204V17.1
		l6.2,0.4c-0.1,0.7-0.4,1-1.4,1.1v15.2h8.2v5.2h-8.2v17.8L216.6,54.1z M261.1,83.2v5.1h-34.4v4.9H222V45.1c-1.8,3.1-3.6,6-5.6,8.4
		c-0.7-1.1-2.1-3.3-3.1-4.3c6-7.2,11.3-19.6,14.4-32.2l6,1.9c-0.2,0.6-0.7,0.9-1.6,0.9c-1.3,4.7-2.9,9.3-4.6,13.8h11.2
		c2.1-4.8,4.4-11.5,5.7-16.3l5.9,2.2c-0.2,0.5-0.8,0.8-1.6,0.8c-1.3,3.9-3.2,8.9-5.2,13.3h16.4v5h-16.1V50h14.1v4.8h-14.1v11.6h14.1
		v4.8h-14.1v11.9H261.1z M239.1,50V38.6h-12.3V50H239.1z M239.1,66.5V54.9h-12.3v11.6H239.1z M226.8,71.3v11.9h12.3V71.3H226.8z"/>
	<path class="st0" d="M278.6,20.6c-0.1,1-0.8,1.6-2.3,1.8c-0.6,9.5-1.3,31.2-1.3,43.3c0,12.2,5.5,18.1,14.7,18.1
		c9,0,18.1-5,26.5-15.6c0.7,1.3,2.4,3.9,3.3,4.8C311,84,300.5,89.8,289.7,89.8c-13.4,0-20.3-8.6-20.3-24.1c0-10.3,0.7-35.7,1.2-45.8
		L278.6,20.6z"/>
	<path class="st0" d="M366.3,33.7h19v59.1h-4.9v-5.1H330v5.5h-4.7V33.7h18.1V17.9l6.3,0.5c-0.1,0.6-0.5,1-1.5,1.1v14.2h13.2V17.9
		l6.3,0.5c-0.1,0.6-0.4,1-1.5,1.1V33.7z M343.4,39.1H330v18.8h13.3V39.1z M330,63.2v19.2h13.3V63.2H330z M361.4,39.1h-13.2v18.8
		h13.2V39.1z M361.4,63.2h-13.2v19.2h13.2V63.2z M380.5,39.1h-14.2v18.8h14.2V39.1z M366.3,82.4h14.2V63.2h-14.2V82.4z"/>
	<path class="st0" d="M453.9,2.6v12.9h-3.1c-3.7-6.8-5.2-10.2-11.9-10.2h-2.4c-2.3,0-2.6,0.3-2.6,2v16.1h3.9c4.2,0,4.5-0.2,7.5-6.6
		h3.2v16.3h-3.2c-2.6-5.8-3.4-6.9-7.5-6.9h-3.9v13.2c0,3.2,0.3,3.6,6.1,3.7v2.1h-29.5v-2.1c4.6-0.1,5-0.5,5-3.7V8.5
		c0-3.2-0.4-3.7-5-3.8v-2H453.9z"/>
	<path class="st0" d="M471.5,45.2v-2.1l3.6-0.5c1.8-0.2,1.8-0.9,1.3-2.8c-0.7-2.4-2.2-6.6-3.2-9.2h-13.4c-1.2,3.7-2.4,7.3-2.9,9.5
		c-0.5,1.7-0.2,2.4,1.6,2.6l4.3,0.3v2.1h-16.7v-2.1c4-0.3,4.5-0.6,5.8-2.9c2.9-5.3,12.2-28.9,15-37.6h13.6
		c2.5,7.9,12,31.8,15.1,37.3c1.4,2.5,1.6,2.8,5.8,3.2v2.1H471.5z M472.2,27.9c-1.4-4-3.9-10.6-5.6-15.4h-0.4
		c-1.4,3.9-3.9,11.1-5.3,15.4H472.2z"/>
	<path class="st0" d="M543.7,4.7c-3.4,0.3-4.3,0.5-5.5,3.1c-4,8.9-11.6,27.5-15.2,37.5h-13.6c-5-12.3-10.1-24.8-15.1-37.1
		c-1.3-3-2-3.2-5.2-3.5v-2h28.7v2L513.6,5c-1.3,0.1-1.3,1.1-1,2.1c3,8.9,7.2,19.6,10.5,28.4h0.5c3.3-9.2,8-23.3,9.3-28.2
		c0.2-1,0-2-1.3-2.2l-4.4-0.5v-2h16.5V4.7z"/>
	<path class="st0" d="M593.5,23.9c0,13.8-8.5,22.3-27.9,22.3c-19.3,0-27.9-8.7-27.9-22.3c0-13.8,8.6-22.3,27.9-22.3
		C585,1.6,593.5,10.1,593.5,23.9z M565.5,43.8c6.1,0,8.5-5.7,8.5-19.9c0-9.4-0.7-19.9-8.5-19.9c-4.6,0-8.4,3.6-8.4,19.9
		C557.1,39,560,43.8,565.5,43.8z"/>
	<path class="st0" d="M616.6,39.4c0,3.2,0.3,3.6,5,3.7v2.1h-28.2v-2.1c4.6-0.1,5-0.5,5-3.7V8.5c0-3.2-0.4-3.7-5-3.8v-2h32
		c9.9,0,18.3,0.9,18.3,10.1c0,5.4-5.1,10-16.5,10.4v0.4c10.8,1.7,13.9,6.1,15.2,11c1.8,7.5,2.5,8.1,6.4,8.7v2.1h-10.3
		c-8.1,0-12.1-1.6-14-6.5c-1.1-2.8-1.6-8.3-2-10c-0.4-2.6-2.2-3.7-4.3-3.7h-1.4V39.4z M616.6,22.6h1.6c6.2,0,7.4-4.4,7.4-8.8
		c0-5.6-2.2-8.8-6.1-8.8c-2.5,0-2.9,0.5-2.9,2.4V22.6z"/>
	<path class="st0" d="M672.5,39.4c0,3.2,0.3,3.6,5,3.7v2.1h-28.4v-2.1c4.6-0.1,5-0.5,5-3.7V8.5c0-3.2-0.4-3.7-5-3.8v-2h28.4v2
		c-4.7,0.1-5,0.6-5,3.8V39.4z"/>
	<path class="st0" d="M693.3,5.5h-2.5c-4.7,0-5.3,0.5-9.1,10.2h-3.6v-13h48.6v13h-3.5c-3.8-9.7-4.4-10.2-9.2-10.2h-2.5v33.9
		c0,3.2,1.4,3.6,7.1,3.7v2.1h-32.4v-2.1c5.7-0.1,7-0.5,7-3.7V5.5z"/>
	<path class="st0" d="M732.6,8.5c0-3.2-0.4-3.7-5-3.8v-2h43.7V15h-3.2c-5-9.3-5.3-9.6-11.9-9.6h-2.8c-2.3,0-2.5,0.3-2.5,2.2v14.5
		h2.8c4.9,0,5.2-0.3,7.9-6.5h3.1v15.9h-3.1c-2.8-6.3-3-6.6-7.9-6.6H751v13.9c0,3.5,0.4,3.6,6,3.6c6,0,7.6-0.5,14.3-11h3l-1.5,13.8
		h-45.3v-2.1c4.6-0.1,5-0.5,5-3.7V8.5z"/>
	<path class="st0" d="M809.4,15.9C805.5,7.7,801.8,4,796.5,4c-3.4,0-6.8,1.1-6.8,5.3c0,3.4,4.5,6.1,10.2,8
		c12.1,4.2,16.3,6.8,16.3,14.7c0,7.6-5.8,14.3-22.3,14.3c-5.1,0-12.6-1.1-17.3-3.6L775.5,30h3c4.8,8.5,9.1,13.8,16,13.8
		c4.1,0,6.6-1.8,6.6-5.2c0-2.6-0.7-5.3-9-8.2c-13.6-4.7-16.5-8.5-16.5-15.2c0-8.5,7.5-13.6,20.6-13.6c6,0,11.7,0.9,16.2,2.4v11.9
		H809.4z"/>
	<path class="st0" d="M692.3,62.6c3.5,7.1,7.9,16,11.7,23.3h0.2c3.1-7.7,6.1-15,9.1-23.3h23.3v2c-4.6,0.1-5,0.6-5,3.8v30.9
		c0,3.2,0.4,3.6,5,3.7v2.1h-28.1v-2.1c4.6-0.1,5-0.5,5-3.7V72.6h-0.7l-11.4,32.6h-8.1l-13.8-32.6h-0.7v10c0,5.6,0.2,14.5,0.7,16.8
		c0.5,2.6,1.7,3.2,3.9,3.4l3.4,0.4v2.1h-18.3v-2.1l2.8-0.5c2-0.3,2.9-0.6,3.2-3.2c0.4-2.4,0.7-11.3,0.7-16.9V68.5
		c0-3.2-0.4-3.7-5-3.8v-2H692.3z"/>
	<path class="st0" d="M742.4,68.5c0-3.2-0.4-3.7-5.1-3.8v-2h28.4v2c-4.6,0.1-5,0.6-5,3.8v24.2c0,7.7,1.8,11.1,6.6,11.1
		s6.5-3.3,6.5-11.1V68.5c0-3.2-0.4-3.7-5-3.8v-2h27.9v2c-4.6,0.1-5,0.6-5,3.8v21.4c0,10.7-4.6,16.4-24.6,16.4
		c-19.9,0-24.7-5.6-24.7-16.1V68.5z"/>
	<path class="st0" d="M830.1,75.9c-3.9-8.2-7.5-11.9-12.9-11.9c-3.4,0-6.8,1.1-6.8,5.3c0,3.4,4.5,6.1,10.2,8
		c12.1,4.2,16.3,6.8,16.3,14.7c0,7.6-5.8,14.3-22.3,14.3c-5.1,0-12.6-1.1-17.3-3.6L796.2,90h3c4.8,8.5,9.1,13.8,16,13.8
		c4.1,0,6.6-1.8,6.6-5.2c0-2.6-0.7-5.3-9-8.2c-13.6-4.7-16.5-8.5-16.5-15.2c0-8.5,7.5-13.6,20.6-13.6c6,0,11.7,0.9,16.2,2.4v11.9
		H830.1z"/>
	<path class="st0" d="M859.9,99.4c0,3.2,0.3,3.6,5,3.7v2.1h-28.4v-2.1c4.6-0.1,5-0.5,5-3.7V68.5c0-3.2-0.4-3.7-5-3.8v-2h28.4v2
		c-4.7,0.1-5,0.6-5,3.8V99.4z"/>
	<path class="st0" d="M909.5,76c-2.3-5.4-6.4-12-13.3-12c-11,0-12.3,14.1-12.3,19.7c0,7.8,1.8,20.2,12.7,20.2
		c7.3,0,9.8-4.9,13.9-12.7h2.9l-1.3,12.2c-5.2,2.2-11.5,2.9-17.7,2.9c-10.4,0-17.5-1.4-22.5-5.1c-4.8-3.5-7.3-9.6-7.3-16.8
		c0-6.5,1.9-12.6,6.8-16.6c4.8-3.9,11.1-6.2,24.1-6.2c4.4,0,13.2,0.9,16.9,2.7V76H909.5z"/>
</g>
</svg>
