<?xml version="1.0" encoding="utf-8"?>
<!-- Generator: Adobe Illustrator 27.2.0, SVG Export Plug-In . SVG Version: 6.00 Build 0)  -->
<svg version="1.1" id="レイヤー_1" xmlns="http://www.w3.org/2000/svg" xmlns:xlink="http://www.w3.org/1999/xlink" x="0px"
	 y="0px" viewBox="0 0 415.6 417.4" style="enable-background:new 0 0 415.6 417.4;" xml:space="preserve">
<style type="text/css">
	.st0{fill:#FFFFFF;}
</style>
<path class="st0" d="M123.9,1.8c-10.3,6.7-19.7,14.5-27.6,23.9c-1,0-1.6-0.1-2.6-0.1c9.6-14.8,18.2-19.4,13.4-18.9
	c-0.7,0.1-1,0.1-1.7,0.2c-1.7,0.2-2.6,0.5-7.2,3.6C84.8,19,73.5,30.9,64.3,43.7c1.5,0,2.2,0,3.7,0c4,0,4.1-1.4,18.6-15.3
	c1.1,0,1.7,0,2.8,0C78.6,41,71,55.6,64.2,70.6c-1.3-0.1-2-0.2-3.3-0.3c4.6-17,6.4-19.3,2.4-19.4c-1.5,0-2.3,0-3.8-0.1
	c-7.5,11.9-13,24.4-18.1,37.4c-3.5,9.7-3.3,11.1,2.9,12.2c-0.8,2.6-1.1,4-1.8,6.6c-11.1-1.2-22.1-2.1-33.2-2.7
	c0.8-2.5,1.2-3.8,2.1-6.3c5.3-0.2,6-1.5,9.8-10.9c13.5-30.1,31.3-53.9,59-72c9.7-5.7,10.5-5.8,7.4-5c2.4-1.1,3.6-1.6,5.9-2.6
	C103.6,4.9,113.4,2.3,123.9,1.8z"/>
<path class="st0" d="M71.6,111.7c0.6-2.8,0.9-4.2,1.5-6.9c1.7-0.3,2.5-0.5,4.2-0.7c2.1-0.3,2.6-2.5,3.6-8.7c1.5-9.6,3.4-19.5,6-29
	c-5.2-0.8-7.9-1.2-13.2-1.8c-5,9.3-9.8,18.6-13.6,28.3c-2.1,5.3-2.4,7.7-0.5,8.4c1.8,0.7,2.6,1.1,4.4,1.8c-0.7,2.7-1,4.1-1.6,6.8
	c-7.3-1.3-10.9-1.8-18.3-2.8c0.7-2.7,1-4,1.8-6.7c4.6-0.3,5.4-1.3,9-8.3c17.8-35.6,40.3-68.8,74.5-90.5c3.5,0,5.3,0.1,8.7,0.5
	c-26.5,24.4-35.5,63-37.2,97.8c-0.4,8.6-0.3,9.8,3.8,12.4c-0.5,2.9-0.7,4.3-1.2,7.2C92.8,116.6,82.3,114.1,71.6,111.7z M89.3,58.1
	c4.4-13.6,10.4-26.9,19-38.4c-0.1,0-0.2,0-0.3,0c-11.5,10.8-21.3,23.7-29.6,37C82.8,57.2,85,57.5,89.3,58.1z"/>
<path class="st0" d="M166,10.1c10.6,5,4.2,17.2,1.6,25.3C165,44,159.2,56,148.3,54.3c-0.2,0.7-0.3,1-0.5,1.6
	c12.9,8.1,9.8,26.6,8,38.5c-2.2,14.1-8.3,41.7-29.7,32.6c-9.4-3.5-19-6.6-28.6-9.2c0.5-2.9,0.7-4.3,1.3-7.1
	c4.8,0.9,5.4-0.5,7.6-11.1c6.9-29.5,15.4-59.9,34.3-84.3c5.6-7,6-7.4,3.3-8.3c1.4-1.4,2.1-2.1,3.5-3.4C155.1,5.4,158.8,6.7,166,10.1
	z M138.6,49.7c0.7,0.2,1,0.4,1.7,0.6c4.4,1.6,7.2-4.4,13-17.7c6.2-14.1,7.7-18.7,6-19.4c-1.8-0.7-2.5,0.2-4.1,2.5
	C148.1,26.2,142.9,37.8,138.6,49.7z M124.4,105.8c-1.2,6.9-0.4,12.3,1.9,12.3c5.9-0.2,10-21.6,11.7-29.5c1.8-8.2,6.7-24.2,0.1-31.3
	c-0.7-0.3-1.1-0.4-1.8-0.6C131,72.6,127.5,89.2,124.4,105.8z"/>
<path class="st0" d="M202.5,92.7c-0.3,11.1-1.2,75-28.2,59.9c-26.7-15-23-63-16.8-86.9c2-7.9,16.5-56.9,33.2-41.2
	C206,38.7,203,73.7,202.5,92.7z M174.8,143.5c6.4,1.5,11.3-49.8,12.4-61.5c1.3-13.9,7.2-50.6,2.3-53.3c-4.2-2.3-14.6,36.5-16,45
	C171,89.5,166.5,141.7,174.8,143.5z"/>
<path class="st0" d="M218.3,140.7c0.2,11.3,0.6,12.6,5,10.4c0.1,3,0.1,4.5,0.2,7.6c-7,5.8-19.7,13.5-26.8,2.8
	c0.1-3.1,0.1-4.6,0.1-7.6c4.3,2.2,4.7,1,4.9-10.4c0.4-30.3,0.8-60.6,2.1-90.9c0.3-7.6,0.2-8.3-2.3-11.1c0.1-1.6,0.2-2.4,0.4-3.9
	c6.4,6.9,9.5,2,16-4.5c5-5,10.4-8.3,15.3,12.9c2.7,11.9,1.1,27-8.3,35.6c0,0.5,0.1,0.7,0.1,1.2c11.7,0.7,14.6,18.2,15.9,27.1
	c1.2,8.5,0.4,22.2,8.4,26.8c0.2,3,0.3,4.5,0.5,7.5c-4.1,2-6.1,3.1-10.1,5.2c-7.9,4.2-12,0.5-14.3-15.6c-1.5-10.7-2.2-21.7-3.2-32.5
	c-0.8-8.1-2.4-10.2-4.1-9c-0.4,0.3-0.7,0.5-1.1,0.8C217.5,109.1,218,124.9,218.3,140.7z M216.6,86.1c0.5-0.4,0.7-0.5,1.2-0.9
	c6.3-6.9,4.6-19.3,3.6-27.6c-1.6-13.7-3.9-18.8-5.9-16.7c-1.4,1.4-1.5,2.5-1.1,6.8C215.4,60.4,216,73.3,216.6,86.1z"/>
<path class="st0" d="M266.3,115c1.3,11,1.7,12.4,6.4,10.9c0.3,2.9,0.5,4.4,0.8,7.4c-9.5,4-19,8.4-28.2,13.2c-0.2-3-0.3-4.5-0.5-7.5
	c4.4-2.8,4.8-4.5,3.8-15.6c-2.8-29.9-5.7-60.4-14.3-89.3c-2.4-7.5-2.9-7.8-5.5-6c-0.5-1.6-0.7-2.4-1.2-3.8c6-4.9,9-7.1,15.3-10.7
	c0.8,1.4,1.3,2.1,2.1,3.7c-2.6,1.8-2.4,2.3,0.9,9.7C257.9,54.7,262.3,85.3,266.3,115z"/>
<path class="st0" d="M252.5,15.5c-0.6,0.3-0.9,0.4-1.5,0.7c-2.8,1.4-1.1,0.2,4.3,25.6c-1.1,0.5-1.6,0.8-2.7,1.3
	c-3.4-9.7-6.9-19.1-12-28.1c8.1-5.2,18.5-9.5,28-11.4c8.3,8.5,14.6,16.3,21.1,26.2c-1.1,0.3-1.7,0.4-2.8,0.7
	c-5-6.2-12.6-18.9-21.6-19.9c-0.6,0.2-0.9,0.3-1.6,0.5c21.3,25.1,29.4,60.1,36.1,91.4c2.1,10.7,3.6,11.7,9.6,10.4
	c0.5,2.9,0.7,4.3,1.2,7.2c-11.2,3.4-22.3,7.3-33.1,11.7c-0.3-3-0.5-4.4-0.8-7.4c5.6-2.7,6.8-4.7,5.1-15.6
	C276.5,77.3,270.5,42.5,252.5,15.5z"/>
<path class="st0" d="M279.6,14.3c-6-6.9-6.9-7.2-10.1-6.7c-1.4-1.5-2-2.1-3.4-3.4c10.5-2.6,16.1-3.1,27.8-2.2
	c10,6.3,19.2,13.6,27.1,22.4c-1.1,0-1.6,0-2.7,0.1C310.7,18,300.7,7,289.8,6.2c-0.8,0-1.1,0.1-1.9,0.1c-1.6,0.1-1.2,0.4,3,4.3
	C301,20,308.2,31,315.2,42.7c1-0.1,1.5-0.2,2.5-0.3c4.4-0.6,5.2-2.4-3.5-16.2c1-0.1,1.6-0.1,2.6-0.2c10.1,12.2,17.8,26.4,24.1,40.9
	c-1.2,0.2-1.9,0.2-3.1,0.4c-10.4-18.1-11.5-18.1-16.1-17.5c-1,0.1-1.5,0.2-2.6,0.4c6.2,13.6,11.1,27.1,15.4,41.4
	c3.1,11.3,3.5,11.6,9.3,10.4c12.5-2.6,4.6-29.3,3.4-36.1c1.2-0.1,1.8-0.2,3.1-0.3c5.4,14.1,9.6,27.9,12.9,42.6
	c-16.4,2.4-32.6,6-48.5,10.5c-0.5-2.9-0.7-4.3-1.2-7.2c4.7-1.8,5-3.3,2.6-13.9C308.4,67.5,298.6,39.4,279.6,14.3z"/>
<path class="st0" d="M351.9,28c-12.4-8.7-26.4-18.8-40.5-22.3c-2.3-0.6-0.7,1,8.9,8.2c8.2,6.1,16.9,11.6,26.1,16.1
	c17.6,8.6,33,19.4,43.2,36.4c7.3,12.2,15.2,40.8-7.6,42.9c-5.6,0.5-14.9-1.9-22.1-9.1c-4.3-13.2-9-26-15.3-38.4
	c1.2-0.1,1.8-0.2,3-0.3c7.2,10.7,20.1,39.2,32.8,39.6c4,0.2,5.7-6.4,1.9-16.3c-3.8-9.9-11.3-17.5-20.4-23.1
	c-16.7-9.8-28.5-23.1-41-37.2c-6-6.7-14.9-14.1-19.6-22.2c1.2,0,2.6-0.2,3.7-0.1c3.7,0.4,10.5,3,18.2,6c11.3,5.3,22,11.7,31.5,19.9
	C353.5,28.3,353,28.2,351.9,28z"/>
<path class="st0" d="M41.6,213.4c10.4,27.7,22.4,51.7,39.3,76.1c0.1,0,0.1,0,0.2,0.1c-11.1-21.7-14.7-45-16.2-69.1
	c10.2,3.3,15.3,5.1,25.3,8.8c0.4,3,0.6,4.3,1,6.9c-4.8-1.5-5.4-1.7-3.4,11.1c7.4,32.7,20.2,61.6,37.3,90.3c4.9,8,5.8,9.1,9.2,12
	c1.2,2.1,1.9,3.1,3.1,5.2c-7.4-6.3-11.1-9.5-18.7-15.6c-1.6-2-2.4-3-3.9-4.9c3,2.2,2.5,1.5-3.1-6.2c-16.5-23.3-29.8-46.9-39.3-73.9
	c-0.3-0.1-0.4-0.2-0.7-0.3c8.2,31.3,22.3,56.2,42.3,81.4c-2.2-1.8-3.3-2.7-5.5-4.4c-26.7-28.1-52.3-55.9-71.9-89.6
	c-0.3-0.1-0.4-0.1-0.7-0.2c4.6,9.9,9.3,19.4,15.5,28.4c10,14.9,21.9,28.3,34.6,40.9c6.1,6.1,8.4,8,10.3,9.6c1.3,1.1,2,1.6,3.3,2.7
	c1.8,1.9,2.7,2.8,4.6,4.7c-5-4-7.5-6-12.5-9.9c-2-1.8-3.1-2.7-5.1-4.5c0.4,0.2,0.5,0.3,0.9,0.5c0.8,0.5,0.6,0.3-5.1-5.3
	c-12.6-12.4-24.5-25.5-34.6-40.1c-8.6-12.7-16.3-26.6-20.7-41.4c-3-11.9-3.4-11.8-8.6-13.5c-0.6-2.4-0.9-3.6-1.6-6.3
	C26.7,209.3,31.7,210.6,41.6,213.4z"/>
<path class="st0" d="M129.6,265.5c-1.3-13.3-1.7-13.4-6.6-16c-0.3-2.7-0.4-4.1-0.7-7.1c10,4.5,19.8,9.1,29.5,14
	c0.2,3.1,0.3,4.5,0.5,7.3c-4.6-2-5.1-2.2-4.1,11.2c2.9,26.4,7.4,51.9,13.8,77.6c3.1,11.2,10.4,33.6,12.6,33.8
	c1.4,0.1-1.5-20.8-2.5-26.1c-5-26-8.6-51.9-10.9-78.3c-0.8-13.5-1.2-13.7-5.9-16.6c-0.2-2.8-0.3-4.2-0.5-7.3
	c9.5,5.1,18.9,10.3,28.3,15.7c0.1,3.2,0.1,4.6,0.2,7.4c-4.5-2.3-5-2.5-4.5,11.1c1.2,23.7,3,47.3,5.8,70.9c0.1,1.4,5.3,47.3-8.4,29.8
	c-12.1-15.5-24.3-37.2-31-57.6C137.9,312.4,132.9,289.3,129.6,265.5z"/>
<path class="st0" d="M242.7,314c-0.5-7.6-2.8-37-10.1-35.5c-2.6,0.6-6.7,8.2-7.2,23.9c-0.4,12.7,3.4,19.1,8.1,22.1
	c13.1,8.2,10.2,22.6,8.1,35.4c-3,17.6-9.1,39.1-21.1,53.1c-2.8,3.3-6.9,5.3-9.5,1.7c0-11.7,0-23.3,0-35c0.9-0.8,1.4-1.2,2.3-2
	c1,7.3,4.7,29.1,8.4,28c1.7-0.5,4.8-9.1,6-18.3c1-7,1.7-14.2-4-17.4c-12.8-6.5-12.2-25.8-11.9-37.7c0.5-20.1,2.1-51.3,20.9-63.1
	c5.7-3.6,11.7-2.8,16,0c-0.7,14.3-1.5,28.6-3,42.8C244.4,312.9,243.9,313.3,242.7,314z"/>
<path class="st0" d="M274.4,349.7c-4,8.2-4.3,9-1.3,6.6c-1.1,2.1-1.7,3.2-2.8,5.3c-7.4,6.5-11,9.8-18.2,16.6c0.8-2.2,1.2-3.3,2-5.5
	c3.1-3,3.9-4.2,7.1-12.6c11.7-30.8,19.9-61.9,24.5-94.5c1.3-13.3,0.8-13-3.9-11.2c0.2-2.8,0.4-4.1,0.6-7.2c9.9-4.5,19.9-8.8,30-12.9
	c-0.4,3-0.6,4.3-0.9,7c-5,2.5-5.3,2.5-6.9,15.6C298.8,289.7,288.5,319.7,274.4,349.7z"/>
<path class="st0" d="M379.4,249.7c2.1-6.7,7.5-34.7-1.5-33.2c-7.8,1.3-13.3,19.3-17.7,29c-5.6,12.3-11.5,24.4-18.2,36.1
	c-5,8.7-28.1,43-27.9,43c2.7,0.8,25.9-23.6,38.3-35.9c1-0.5,1.5-0.8,2.5-1.3c-9.1,9.7-18.8,18.8-28.7,27.8
	c-8.9,7.5-14.7,12.7-18.8,16.1c-6.9,5.7-8.6,6.4-5.6,0.3c6.6-13.2,14.4-26.1,21.1-39.3c9.1-17.9,16.8-36.9,25.5-54.9
	c5.9-12.4,16.7-25.4,30.7-28.9c4.9-1.3,14-0.2,16.8,4c-3,12.8-7.1,24.7-13.4,36.3C381.1,249.1,380.5,249.3,379.4,249.7z"/>
<path class="st0" d="M2.7,194.2c4.7-8.8,7-13.2,11.5-22.1c-5.5-2.2-8.2-3.4-13.6-5.8c0.9-2.3,1.4-3.5,2.3-5.8
	c5.7,2.5,8.6,3.7,14.4,6.1c3.2-6.2,4.8-9.4,8-15.6c-5.4-2.1-8-3.2-13.4-5.5c0.9-2.4,1.4-3.6,2.3-5.9c5.6,2.4,8.4,3.6,14.1,5.8
	c4.3-8.7,6.5-13.1,10.7-21.9c2.3,0.9,3.5,1.4,5.9,2.2c-4.1,8.8-6.2,13.3-10.4,22.1c7,2.7,10.5,3.9,17.6,6.3c3.9-9,5.8-13.5,9.6-22.5
	c2.4,0.8,3.6,1.2,6.1,1.9c-3.7,9.1-5.5,13.6-9.3,22.6c5.2,1.7,7.8,2.5,13,4c-0.6,2.5-1,3.7-1.6,6.2c-5.7-1.6-8.5-2.5-14.1-4.3
	c-2.8,6.5-4.2,9.7-7,16.2c5.6,1.8,8.5,2.7,14.1,4.4c-0.6,2.4-1,3.6-1.6,6.1c-6.1-1.8-9.2-2.7-15.2-4.7c-4.1,9.1-6.1,13.7-10.3,22.8
	c-2.8-0.9-4.1-1.4-6.9-2.4c4.2-9,6.3-13.5,10.4-22.6c-7.5-2.6-11.2-4-18.6-6.9c-4.4,8.9-6.7,13.4-11.3,22.3
	C6.8,195.9,5.4,195.4,2.7,194.2z M42.2,175.9c2.9-6.4,4.3-9.6,7.1-16.1c-7.2-2.4-10.7-3.7-17.8-6.4c-3,6.3-4.6,9.5-7.7,15.8
	C31.1,172,34.8,173.4,42.2,175.9z"/>
<path class="st0" d="M91.8,184.8c2.4,3.4,9.5,14.2,11.2,16.8c-1.7,1.6-2.5,2.3-4.3,3.9c-1.5-3.3-5.3-10.1-8.2-14.9
	c-2.5,12.4-5.1,24.7-7.6,37.1c-2.2-0.5-3.3-0.8-5.5-1.3c2.9-13.2,5.7-26.4,8.6-39.7c-5,7.9-11.9,16.3-19.4,22
	c-0.3-1.7-1-4.5-1.6-6.2c9.3-6.5,15.7-15.8,22-25c-5.6-1.4-8.4-2.1-13.9-3.6c0.5-2.2,0.8-3.3,1.4-5.5c5.9,1.6,8.8,2.4,14.8,3.8
	c1.3-5.8,1.9-8.8,3.2-14.6c-4.7,0.3-9.5,0.2-14.2,0.1c0.1-1.3-0.2-3.4-0.5-4.8c9.4,0.7,20.9,0,29.8-3.4c1.5,2.1,2.2,3.2,3.7,5.3
	c-0.3,0.2-0.6,0.2-0.9,0.2c-0.2,0-0.4-0.1-0.6-0.2c-3.3,1.1-7.6,2-12.2,2.5c-1.3,6.5-2,9.7-3.3,16.2c5.2,1.2,7.9,1.8,13.1,2.8
	c-0.4,2.3-0.6,3.4-1,5.6c-5.3-1.1-8-1.7-13.3-2.9C92.5,181.3,92.2,182.4,91.8,184.8z M129.3,197.9c4.2,12.2,7.9,24.8,9.3,37.6
	c-2.4,0.6-3.6,0.8-6,1.4c-0.2-2.5-0.6-5.5-1.2-8.8c-12.8-0.2-25.6-0.9-38.3-2.4c-0.2,0.7-0.8,1-1.4,1c-0.4-3-0.5-4.5-0.9-7.6
	c3.2,0.4,4.8,0.7,8,1.1c10-21.1,17.9-43.5,24.3-65.9c2.7,1.2,4,1.8,6.7,3c-0.2,0.7-1,1.1-2,1.1c-6.3,21.2-13.8,42.4-23.1,62.5
	c7.8,0.9,16.7,1.5,25.5,1.9c-1.6-7.9-3.8-16.5-6.3-23.8C126.2,198.5,127.2,198.3,129.3,197.9z"/>
<path class="st0" d="M177.7,174.8c-0.3,0.8-1,1.4-1.9,1.3c-2.4,13-8.1,50.8-27.8,49.3c-6.7-0.5-12.3-8.9-10.7-22.8
	c2.2-18.9,18.1-36,37.7-35.5c18,0.5,30.6,17,30.9,34.1c0.3,19.7-12.8,32.2-31.6,35.4c-0.7-1.5-2-3.9-3.2-5.6
	c16.1-1.4,28.8-13.3,29-29.5c0.2-14.7-10.6-27.6-25.4-28.6c-0.7-0.1-1.6,0-2.3,0C174.6,173.7,175.6,174.1,177.7,174.8z M170.6,173.2
	c-15.5,0.6-26.2,16.2-27.9,29.9c-1.1,9.2,2.6,16.2,6,16.1C163.5,218.9,168.5,185.2,170.6,173.2z"/>
<path class="st0" d="M231.3,198.3c0.4,2,0.6,3,1,5.1c-3.5,1.6-5.3,2.4-8.9,4c0.4,10.4,0.6,15.6,1,26c0.3,6.8-2.8,7.7-13.7,7.7
	c-0.2-1.5-1.1-4-1.8-5.7c2.3,0.1,4.4,0.1,6.1,0.1c3.6-0.1,4-0.1,4-1.9c-0.3-9.6-0.4-14.4-0.7-24c-3.7,1.5-7.2,2.9-10,3.9
	c-0.1,0.8-0.5,1.2-1,1.5c-0.8-2.7-1.2-4.1-2-6.9c3.5-1.1,7.9-2.7,12.8-4.6c-0.2-8.4-0.4-12.5-0.6-20.9c-4.6,0.2-6.9,0.2-11.5,0.2
	c0-2.2,0-3.3,0-5.6c4.6,0,6.8-0.1,11.4-0.2c-0.2-7.2-0.3-10.8-0.5-18.1c2.5,0.1,3.7,0.1,6.1,0.2c0,0.7-0.4,1.1-1.3,1.3
	c0.3,6.6,0.4,9.8,0.6,16.4c3.3-0.1,5-0.2,8.4-0.4c0.1,2.2,0.2,3.3,0.3,5.6c-3.4,0.2-5.1,0.3-8.5,0.4c0.3,7.7,0.4,11.5,0.7,19.1
	C226.4,200.4,228,199.7,231.3,198.3z M282.9,224.1c0.3,2.2,0.5,3.2,0.8,5.4c-12.9,2.1-25.9,3.6-38.9,4.7c0.2,2.1,0.2,3.2,0.4,5.3
	c-2.2,0.2-3.3,0.3-5.5,0.4c-1.1-17.2-2.2-34.5-3.3-51.7c-1.6,3.5-3.4,6.7-5.4,9.4c-0.8-1.2-2.4-3.4-3.5-4.5
	c7.2-10.4,10.7-23.2,12.5-35.6c2.4,0.6,3.7,0.9,6.1,1.5c-0.2,0.6-0.6,1-1.5,1.1c-0.9,5.1-2,10.3-3.5,15.3c4.6-0.4,6.9-0.6,11.4-1.1
	c1.6-5.3,3.1-12.8,3.9-18.1c2.4,0.7,3.6,1,6.1,1.6c-0.2,0.6-0.7,1-1.5,1.1c-0.8,4.3-2.1,10-3.6,14.8c6.7-0.8,10-1.3,16.7-2.3
	c0.3,2.1,0.4,3.2,0.7,5.3c-6.6,1-9.9,1.5-16.5,2.3c0.5,4.9,0.8,7.4,1.3,12.3c5.9-0.7,8.9-1.1,14.8-2c0.3,2.1,0.4,3.1,0.7,5.2
	c-6,0.9-9,1.3-14.9,2c0.5,5,0.8,7.5,1.3,12.5c6.1-0.7,9.2-1.2,15.3-2.1c0.3,2.1,0.4,3.1,0.7,5.2c-6.2,0.9-9.2,1.4-15.4,2.1
	c0.5,5.1,0.8,7.6,1.4,12.7C271.3,225.9,275.2,225.4,282.9,224.1z M254.7,191.9c-0.5-4.9-0.7-7.4-1.2-12.3c-5.1,0.6-7.6,0.8-12.7,1.2
	c0.4,4.9,0.5,7.4,0.9,12.3C247,192.7,249.6,192.5,254.7,191.9z M256.5,209.5c-0.5-5-0.7-7.5-1.2-12.5c-5.2,0.6-7.9,0.8-13.1,1.3
	c0.4,5,0.6,7.5,0.9,12.5C248.4,210.4,251.1,210.1,256.5,209.5z M243.5,216c0.4,5.1,0.6,7.7,0.9,12.8c5.5-0.5,8.3-0.7,13.8-1.3
	c-0.5-5.1-0.7-7.6-1.2-12.7C251.6,215.3,248.9,215.6,243.5,216z"/>
<path class="st0" d="M287.1,155.1c0,1.1-0.5,1.8-1.9,2.3c1.7,15.4,4.2,31.3,6.2,46.2c1.3,9.8,8.8,18.6,19.5,16
	c11.7-2.9,20.6-12.6,25.3-23.5c1.1,1.1,3.6,3.4,4.8,4c-5.5,12.3-16.3,22.3-29,25.7c-14.5,3.9-24.8-8-26.7-21.2
	c-2.4-16.2-4.4-32.6-6.2-48.9C282.3,155.5,283.9,155.4,287.1,155.1z"/>
<path class="st0" d="M373,144.9c7.4-2.9,11.1-4.4,18.4-7.6c7.7,19.6,15.3,39.2,23,58.9c-2.1,0.9-3.2,1.4-5.3,2.3
	c-0.8-2-1.2-3-1.9-5.1c-17.9,7.6-36.3,14.4-54.9,19.9c0.6,2.3,0.9,3.4,1.5,5.7c-2.1,0.6-3.2,0.9-5.3,1.6
	c-5.3-20.6-10.7-41.3-16-61.9c7.2-2.1,10.8-3.2,17.9-5.6c-1.9-6.5-2.9-9.7-4.8-16.2c2.5-0.6,3.7-0.9,6.2-1.6c0.1,0.6-0.2,1.2-1,1.7
	c1.8,5.8,2.7,8.7,4.5,14.5c5.2-1.8,7.8-2.7,12.9-4.7c-2.2-6.4-3.2-9.6-5.4-16c2.5-0.7,3.7-1.1,6.2-1.8c0.1,0.6-0.1,1.2-1,1.7
	C370,136.3,371,139.2,373,144.9z M352.1,158.6c-5.3,1.8-8,2.6-13.4,4.2c2.1,7.8,3.1,11.7,5.2,19.4c5.6-1.7,8.3-2.6,13.9-4.4
	C355.6,170.1,354.4,166.3,352.1,158.6z M345.5,187.8c2.1,7.9,3.2,11.9,5.3,19.9c5.8-1.8,8.7-2.7,14.5-4.6
	c-2.3-7.9-3.5-11.8-5.8-19.7C353.9,185.2,351.1,186.1,345.5,187.8z M370.1,152.2c-5.2,2-7.8,2.9-13.1,4.7c2.4,7.7,3.5,11.5,5.9,19.2
	c5.5-1.9,8.2-2.9,13.6-4.9C373.9,163.6,372.6,159.8,370.1,152.2z M378.3,176.6c-5.5,2.1-8.2,3.1-13.7,5c2.4,7.9,3.6,11.8,6,19.6
	c5.7-2,8.6-3,14.2-5.2C382.2,188.3,380.9,184.4,378.3,176.6z M388.8,144.7c-5.5,2.4-8.3,3.5-13.9,5.7c2.6,7.6,4,11.4,6.6,19
	c5.8-2.3,8.7-3.4,14.4-5.9C393,155.9,391.6,152.2,388.8,144.7z M390.1,194.1c6.1-2.4,9.1-3.6,15.1-6.2c-2.9-7.7-4.4-11.5-7.3-19.2
	c-5.8,2.5-8.7,3.7-14.6,5.9C386,182.5,387.4,186.3,390.1,194.1z"/>
</svg>
