<?xml version="1.0" encoding="utf-8"?>
<!-- Generator: Adobe Illustrator 27.2.0, SVG Export Plug-In . SVG Version: 6.00 Build 0)  -->
<svg version="1.1" id="レイヤー_1" xmlns="http://www.w3.org/2000/svg" xmlns:xlink="http://www.w3.org/1999/xlink" x="0px"
	 y="0px" viewBox="0 0 441 38" style="enable-background:new 0 0 441 38;" xml:space="preserve">
<style type="text/css">
	.st0{fill:#FFFFFF;}
</style>
<g>
	<path class="st0" d="M21.6,2.4c3.2,5.7,7.3,12.7,10.7,18.5h0.1c2.8-6.1,5.6-11.9,8.3-18.5h21.3V4c-4.2,0.1-4.6,0.5-4.6,3v24.6
		c0,2.6,0.4,2.9,4.6,3v1.7H36.4v-1.7c4.2-0.1,4.6-0.4,4.6-3V10.3h-0.6L30,36.3h-7.4L9.9,10.3H9.3v7.9c0,4.5,0.2,11.6,0.7,13.3
		c0.4,2.1,1.6,2.6,3.5,2.7l3.1,0.3v1.7H-0.1v-1.7l2.5-0.4c1.8-0.2,2.6-0.5,2.9-2.6c0.4-1.9,0.6-9,0.6-13.4V7c0-2.6-0.4-2.9-4.6-3
		V2.4H21.6z"/>
	<path class="st0" d="M108.2,2.4V4c-2.8,0.2-4,0.3-5.2,2.1c-2.1,3-7.1,10.7-9.9,15.7c-0.4,0.6-0.6,1.2-0.6,2.4v7.5
		c0,2.5,0.3,2.7,6,2.9v1.7H70.4v-1.7c5.6-0.2,5.9-0.4,5.9-2.9v-7.1c0-1-0.2-1.7-0.7-2.4c-2.9-4.6-8.9-13.3-11.3-16.2
		c-1.3-1.6-1.9-1.8-4.6-1.9V2.4H87V4l-3.4,0.3c-1,0.1-1.1,0.7-0.5,1.7c1.5,2.6,5.8,9.4,8.4,13.4h0.1c2.7-5,5.7-11.3,6.5-13.1
		c0.5-1.2,0.4-1.9-0.8-2L93.7,4V2.4H108.2z"/>
	<path class="st0" d="M157,13c-2.1-4.3-5.8-9.5-12.1-9.5c-10,0-11.2,11.2-11.2,15.6c0,6.2,1.6,16,11.6,16c6.7,0,9-3.9,12.7-10.1h2.6
		l-1.2,9.7c-4.7,1.8-10.5,2.3-16.2,2.3c-9.5,0-16-1.1-20.6-4.1c-4.4-2.8-6.7-7.7-6.7-13.3c0-5.2,1.7-10,6.2-13.2
		c4.3-3.1,10.2-4.9,22-4.9c4,0,12.1,0.7,15.4,2.1V13H157z"/>
	<path class="st0" d="M193.8,17.3V6.6c0-2.2-0.2-2.4-3.8-2.6V2.4h25.2V4c-4.5,0.1-4.6,0.4-4.6,2.6v25.6c0,2.2,0.3,2.3,4.6,2.4v1.7
		H190v-1.7c3.6-0.1,3.8-0.2,3.8-2.4V19.5H183v12.6c0,2.2,0.3,2.3,3.8,2.4v1.7h-25.2v-1.7c4-0.1,4.6-0.4,4.6-2.4V6.6
		c0-2.2-0.4-2.4-4.6-2.6V2.4h25.2V4c-3.6,0.1-3.8,0.4-3.8,2.6v10.8H193.8z"/>
	<path class="st0" d="M235.4,36.3v-1.7l3.3-0.4c1.6-0.2,1.6-0.7,1.2-2.2c-0.7-1.9-2-5.2-2.9-7.3h-12.2c-1.1,2.9-2.2,5.8-2.7,7.6
		c-0.5,1.4-0.2,1.9,1.5,2l4,0.3v1.7h-15.3v-1.7c3.7-0.2,4.1-0.5,5.3-2.3c2.6-4.2,11.2-23,13.7-29.9h12.4
		c2.3,6.3,10.9,25.3,13.8,29.6c1.3,2,1.4,2.2,5.3,2.6v1.7H235.4z M236,22.5c-1.3-3.2-3.5-8.4-5.1-12.2h-0.4
		c-1.3,3.1-3.6,8.8-4.9,12.2H236z"/>
	<path class="st0" d="M280.1,2.4c5.5,6,13.6,13.9,19.7,20.3h0.2v-5.5c0-4.4-0.3-8.8-0.7-10.5c-0.4-1.8-1.3-2.2-3.1-2.3L292.1,4V2.4
		h16.5V4l-1.9,0.2c-1.6,0.2-2.3,0.6-2.7,2.3c-0.3,1.9-0.6,6.3-0.6,10.7v19.1h-11.7c-7.8-8.6-15.9-17.1-23.5-25.7h-0.2v8.7
		c0,4.4,0.2,10.8,0.5,12.6c0.4,1.8,1.3,2.3,3.1,2.4l4.4,0.4v1.7h-16.7v-1.7l1.9-0.3c1.6-0.2,2.5-0.7,2.8-2.5
		c0.4-1.8,0.6-8.2,0.6-12.6V7c0-2.6-0.4-2.9-4.6-3V2.4H280.1z"/>
	<path class="st0" d="M328.4,2.4c5.5,6,13.6,13.9,19.7,20.3h0.2v-5.5c0-4.4-0.3-8.8-0.7-10.5c-0.4-1.8-1.3-2.2-3.1-2.3L340.4,4V2.4
		h16.5V4l-1.9,0.2c-1.6,0.2-2.3,0.6-2.7,2.3c-0.3,1.9-0.6,6.3-0.6,10.7v19.1h-11.7c-7.8-8.6-15.9-17.1-23.5-25.7h-0.2v8.7
		c0,4.4,0.2,10.8,0.5,12.6c0.4,1.8,1.3,2.3,3.1,2.4l4.4,0.4v1.7h-16.7v-1.7l1.9-0.3c1.6-0.2,2.5-0.7,2.8-2.5
		c0.4-1.8,0.6-8.2,0.6-12.6V7c0-2.6-0.4-2.9-4.6-3V2.4H328.4z"/>
	<path class="st0" d="M361.2,7c0-2.6-0.4-2.9-4.6-3V2.4h40v9.8h-2.9c-4.6-7.4-4.9-7.6-10.9-7.6h-2.5c-2.1,0-2.2,0.2-2.2,1.8v11.5
		h2.5c4.5,0,4.8-0.2,7.3-5.2h2.8v12.6h-2.8c-2.5-5-2.8-5.2-7.3-5.2h-2.5v11c0,2.8,0.4,2.9,5.5,2.9c5.5,0,7-0.4,13.1-8.8h2.8l-1.3,11
		h-41.4v-1.7c4.2-0.1,4.6-0.4,4.6-3V7z"/>
	<path class="st0" d="M421.5,31.2c0,2.5,1.1,2.9,5.2,2.9c4.6,0,6.4-1.2,11-8.8h3.2l-1.3,10.9h-39.6v-1.7c4.2-0.1,4.6-0.4,4.6-3V7
		c0-2.6-0.4-2.9-4.6-3V2.4h26.8V4c-4.6,0.1-5.4,0.5-5.4,3V31.2z"/>
</g>
</svg>
