<?xml version="1.0" encoding="utf-8"?>
<!-- Generator: Adobe Illustrator 27.2.0, SVG Export Plug-In . SVG Version: 6.00 Build 0)  -->
<svg version="1.1" id="countdown_NOW" xmlns="http://www.w3.org/2000/svg" xmlns:xlink="http://www.w3.org/1999/xlink" x="0px"
	 y="0px" viewBox="0 0 139 1284" style="enable-background:new 0 0 139 1284;" xml:space="preserve">
<style type="text/css">
	.st0{fill:#FFFFFF;}
</style>
<path class="st0" d="M138.8,29.7C129,37.6,116,49,105.5,57.7v0.3h9c7.3,0,14.4-0.4,17.3-1c3-0.5,3.7-1.9,3.8-4.4l0.5-6h2.6v23.5
	h-2.6l-0.3-2.8c-0.3-2.3-0.9-3.3-3.8-3.8c-3.1-0.4-10.3-0.9-17.5-0.9H83.2V46.1c14.2-11.1,28-22.6,42.2-33.5v-0.3h-14.3
	c-7.3,0-17.7,0.2-20.6,0.7c-2.9,0.5-3.8,1.9-4,4.4L86,23.7h-2.7V-0.1H86l0.4,2.8c0.3,2.3,1.1,3.6,4.1,4.1c3,0.5,13.4,0.9,20.7,0.9
	h20c4.2,0,4.8-0.5,5-6.5h2.6V29.7z"/>
<path class="st0" d="M131.2,86c4.2,0,4.8-0.5,5-6.5h2.6v57h-16.1v-4.2c12.1-6.5,12.5-6.9,12.5-15.5v-3.6c0-3-0.3-3.2-2.9-3.2h-18.9
	v3.6c0,6.4,0.3,6.8,8.5,10.4v4.1h-20.7v-4.1c8.2-3.6,8.5-4,8.5-10.4v-3.6H91.6c-4.6,0-4.7,0.5-4.7,7.8c0,7.8,0.6,9.9,14.4,18.7v4
	l-18-1.9V79.5H86c0.2,6,0.7,6.5,4.9,6.5H131.2z"/>
<path class="st0" d="M138.8,246h-2.6c-0.2-4.1-0.9-5.8-3.5-6.7c-10.5-3.8-35.5-11.3-49.4-15.4v-18.5l34.5-11.4v-0.3L83.2,186v-18.5
	c16.3-5,32.8-9.7,49-15.1c2.8-1,3.7-1.4,3.9-6h2.6v36.7h-2.6l-0.4-5.2c-0.2-1.5-1-1.8-3.1-1.4c-11.3,2.3-22.5,5.2-33.9,8.1v0.3
	l38.9,8v17.2l-40.2,13.2v0.5c10.9,2.9,30.2,7.2,35.8,7.9c1.5,0.2,2.3-0.4,2.5-2.2l0.5-5.4h2.6V246z"/>
<path class="st0" d="M83.2,302.4H86l0.6,4.7c0.3,2.3,1.1,2.3,3.6,1.7c3.1-1,8.5-2.9,12-4.2v-17.4c-4.8-1.6-9.6-3.1-12.4-3.8
	c-2.2-0.6-3.2-0.2-3.3,2.1l-0.4,5.7h-2.7v-21.8H86c0.3,5.2,0.8,5.9,3.8,7.6c6.9,3.7,37.7,15.9,49,19.5v17.7
	c-10.3,3.3-41.4,15.6-48.6,19.7c-3.2,1.8-3.7,2-4.2,7.6h-2.7V302.4z M105.8,303.3c5.2-1.8,13.8-5,20.1-7.3v-0.5
	c-5.1-1.8-14.4-5.1-20.1-6.9V303.3z"/>
<path class="st0" d="M91.5,377.7c-4.1,0-4.7,1.6-4.7,7.5c0,6.5,2,9.1,14.4,15.7v4.6l-17.9-1.9v-56.4H86c0.2,6,0.7,6.5,4.9,6.5h40.3
	c4.2,0,4.8-0.5,5-6.5h2.6v38.2h-2.6c-0.2-6.6-0.8-7.7-5-7.7H91.5z"/>
<path class="st0" d="M138.8,456c0,13.2-0.8,24.1-12.3,24.1c-6.5,0-11.6-5.8-12.5-19.8h-0.8c-0.7,11.2-2.4,22.2-13.8,22.2
	c-14,0-16.2-18.4-16.2-32v-36.1H86c0.2,6,0.7,6.5,4.9,6.5h40.3c4.2,0,4.8-0.5,5-6.5h2.6V456z M90.7,444.7c-2.6,0-4.2,0.3-4.2,4.7
	c0,4.9,4.3,8.4,12.4,8.4c7.7,0,12.3-3,12.3-10.4v-2.8H90.7z M114.4,444.7v2.7c0,6.9,2.7,8.9,10.2,8.9c7.9,0,10.9-4.3,10.9-7.8
	c0-3.8-0.7-3.7-2.1-3.7H114.4z"/>
<path class="st0" d="M131.2,498.2c4.2,0,4.8-0.5,5-6.6h2.6v37.1h-2.6c-0.2-6-0.8-6.5-5-6.5H99.6c-10.1,0-14.4,2.3-14.4,8.5
	c0,6.2,4.4,8.4,14.4,8.4h31.6c4.2,0,4.8-0.5,5-6.5h2.6V569h-2.6c-0.2-6-0.8-6.5-5-6.5h-27.9c-14,0-21.4-6-21.4-32
	c0-26,7.3-32.3,20.9-32.3H131.2z"/>
<path class="st0" d="M138.8,607.9c-9.3,4.6-20.8,10.4-30.4,15.3v0.2c10.1,4.1,19.6,8,30.4,11.9v30.3h-2.6c-0.2-6-0.8-6.5-5-6.5H90.8
	c-4.2,0-4.7,0.5-4.9,6.5h-2.7v-36.6H86c0.2,6,0.7,6.5,4.9,6.5h34.9v-0.9l-42.6-14.8v-10.6l42.6-18v-0.9h-13c-7.3,0-19,0.3-21.9,1
	c-3.4,0.6-4.2,2.2-4.4,5l-0.5,4.5h-2.7v-23.8H86l0.6,3.6c0.3,2.6,0.8,3.7,4.2,4.2c3.1,0.5,14.7,0.9,22,0.9h18.4c4.2,0,4.8-0.5,5-6.5
	h2.6V607.9z"/>
<path class="st0" d="M84.2,789.7c0-8.2,0.3-19.8,2.6-26l0.7-1.9c-2.6-5.8-4.2-16.6-4.2-28.7c0-20.2,6.2-33.2,16.7-33.2
	c6.4,0,7.9,4.2,12.7,20.9c2.1-3.2,6.8-6.6,11.2-6.6c9.1,0,14.9,11.5,14.9,30.9c0,17.3-4.4,27.1-12,27.1c-6,0-8.3-9.1-11-21.9
	c-4,5.5-11.5,18.7-16.1,26.7c1.9,2.5,7,4.3,9.7,4.3c3.2,0,6.2-1.3,8.5-2.7c2.6,3.3,3.9,11.4,3.9,14.3c-2.5,5.3-5.4,6.2-8.2,6.2
	c-4.4,0-12-9.8-16.2-18.2c-3.9,6.5-10.1,19.5-10.5,23.2l-2.7-0.7V789.7z M89.3,752.2c0,1.6,0.1,2.9,0.3,3.9
	c6-13.6,15.5-25.7,19.7-30.9c-0.9-0.6-1.9-0.7-2.8-0.7C96.2,724.5,89.3,737.6,89.3,752.2z M135.7,745.9c0-4.8-2.1-7.8-6.5-7.8
	c-3.9,0-8.1,3.9-11.4,9.1c2.1,5,5.2,7.5,9.4,7.5C132.3,754.6,135.7,750.6,135.7,745.9z"/>
<path class="st0" d="M8.1,31.6c-4.1,0-4.7,1.6-4.7,7.5c0,6.5,2,9.1,14.4,15.7v4.6l-17.9-1.9V1h2.7c0.2,6,0.7,6.5,4.9,6.5h40.3
	c4.2,0,4.8-0.5,5-6.5h2.6v38.2h-2.6c-0.2-6.6-0.8-7.7-5-7.7H8.1z"/>
<path class="st0" d="M7.4,107.4c-4.2,0-4.7,0.4-4.9,6.5h-2.7V76.9h2.7c0.2,6,0.7,6.5,4.9,6.5h40.3c4.2,0,4.8-0.5,5-6.5h2.6v37.1
	h-2.6c-0.2-6.1-0.8-6.5-5-6.5H7.4z"/>
<path class="st0" d="M52.7,199.8c-0.3-4.5-0.6-5.6-4-7.2c-11.6-5.2-35.8-15.2-48.9-19.9V155c16.1-6.5,32.3-13.1,48.4-19.7
	c3.9-1.7,4.2-2.7,4.5-6.8h2.6v37.4h-2.6l-0.4-5.3c-0.2-1.7-1.5-1.7-2.7-1.3c-11.6,4-25.5,9.4-37,13.7v0.6
	c12,4.3,30.4,10.5,36.7,12.1c1.4,0.3,2.6,0,2.8-1.7l0.6-5.8h2.6v21.6H52.7z"/>
<path class="st0" d="M47.8,219.8c4.2,0,4.8-0.5,5-6.5h2.6v57H39.3v-4.2c12.1-6.5,12.5-6.9,12.5-15.5V247c0-3-0.3-3.2-2.9-3.2H30v3.6
	c0,6.4,0.3,6.8,8.5,10.4v4.1H17.8v-4.1c8.2-3.6,8.5-4,8.5-10.4v-3.6H8.2c-4.6,0-4.7,0.5-4.7,7.8c0,7.8,0.6,9.9,14.4,18.7v4l-18-1.9
	v-59.1h2.7c0.2,6,0.7,6.5,4.9,6.5H47.8z"/>
<path class="st0" d="M51.7,345.1v-3.2c0-6.1-0.6-6.9-13.3-11.9v-4.7h17v63.3h-17v-4.6c12.6-4.9,13.3-5.8,13.3-12V369H7.4
	c-4.2,0-4.7,1.8-4.9,9.3h-2.7v-42.2h2.7c0.2,7.4,0.7,9.1,4.9,9.1H51.7z"/>
<path class="st0" d="M27.6,479.6c-17.9,0-29.1-11.1-29.1-36.4c0-25.1,11.3-36.3,29.1-36.3c18,0,29.1,11.2,29.1,36.3
	C56.7,468.6,45.7,479.6,27.6,479.6z M1.7,443.2c0,8,7.4,11.1,25.9,11.1c12.3,0,26-1,26-11.1c0-6-4.7-11-26-11
	C8,432.2,1.7,436,1.7,443.2z"/>
<path class="st0" d="M47.8,505.1c4.2,0,4.8-0.5,5-6.6h2.6v37.1h-2.6c-0.2-6-0.8-6.5-5-6.5H16.1c-10.1,0-14.4,2.3-14.4,8.5
	c0,6.2,4.4,8.4,14.4,8.4h31.6c4.2,0,4.8-0.5,5-6.5h2.6v36.4h-2.6c-0.2-6-0.8-6.5-5-6.5H19.8c-14,0-21.4-6-21.4-32
	c0-26,7.3-32.3,20.9-32.3H47.8z"/>
<path class="st0" d="M7.4,624.8c-4.2,0-4.7,0.4-4.9,6.5h-2.7v-36.7h2.7c0.2,6,0.7,6.5,4.9,6.5h40.3c4.2,0,4.8-0.5,5-6.5h2.6v41.6
	c0,12.9-1.2,23.8-13.2,23.8c-7.1,0-13-6.6-13.5-21.6h-0.5c-2.2,14.1-7.9,18.2-14.4,19.8c-9.8,2.3-10.5,3.3-11.3,8.3h-2.7v-13.5
	c0-10.6,2.1-15.8,8.5-18.3c3.7-1.5,10.9-2.1,13.1-2.6c3.4-0.5,4.8-2.9,4.8-5.7v-1.8H7.4z M29.3,624.8v2c0,8.1,5.7,9.6,11.5,9.6
	c7.3,0,11.5-2.9,11.5-7.9c0-3.3-0.7-3.7-3.2-3.7H29.3z"/>
<path class="st0" d="M44.1,728.7l-0.3,0.4H7.3c-4.4,0-4.5,0.5-4.8,6h-2.7v-35h2.7c0.3,5.4,0.4,6,4.8,6h27.9c2.3,0,3.2-0.5,3.5-2.2
	l0.4-3.1h2.7L44.1,728.7z M52.6,706.8c4,0,7.1,4.1,7.1,10.5c0,6.5-3.1,10.6-7.1,10.6s-7.1-4.1-7.1-10.6
	C45.5,710.9,48.6,706.8,52.6,706.8z"/>
<path class="st0" d="M44.1,764.1l-5.8,1.4c3.3,6.2,6,9.5,6,17c0,11.3-5.3,16.7-13.6,16.7H7.3c-4.4,0-4.5,0.6-4.8,6h-2.7v-32.4h2.7
	c0.3,3.4,0.9,3.8,3.2,3.8h23.8c5.7,0,7.6-2,7.6-5c0-3.4-2.1-5.6-8.1-5.6H6.9c-2.4,0-4,0.5-4.4,3.8h-2.7v-32.4h2.7
	c0.3,5.4-0.3,6,4.1,6h28.5c2.3,0,3.2-0.5,3.5-2.2l0.4-3.1h2.7L44.1,764.1z"/>
<path class="st0" d="M0.8,830.5l1.9-1c18.8,1.7,37.2,16.6,51.9,33.8c18.4,21.4,34,28.1,51.7,28.1c16.7,0,23.4-5.9,23.4-12.6
	c0-8.4-4.8-13.4-37.9-17.6c-9.1-1-11-5.7-11-13.7c0-7.6,4.8-17.6,19-17.6c19.2,0,38.3,17.2,38.3,55.2c0,36.1-16.4,52.3-42,52.3
	c-22.7,0-29.2-9.5-38.9-33.6c-10.8-26.7-15.1-43.1-24-51.7v65.5c0,7.8,0.9,8.8,17.5,17l-2.2,7.3l-47.8-9.2V830.5z"/>
<path class="st0" d="M69.4,1053.9c-39.3,0-69.1-14.3-69.1-57.3c0-42.8,29.8-57.1,69.1-57.1c39.1,0,68.9,14.3,68.9,57.1
	C138.3,1039.6,108.4,1053.9,69.4,1053.9z M69.4,985.5c-41.8,0-60.7,1-60.7,11.1c0,9.9,20.2,10.9,60.7,10.9
	c46.4,0,60.9-2.3,60.9-10.9C130.3,987.4,121,985.5,69.4,985.5z"/>
<path class="st0" d="M1.8,1052.7l1.9-1c18.8,1.7,37.2,16.6,51.9,33.8c18.4,21.4,34,28.1,51.7,28.1c16.7,0,23.4-5.9,23.4-12.6
	c0-8.4-4.8-13.4-37.9-17.6c-9.1-1-11-5.7-11-13.7c0-7.6,4.8-17.6,19-17.6c19.2,0,38.3,17.2,38.3,55.2c0,36.1-16.4,52.3-42,52.3
	c-22.7,0-29.2-9.5-38.9-33.6c-10.8-26.7-15.1-43.1-24-51.7v65.5c0,7.8,0.9,8.8,17.5,17l-2.2,7.3l-47.8-9.2V1052.7z"/>
<path class="st0" d="M68.5,1206.2c0-3-0.4-5.3-1.2-9.2l9-1.6c2,18.7,3.5,29.8,27.9,29.8c15.5,0,26.3-2.1,26.3-10.2
	c0-8.3-7.7-11.8-27.7-15.7c-6.5-1.4-10-4.9-10-12.9c0-9.7,4.7-19.4,15.9-19.4c14.5,0,29.5,17.1,29.5,55.2c0,28.2-6.3,54.7-31.6,54.7
	c-19.1,0-25.9-19.2-28.9-46.2H75c-1,27-5.7,53.4-31.4,53.4c-34.6,0-42-35.1-42-65.8c0-34.2,9-53.8,28.7-53.8
	c9.4,0,15.7,9.7,15.7,20.6c0,9.2-4.3,12-12.4,13.6c-20.6,4.4-24,11.3-24,17.6c0,6.2,6.3,13.6,32.6,13.6
	C72,1229.8,68.5,1211.3,68.5,1206.2z"/>
</svg>
