<?xml version="1.0" encoding="utf-8"?>
<!-- Generator: Adobe Illustrator 27.2.0, SVG Export Plug-In . SVG Version: 6.00 Build 0)  -->
<svg version="1.1" id="レイヤー_1" xmlns="http://www.w3.org/2000/svg" xmlns:xlink="http://www.w3.org/1999/xlink" x="0px"
	 y="0px" viewBox="0 0 827 321" style="enable-background:new 0 0 827 321;" xml:space="preserve">
<style type="text/css">
	.st0{fill:#FFFFFF;}
</style>
<g>
	<path class="st0" d="M26.6,197.5h-2.3l-2.4-3.8c-0.9-1.4-1.5-2.2-2.1-3.2h0c-0.5,1-1.1,1.8-2,3.2l-2.2,3.8h-2.3l5.4-8.3l-5.2-8.1
		h2.3l2.5,4c0.7,1,1.2,1.8,1.7,2.8H20c0.5-1,1-1.7,1.7-2.8l2.5-4h2.3l-5.4,7.9L26.6,197.5z"/>
	<path class="st0" d="M41.5,197.5h-2.3l-2.4-3.8c-0.9-1.4-1.5-2.2-2.1-3.2h0c-0.5,1-1.1,1.8-2,3.2l-2.2,3.8h-2.3l5.4-8.3l-5.2-8.1
		h2.3l2.5,4c0.7,1,1.2,1.8,1.7,2.8h0.1c0.5-1,1-1.7,1.7-2.8l2.5-4h2.3l-5.4,7.9L41.5,197.5z"/>
	<path class="st0" d="M56.5,197.5h-2.3l-2.4-3.8c-0.9-1.4-1.5-2.2-2.1-3.2h0c-0.5,1-1.1,1.8-2,3.2l-2.2,3.8h-2.3l5.4-8.3l-5.2-8.1
		h2.3l2.5,4c0.7,1,1.2,1.8,1.7,2.8h0.1c0.5-1,1-1.7,1.7-2.8l2.5-4h2.3l-5.4,7.9L56.5,197.5z"/>
	<path class="st0" d="M71.4,197.5h-2.3l-2.4-3.8c-0.9-1.4-1.5-2.2-2.1-3.2h0c-0.5,1-1.1,1.8-2,3.2l-2.2,3.8H58l5.4-8.3l-5.2-8.1h2.3
		l2.5,4c0.7,1,1.2,1.8,1.7,2.8h0.1c0.5-1,1-1.7,1.7-2.8l2.5-4h2.3l-5.4,7.9L71.4,197.5z"/>
	<path class="st0" d="M73.3,196.4c0-0.8,0.6-1.4,1.4-1.4c0.8,0,1.4,0.6,1.4,1.4c0,0.8-0.6,1.3-1.4,1.3
		C73.8,197.8,73.3,197.1,73.3,196.4z"/>
	<path class="st0" d="M91.3,197.5H89l-2.4-3.8c-0.9-1.4-1.5-2.2-2.1-3.2h0c-0.5,1-1.1,1.8-2,3.2l-2.2,3.8h-2.3l5.4-8.3l-5.2-8.1h2.3
		l2.5,4c0.7,1,1.2,1.8,1.7,2.8h0.1c0.5-1,1-1.7,1.7-2.8l2.5-4h2.3l-5.4,7.9L91.3,197.5z"/>
	<path class="st0" d="M106.2,197.5h-2.3l-2.4-3.8c-0.9-1.4-1.5-2.2-2.1-3.2h0c-0.5,1-1.1,1.8-2,3.2l-2.2,3.8h-2.3l5.4-8.3l-5.2-8.1
		h2.3l2.5,4c0.7,1,1.2,1.8,1.7,2.8h0.1c0.5-1,1-1.7,1.7-2.8l2.5-4h2.3l-5.4,7.9L106.2,197.5z"/>
	<path class="st0" d="M108.1,196.4c0-0.8,0.6-1.4,1.4-1.4s1.4,0.6,1.4,1.4c0,0.8-0.6,1.3-1.4,1.3
		C108.6,197.8,108.1,197.1,108.1,196.4z"/>
	<path class="st0" d="M126.1,197.5h-2.3l-2.4-3.8c-0.9-1.4-1.5-2.2-2.1-3.2h0c-0.5,1-1.1,1.8-2,3.2l-2.2,3.8h-2.3l5.4-8.3l-5.2-8.1
		h2.3l2.5,4c0.7,1,1.2,1.8,1.7,2.8h0.1c0.5-1,1-1.7,1.7-2.8l2.5-4h2.3l-5.4,7.9L126.1,197.5z"/>
	<path class="st0" d="M141,197.5h-2.3l-2.4-3.8c-0.9-1.4-1.5-2.2-2.1-3.2h0c-0.5,1-1.1,1.8-2,3.2l-2.2,3.8h-2.3l5.4-8.3l-5.2-8.1
		h2.3l2.5,4c0.7,1,1.2,1.8,1.7,2.8h0.1c0.5-1,1-1.7,1.7-2.8l2.5-4h2.3l-5.4,7.9L141,197.5z"/>
	<path class="st0" d="M151.9,180.8c-0.5,1.3-1.3,3.8-1.5,5.5l-2.2,0.2c0.6-1.9,1.8-4.6,2.4-5.6L151.9,180.8z M155.6,180.8
		c-0.5,1.3-1.3,3.8-1.5,5.5l-2.1,0.2c0.6-1.9,1.7-4.6,2.4-5.6L155.6,180.8z"/>
	<path class="st0" d="M166.2,197c-0.7,0.3-2.1,0.7-4.1,0.7c-3.8,0-6.1-2.4-6.1-5.9c0-3.7,2.3-6.3,5.9-6.3c4.1,0,5.1,3.3,5.1,5.3
		c0,0.4,0,0.7,0,1h-8.9c0,3.2,2.1,4.5,4.5,4.5c1.6,0,2.6-0.3,3.4-0.6L166.2,197z M164.9,190.6c0-1.6-0.7-3.6-3.3-3.6
		c-2.4,0-3.5,2-3.7,3.6H164.9z"/>
	<path class="st0" d="M171.6,197.5h-2v-16.5h2V197.5z"/>
	<path class="st0" d="M177.1,197.5h-2v-16.5h2V197.5z"/>
	<path class="st0" d="M181.7,183.8c-0.8,0-1.3-0.5-1.3-1.2c0-0.7,0.6-1.2,1.3-1.2c0.8,0,1.3,0.5,1.3,1.2
		C183,183.3,182.4,183.8,181.7,183.8z M182.7,197.5h-2v-11.7h2V197.5z"/>
	<path class="st0" d="M188.1,187.8c0.9-1.4,2.4-2.2,4.5-2.2c3.1,0,5.4,2.4,5.4,6c0,4.3-2.8,6.3-5.7,6.3c-1.7,0-3.2-0.7-4-1.9h0v6.4
		h-2v-12.7c0-1.5,0-2.7-0.1-3.8h1.8L188.1,187.8L188.1,187.8z M188.2,192.9c0,2.3,1.9,3.5,3.7,3.5c2.6,0,4-2,4-4.8
		c0-2.4-1.4-4.6-3.9-4.6c-2.2,0-3.8,1.9-3.8,3.6V192.9z"/>
	<path class="st0" d="M206.7,187.6c-0.5-0.3-1.4-0.7-2.6-0.7c-1.4,0-2.2,0.8-2.2,1.7c0,1,0.7,1.5,2.4,2.1c2.1,0.8,3.4,1.8,3.4,3.5
		c0,2.1-1.8,3.4-4.7,3.4c-1.3,0-2.6-0.3-3.4-0.8l0.6-1.4c0.7,0.4,1.8,0.8,3,0.8c1.8,0,2.6-0.8,2.6-1.9c0-1.1-0.7-1.7-2.4-2.3
		c-2.2-0.8-3.4-1.9-3.4-3.3c0-1.8,1.6-3.3,4.3-3.3c1.3,0,2.3,0.3,3,0.7L206.7,187.6z"/>
	<path class="st0" d="M211.3,183.8c-0.8,0-1.3-0.5-1.3-1.2c0-0.7,0.6-1.2,1.3-1.2c0.8,0,1.3,0.5,1.3,1.2
		C212.6,183.3,212,183.8,211.3,183.8z M212.3,197.5h-2v-11.7h2V197.5z"/>
	<path class="st0" d="M221.8,187.6c-0.5-0.3-1.4-0.7-2.6-0.7c-1.4,0-2.2,0.8-2.2,1.7c0,1,0.7,1.5,2.4,2.1c2.1,0.8,3.4,1.8,3.4,3.5
		c0,2.1-1.8,3.4-4.7,3.4c-1.3,0-2.6-0.3-3.4-0.8l0.6-1.4c0.7,0.4,1.8,0.8,3,0.8c1.8,0,2.6-0.8,2.6-1.9c0-1.1-0.7-1.7-2.4-2.3
		c-2.2-0.8-3.4-1.9-3.4-3.3c0-1.8,1.6-3.3,4.3-3.3c1.3,0,2.3,0.3,3,0.7L221.8,187.6z"/>
	<path class="st0" d="M224.5,186.5c0.5-1.3,1.3-3.8,1.5-5.5l2.1-0.2c-0.6,1.9-1.7,4.6-2.4,5.6L224.5,186.5z M228.3,186.5
		c0.5-1.3,1.3-3.8,1.5-5.5l2.1-0.2c-0.6,1.9-1.7,4.6-2.4,5.6L228.3,186.5z"/>
	<path class="st0" d="M25.2,216.4c0,0.9,0,2.1,0.1,2.9h-1.8l-0.1-2h-0.1c-0.7,1.2-2.2,2.2-4.3,2.2c-3,0-5.4-2.3-5.4-5.9
		c0-3.9,2.6-6.3,5.7-6.3c1.9,0,3.2,0.8,3.8,1.8h0v-7h2V216.4z M23.2,212.3c0-2.3-1.9-3.5-3.5-3.5c-2.5,0-4,2.1-4,4.7
		c0,2.5,1.3,4.6,3.9,4.6c2.2,0,3.6-1.7,3.6-3.6V212.3z"/>
	<path class="st0" d="M30.1,205.6c-0.8,0-1.3-0.5-1.3-1.2c0-0.7,0.6-1.2,1.3-1.2c0.8,0,1.3,0.5,1.3,1.2
		C31.4,205.1,30.9,205.6,30.1,205.6z M31.1,219.3h-2v-11.7h2V219.3z"/>
	<path class="st0" d="M45.7,207.6c-0.1,0.8-0.1,1.8-0.1,3.2v6.8c0,2,0,6.7-6.3,6.7c-1.5,0-3.1-0.3-4.1-0.9l0.5-1.4
		c0.8,0.5,2.1,0.9,3.7,0.9c2.4,0,4.2-1.1,4.2-4.2v-1.4h0c-0.7,1.1-2.1,2-4.1,2c-3.1,0-5.4-2.5-5.4-5.7c0-4,2.8-6.2,5.7-6.2
		c2.2,0,3.4,1.1,4,2h0l0.1-1.8H45.7z M43.6,212.1c0-2-1.7-3.3-3.5-3.3c-2.3,0-3.9,1.8-3.9,4.6c0,2.5,1.4,4.4,3.9,4.4
		c1.5,0,3.5-1,3.5-3.4V212.1z"/>
	<path class="st0" d="M50.5,205.6c-0.8,0-1.3-0.5-1.3-1.2c0-0.7,0.6-1.2,1.3-1.2c0.8,0,1.3,0.5,1.3,1.2
		C51.8,205.1,51.3,205.6,50.5,205.6z M51.5,219.3h-2v-11.7h2V219.3z"/>
	<path class="st0" d="M56,205.5l2-0.6v2.7h3.4v1.4H58v6.7c0,1.5,0.5,2.3,1.8,2.3c0.6,0,1-0.1,1.3-0.2l0.1,1.4
		c-0.4,0.2-1.1,0.3-2,0.3c-3.2,0-3.3-2.6-3.3-3.8V209h-2v-1.4h2V205.5z"/>
	<path class="st0" d="M72.8,216.5c0,1,0,2,0.2,2.8h-1.8l-0.2-1.5h-0.1c-0.7,0.9-2,1.8-3.9,1.8c-2.5,0-3.8-1.6-3.8-3.3
		c0-2.8,2.7-4.3,7.6-4.3c0-1,0-3.2-3-3.2c-1.1,0-2.3,0.3-3.2,0.8l-0.5-1.2c1.1-0.6,2.5-1,4-1c3.7,0,4.7,2.3,4.7,4.6V216.5z
		 M70.9,213.3c-2.5,0-5.6,0.3-5.6,2.8c0,1.5,1.1,2.2,2.3,2.2c2,0,3.3-1.3,3.3-2.7V213.3z"/>
	<path class="st0" d="M78.6,219.3h-2v-17.1h2V219.3z"/>
	<path class="st0" d="M95.1,209.4c-0.5-0.3-1.4-0.7-2.6-0.7c-1.4,0-2.2,0.8-2.2,1.7c0,1,0.7,1.5,2.4,2.1c2.1,0.8,3.4,1.8,3.4,3.5
		c0,2.1-1.8,3.4-4.7,3.4c-1.3,0-2.6-0.3-3.4-0.8l0.6-1.4c0.7,0.4,1.8,0.8,3,0.8c1.8,0,2.6-0.8,2.6-1.9c0-1.1-0.7-1.7-2.4-2.3
		c-2.2-0.8-3.4-1.9-3.4-3.3c0-1.8,1.6-3.3,4.3-3.3c1.3,0,2.3,0.3,3,0.7L95.1,209.4z"/>
	<path class="st0" d="M99.9,205.6c-0.8,0-1.3-0.5-1.3-1.2c0-0.7,0.6-1.2,1.3-1.2c0.8,0,1.3,0.5,1.3,1.2
		C101.3,205.1,100.7,205.6,99.9,205.6z M101,219.3h-2v-11.7h2V219.3z"/>
	<path class="st0" d="M115.4,219.3h-2v-6.9c0-1.9-0.8-3.6-3.1-3.6c-1.7,0-3.4,1.3-3.4,3.3v7.2h-2v-8.7c0-1.2,0-2.1-0.1-3h1.8
		l0.1,1.9h0c0.7-1.1,2.2-2.2,4.2-2.2c1.6,0,4.4,0.9,4.4,4.8V219.3z"/>
	<path class="st0" d="M130,207.6c-0.1,0.8-0.1,1.8-0.1,3.2v6.8c0,2,0,6.7-6.3,6.7c-1.5,0-3.1-0.3-4.1-0.9l0.5-1.4
		c0.8,0.5,2.1,0.9,3.7,0.9c2.4,0,4.2-1.1,4.2-4.2v-1.4h0c-0.7,1.1-2.1,2-4.1,2c-3.1,0-5.4-2.5-5.4-5.7c0-4,2.8-6.2,5.7-6.2
		c2.2,0,3.4,1.1,4,2h0l0.1-1.8H130z M127.8,212.1c0-2-1.7-3.3-3.5-3.3c-2.3,0-3.9,1.8-3.9,4.6c0,2.5,1.4,4.4,3.9,4.4
		c1.5,0,3.5-1,3.5-3.4V212.1z"/>
	<path class="st0" d="M135.8,219.3h-2v-17.1h2V219.3z"/>
	<path class="st0" d="M149.1,218.8c-0.7,0.3-2.1,0.7-4.1,0.7c-3.8,0-6.1-2.4-6.1-5.9c0-3.7,2.3-6.3,5.9-6.3c4.1,0,5.1,3.3,5.1,5.3
		c0,0.4,0,0.7,0,1h-8.9c0,3.2,2.1,4.5,4.5,4.5c1.6,0,2.6-0.3,3.4-0.6L149.1,218.8z M147.9,212.4c0-1.6-0.7-3.6-3.3-3.6
		c-2.4,0-3.5,2-3.7,3.6H147.9z"/>
	<path class="st0" d="M165.1,209.1c-0.2,0-0.4,0-0.7,0c-2.2,0-3.3,1.9-3.3,3.9v6.3h-2v-8.2c0-1.2,0-2.4-0.1-3.5h1.8l0.1,2.2h0.1
		c0.6-1.5,2-2.5,3.6-2.5c0.2,0,0.4,0,0.6,0.1V209.1z"/>
	<path class="st0" d="M176.7,218.8c-0.7,0.3-2.1,0.7-4.1,0.7c-3.8,0-6.1-2.4-6.1-5.9c0-3.7,2.3-6.3,5.9-6.3c4.1,0,5.1,3.3,5.1,5.3
		c0,0.4,0,0.7,0,1h-8.9c0,3.2,2.1,4.5,4.5,4.5c1.6,0,2.6-0.3,3.4-0.6L176.7,218.8z M175.4,212.4c0-1.6-0.7-3.6-3.3-3.6
		c-2.4,0-3.5,2-3.7,3.6H175.4z"/>
	<path class="st0" d="M182.4,219.3h-2v-17.1h2V219.3z"/>
	<path class="st0" d="M195.8,218.8c-0.7,0.3-2.1,0.7-4.1,0.7c-3.8,0-6.1-2.4-6.1-5.9c0-3.7,2.3-6.3,5.9-6.3c4.1,0,5.1,3.3,5.1,5.3
		c0,0.4,0,0.7,0,1h-8.9c0,3.2,2.1,4.5,4.5,4.5c1.6,0,2.6-0.3,3.4-0.6L195.8,218.8z M194.5,212.4c0-1.6-0.7-3.6-3.3-3.6
		c-2.4,0-3.5,2-3.7,3.6H194.5z"/>
	<path class="st0" d="M208,216.5c0,1,0,2,0.2,2.8h-1.8l-0.2-1.5H206c-0.7,0.9-2,1.8-3.9,1.8c-2.5,0-3.8-1.6-3.8-3.3
		c0-2.8,2.7-4.3,7.6-4.3c0-1,0-3.2-3-3.2c-1.1,0-2.3,0.3-3.2,0.8l-0.5-1.2c1.1-0.6,2.5-1,4-1c3.7,0,4.7,2.3,4.7,4.6V216.5z
		 M206,213.3c-2.5,0-5.6,0.3-5.6,2.8c0,1.5,1.1,2.2,2.3,2.2c2,0,3.3-1.3,3.3-2.7V213.3z"/>
	<path class="st0" d="M217.8,209.4c-0.5-0.3-1.4-0.7-2.6-0.7c-1.4,0-2.2,0.8-2.2,1.7c0,1,0.7,1.5,2.4,2.1c2.1,0.8,3.4,1.8,3.4,3.5
		c0,2.1-1.8,3.4-4.7,3.4c-1.3,0-2.6-0.3-3.4-0.8l0.6-1.4c0.7,0.4,1.8,0.8,3,0.8c1.8,0,2.6-0.8,2.6-1.9c0-1.1-0.7-1.7-2.4-2.3
		c-2.2-0.8-3.4-1.9-3.4-3.3c0-1.8,1.6-3.3,4.3-3.3c1.3,0,2.3,0.3,3,0.7L217.8,209.4z"/>
	<path class="st0" d="M231.3,218.8c-0.7,0.3-2.1,0.7-4.1,0.7c-3.8,0-6.1-2.4-6.1-5.9c0-3.7,2.3-6.3,5.9-6.3c4.1,0,5.1,3.3,5.1,5.3
		c0,0.4,0,0.7,0,1H223c0,3.2,2.1,4.5,4.5,4.5c1.6,0,2.6-0.3,3.4-0.6L231.3,218.8z M230.1,212.4c0-1.6-0.7-3.6-3.3-3.6
		c-2.4,0-3.5,2-3.7,3.6H230.1z"/>
</g>
</svg>
