<?xml version="1.0" encoding="utf-8"?>
<!-- Generator: Adobe Illustrator 27.2.0, SVG Export Plug-In . SVG Version: 6.00 Build 0)  -->
<svg version="1.1" id="レイヤー_1" xmlns="http://www.w3.org/2000/svg" xmlns:xlink="http://www.w3.org/1999/xlink" x="0px"
	 y="0px" viewBox="0 0 2580 824.1" style="enable-background:new 0 0 2580 824.1;" xml:space="preserve">
<style type="text/css">
	.st0{fill:#FFFFFF;}
</style>
<path class="st0" d="M2222.9,629.5v9.3c-12.1,0.9-17.4,1.5-23,12.3c-9.2,17.4-31.2,61.7-43.3,90.1c-1.6,3.6-2.6,6.9-2.6,13.8v43.1
	c0,14.4,1.3,15.3,26.3,16.5v9.6h-123.1v-9.6c24.6-1.2,25.9-2.1,25.9-16.5v-41c0-5.7-1-9.9-3-14.1c-12.8-26.3-39.1-76.3-49.6-93.1
	c-5.6-9-8.5-10.2-20-11.1v-9.3h119.1v9.3l-14.8,1.8c-4.3,0.6-4.9,4.2-2.3,9.6c6.6,14.7,25.3,54.2,36.8,77.2h0.7
	c11.8-28.7,24.9-65,28.6-75.4c2.3-6.9,2-10.8-3.6-11.4l-15.8-1.8v-9.3H2222.9z"/>
</svg>
