<?xml version="1.0" encoding="utf-8"?>
<!-- Generator: Adobe Illustrator 27.2.0, SVG Export Plug-In . SVG Version: 6.00 Build 0)  -->
<svg version="1.1" id="レイヤー_1" xmlns="http://www.w3.org/2000/svg" xmlns:xlink="http://www.w3.org/1999/xlink" x="0px"
	 y="0px" viewBox="0 0 827 321" style="enable-background:new 0 0 827 321;" xml:space="preserve">
<style type="text/css">
	.st0{fill:#FFFFFF;}
</style>
<path class="st0" d="M369.3,252.5c-5.1,0.4-6.3,0.8-8.2,5.2c-6,15.1-17.3,46.6-22.7,63.6h-20.2c-7.4-20.9-15-42-22.4-63
	c-2-5.1-3-5.5-7.8-5.9V249h42.7v3.4l-6.1,0.6c-2,0.2-2,1.9-1.5,3.6c4.5,15.1,10.7,33.3,15.6,48.2h0.7c4.9-15.7,11.9-39.6,13.8-47.8
	c0.4-1.8,0-3.4-2-3.7l-6.6-0.8V249h24.6V252.5z"/>
</svg>
