<?xml version="1.0" encoding="utf-8"?>
<!-- Generator: Adobe Illustrator 27.2.0, SVG Export Plug-In . SVG Version: 6.00 Build 0)  -->
<svg version="1.1" id="レイヤー_1" xmlns="http://www.w3.org/2000/svg" xmlns:xlink="http://www.w3.org/1999/xlink" x="0px"
	 y="0px" viewBox="0 0 827 321" style="enable-background:new 0 0 827 321;" xml:space="preserve">
<style type="text/css">
	.st0{fill:#FFFFFF;}
</style>
<path class="st0" d="M375.1,258.9c0-5.4-0.6-6.2-7.4-6.5V249h65.1v20.9H428c-7.4-15.8-7.9-16.2-17.7-16.2h-4.1
	c-3.4,0-3.7,0.4-3.7,3.8v24.6h4.1c7.3,0,7.8-0.4,11.8-11h4.6V298h-4.6c-4.1-10.7-4.5-11.1-11.8-11.1h-4.1v23.6c0,6,0.6,6.1,8.9,6.1
	c8.9,0,11.3-0.8,21.3-18.7h4.5l-2.2,23.5h-67.4v-3.6c6.8-0.2,7.4-0.9,7.4-6.3V258.9z"/>
</svg>
