<?xml version="1.0" encoding="utf-8"?>
<!-- Generator: Adobe Illustrator 27.2.0, SVG Export Plug-In . SVG Version: 6.00 Build 0)  -->
<svg version="1.1" id="レイヤー_1" xmlns="http://www.w3.org/2000/svg" xmlns:xlink="http://www.w3.org/1999/xlink" x="0px"
	 y="0px" viewBox="0 0 2580 824.1" style="enable-background:new 0 0 2580 824.1;" xml:space="preserve">
<style type="text/css">
	.st0{fill:#FFFFFF;}
</style>
<path class="st0" d="M994.1,638.8c-13.8,1.2-17.1,2.1-22,14.1c-16.1,40.7-46.6,125.4-61,171.2h-54.5c-20-56.3-40.4-113.2-60.4-169.4
	c-5.3-13.8-8.2-14.7-21-15.9v-9.3h114.9v9.3l-16.4,1.5c-5.3,0.6-5.3,5.1-3.9,9.6c12.1,40.7,28.9,89.5,42,129.6h2
	c13.1-42.2,32.2-106.6,37.1-128.7c1-4.8,0-9.3-5.3-9.9l-17.7-2.1v-9.3h66.3V638.8z"/>
</svg>
