<?xml version="1.0" encoding="utf-8"?>
<!-- Generator: Adobe Illustrator 27.2.0, SVG Export Plug-In . SVG Version: 6.00 Build 0)  -->
<svg version="1.1" id="レイヤー_1" xmlns="http://www.w3.org/2000/svg" xmlns:xlink="http://www.w3.org/1999/xlink" x="0px"
	 y="0px" viewBox="0 0 2580 824.1" style="enable-background:new 0 0 2580 824.1;" xml:space="preserve">
<style type="text/css">
	.st0{fill:#FFFFFF;}
</style>
<g>
	<path class="st0" d="M603.9,539.7h-3.3l-3.5-5.5c-1.3-2-2.2-3.3-3-4.7H594c-0.8,1.4-1.5,2.7-2.9,4.7l-3.3,5.5h-3.3l7.9-12
		l-7.6-11.7h3.3l3.6,5.8c0.9,1.5,1.7,2.7,2.4,4h0.1c0.8-1.4,1.5-2.5,2.4-4l3.7-5.8h3.3l-7.8,11.5L603.9,539.7z"/>
	<path class="st0" d="M625.4,539.7h-3.3l-3.5-5.5c-1.3-2-2.2-3.3-3-4.7h-0.1c-0.8,1.4-1.5,2.7-2.9,4.7l-3.3,5.5H606l7.9-12
		l-7.6-11.7h3.3l3.6,5.8c0.9,1.5,1.7,2.7,2.4,4h0.1c0.8-1.4,1.5-2.5,2.4-4l3.7-5.8h3.3l-7.8,11.5L625.4,539.7z"/>
	<path class="st0" d="M647,539.7h-3.3l-3.5-5.5c-1.3-2-2.2-3.3-3-4.7h-0.1c-0.8,1.4-1.5,2.7-2.9,4.7l-3.3,5.5h-3.3l7.9-12l-7.6-11.7
		h3.3l3.6,5.8c0.9,1.5,1.7,2.7,2.4,4h0.1c0.8-1.4,1.5-2.5,2.4-4l3.7-5.8h3.3l-7.8,11.5L647,539.7z"/>
	<path class="st0" d="M668.5,539.7h-3.3l-3.5-5.5c-1.3-2-2.2-3.3-3-4.7h-0.1c-0.8,1.4-1.5,2.7-2.9,4.7l-3.3,5.5h-3.3l7.9-12
		l-7.6-11.7h3.3l3.6,5.8c0.9,1.5,1.7,2.7,2.4,4h0.1c0.8-1.4,1.5-2.5,2.4-4l3.7-5.8h3.3l-7.8,11.5L668.5,539.7z"/>
	<path class="st0" d="M671.2,538.1c0-1.2,0.9-2,2.1-2s2.1,0.8,2.1,2c0,1.1-0.8,2-2.1,2C671.9,540,671.2,539.1,671.2,538.1z"/>
	<path class="st0" d="M697.2,539.7h-3.3l-3.5-5.5c-1.3-2-2.2-3.3-3-4.7h-0.1c-0.8,1.4-1.5,2.7-2.9,4.7l-3.3,5.5h-3.3l7.9-12
		l-7.6-11.7h3.3l3.6,5.8c0.9,1.5,1.7,2.7,2.4,4h0.1c0.8-1.4,1.5-2.5,2.4-4l3.7-5.8h3.3l-7.8,11.5L697.2,539.7z"/>
	<path class="st0" d="M718.7,539.7h-3.3l-3.5-5.5c-1.3-2-2.2-3.3-3-4.7h-0.1c-0.8,1.4-1.5,2.7-2.9,4.7l-3.3,5.5h-3.3l7.9-12
		l-7.6-11.7h3.3l3.6,5.8c0.9,1.5,1.7,2.7,2.4,4h0.1c0.8-1.4,1.5-2.5,2.4-4l3.7-5.8h3.3l-7.8,11.5L718.7,539.7z"/>
	<path class="st0" d="M721.4,538.1c0-1.2,0.9-2,2.1-2s2.1,0.8,2.1,2c0,1.1-0.8,2-2.1,2C722.1,540,721.4,539.1,721.4,538.1z"/>
	<path class="st0" d="M747.3,539.7H744l-3.5-5.5c-1.3-2-2.2-3.3-3-4.7h-0.1c-0.8,1.4-1.5,2.7-2.9,4.7l-3.3,5.5H728l7.9-12l-7.6-11.7
		h3.3l3.6,5.8c0.9,1.5,1.7,2.7,2.4,4h0.1c0.8-1.4,1.5-2.5,2.4-4l3.7-5.8h3.3l-7.8,11.5L747.3,539.7z"/>
	<path class="st0" d="M768.9,539.7h-3.3l-3.5-5.5c-1.3-2-2.2-3.3-3-4.7H759c-0.8,1.4-1.5,2.7-2.9,4.7l-3.3,5.5h-3.3l7.9-12
		l-7.6-11.7h3.3l3.6,5.8c0.9,1.5,1.7,2.7,2.4,4h0.1c0.8-1.4,1.5-2.5,2.4-4l3.7-5.8h3.3l-7.8,11.5L768.9,539.7z"/>
	<path class="st0" d="M784.7,515.4c-0.8,1.9-1.8,5.5-2.2,8l-3.1,0.3c0.8-2.8,2.6-6.7,3.5-8.1L784.7,515.4z M790.2,515.4
		c-0.8,1.9-1.8,5.5-2.2,8l-3.1,0.3c0.8-2.8,2.5-6.7,3.5-8.1L790.2,515.4z"/>
	<path class="st0" d="M805.4,538.9c-1.1,0.5-3.1,1.1-6,1.1c-5.6,0-8.9-3.5-8.9-8.6c0-5.3,3.4-9.1,8.5-9.1c5.9,0,7.4,4.8,7.4,7.7
		c0,0.6,0,1-0.1,1.4h-13c0,4.7,3,6.5,6.5,6.5c2.4,0,3.8-0.4,5-0.9L805.4,538.9z M803.5,529.6c0-2.3-1-5.3-4.8-5.3
		c-3.5,0-5,3-5.3,5.3H803.5z"/>
	<path class="st0" d="M813.1,539.7h-2.9v-23.9h2.9V539.7z"/>
	<path class="st0" d="M821,539.7h-2.9v-23.9h2.9V539.7z"/>
	<path class="st0" d="M827.4,519.7c-1.1,0-1.9-0.8-1.9-1.8s0.8-1.7,1.9-1.7c1.2,0,1.9,0.8,1.9,1.7
		C829.4,519,828.6,519.7,827.4,519.7z M828.9,539.7H826v-16.9h2.9V539.7z"/>
	<path class="st0" d="M836.7,525.6c1.3-2.1,3.5-3.3,6.5-3.3c4.5,0,7.8,3.5,7.8,8.6c0,6.2-4.1,9.1-8.3,9.1c-2.5,0-4.6-1-5.7-2.7h-0.1
		v9.3H834v-18.4c0-2.2-0.1-3.9-0.1-5.5h2.6L836.7,525.6L836.7,525.6z M836.9,532.9c0,3.3,2.8,5,5.4,5c3.7,0,5.8-2.9,5.8-6.9
		c0-3.5-2-6.6-5.7-6.6c-3.3,0-5.5,2.8-5.5,5.3V532.9z"/>
	<path class="st0" d="M863.6,525.3c-0.7-0.4-2-1-3.7-1c-2.1,0-3.2,1.2-3.2,2.5c0,1.5,1.1,2.1,3.5,3.1c3.1,1.1,4.9,2.5,4.9,5.1
		c0,3-2.6,5-6.8,5c-1.9,0-3.7-0.5-5-1.2l0.8-2c1,0.5,2.7,1.2,4.3,1.2c2.6,0,3.8-1.2,3.8-2.7c0-1.6-1-2.5-3.5-3.4
		c-3.2-1.2-4.9-2.7-4.9-4.8c0-2.6,2.4-4.8,6.2-4.8c1.8,0,3.4,0.5,4.4,1L863.6,525.3z"/>
	<path class="st0" d="M870,519.7c-1.1,0-1.9-0.8-1.9-1.8s0.8-1.7,1.9-1.7c1.2,0,1.9,0.8,1.9,1.7C872,519,871.2,519.7,870,519.7z
		 M871.5,539.7h-2.9v-16.9h2.9V539.7z"/>
	<path class="st0" d="M885.2,525.3c-0.7-0.4-2-1-3.7-1c-2.1,0-3.2,1.2-3.2,2.5c0,1.5,1.1,2.1,3.5,3.1c3.1,1.1,4.9,2.5,4.9,5.1
		c0,3-2.6,5-6.8,5c-1.9,0-3.7-0.5-5-1.2l0.8-2c1,0.5,2.7,1.2,4.3,1.2c2.6,0,3.8-1.2,3.8-2.7c0-1.6-1-2.5-3.5-3.4
		c-3.2-1.2-4.9-2.7-4.9-4.8c0-2.6,2.4-4.8,6.2-4.8c1.8,0,3.4,0.5,4.4,1L885.2,525.3z"/>
	<path class="st0" d="M889,523.7c0.8-1.9,1.9-5.5,2.2-8l3.1-0.3c-0.8,2.8-2.5,6.7-3.5,8.1L889,523.7z M894.5,523.7
		c0.8-1.9,1.8-5.5,2.2-8l3.1-0.3c-0.8,2.8-2.5,6.7-3.5,8.1L894.5,523.7z"/>
	<path class="st0" d="M601.8,572.8c0,1.4,0.1,3,0.1,4.2h-2.6l-0.1-2.9h-0.1c-1,1.8-3.1,3.3-6.2,3.3c-4.4,0-7.8-3.4-7.8-8.6
		c0-5.7,3.8-9.1,8.2-9.1c2.8,0,4.7,1.2,5.6,2.6h0.1v-10.2h2.9v20.7H601.8z M598.9,566.8c0-3.4-2.7-5.1-5.1-5.1c-3.6,0-5.7,3-5.7,6.9
		c0,3.6,1.9,6.6,5.6,6.6c3.1,0,5.2-2.5,5.2-5.2V566.8z"/>
	<path class="st0" d="M608.8,557c-1.1,0-1.9-0.8-1.9-1.8s0.8-1.7,1.9-1.7c1.2,0,1.9,0.8,1.9,1.7C610.7,556.4,609.9,557,608.8,557z
		 M610.2,577h-2.9v-17h2.9V577z"/>
	<path class="st0" d="M631.4,560c-0.1,1.2-0.2,2.6-0.2,4.7v9.9c0,3-0.1,9.7-9.1,9.7c-2.2,0-4.5-0.5-6-1.3l0.8-2
		c1.2,0.7,3.1,1.3,5.4,1.3c3.5,0,6.1-1.6,6.1-6.1v-2h-0.1c-1,1.6-3,2.9-5.9,2.9c-4.5,0-7.8-3.6-7.8-8.3c0-5.9,4.1-9,8.3-9
		c3.3,0,5,1.6,5.8,2.9h0.1l0.1-2.5h2.5V560z M628.3,566.5c0-3-2.4-4.8-5.1-4.8c-3.4,0-5.7,2.6-5.7,6.7c0,3.6,2,6.4,5.7,6.4
		c2.2,0,5.1-1.5,5.1-5V566.5z"/>
	<path class="st0" d="M638.2,557c-1.1,0-1.9-0.8-1.9-1.8s0.8-1.7,1.9-1.7c1.2,0,1.9,0.8,1.9,1.7C640.1,556.4,639.3,557,638.2,557z
		 M639.6,577h-2.9v-17h2.9V577z"/>
	<path class="st0" d="M646.1,557l2.9-0.9v3.9h4.9v2H649v9.8c0,2.1,0.7,3.3,2.6,3.3c0.9,0,1.5-0.1,2-0.2l0.2,2
		c-0.6,0.2-1.6,0.4-2.8,0.4c-4.6,0-4.8-3.7-4.8-5.5v-9.7h-2.9v-2h2.9V557H646.1z"/>
	<path class="st0" d="M670.3,572.9c0,1.4,0,2.9,0.3,4h-2.7l-0.3-2.2h-0.1c-1,1.3-2.9,2.5-5.6,2.5c-3.6,0-5.6-2.4-5.6-4.8
		c0-4.1,4-6.3,11.1-6.2c0-1.4,0-4.7-4.3-4.7c-1.6,0-3.4,0.4-4.7,1.2l-0.7-1.8c1.5-0.9,3.7-1.4,5.8-1.4c5.4,0,6.8,3.4,6.8,6.7V572.9z
		 M667.4,568.2c-3.6,0-8.1,0.5-8.1,4c0,2.2,1.5,3.1,3.3,3.1c2.8,0,4.8-1.9,4.8-4V568.2z"/>
	<path class="st0" d="M678.6,577h-2.9v-24.9h2.9V577z"/>
	<path class="st0" d="M702.4,562.6c-0.7-0.4-2-1-3.7-1c-2.1,0-3.2,1.2-3.2,2.5c0,1.5,1.1,2.1,3.5,3.1c3.1,1.1,4.9,2.5,4.9,5.1
		c0,3-2.6,5-6.8,5c-1.9,0-3.7-0.5-5-1.2l0.8-2c1,0.5,2.7,1.2,4.3,1.2c2.6,0,3.8-1.2,3.8-2.7c0-1.6-1-2.5-3.5-3.4
		c-3.2-1.2-4.9-2.7-4.9-4.8c0-2.6,2.4-4.8,6.2-4.8c1.8,0,3.4,0.5,4.4,1L702.4,562.6z"/>
	<path class="st0" d="M709.4,557c-1.1,0-1.9-0.8-1.9-1.8s0.8-1.7,1.9-1.7c1.2,0,1.9,0.8,1.9,1.7C711.3,556.4,710.5,557,709.4,557z
		 M710.9,577H708v-17h2.9V577z"/>
	<path class="st0" d="M731.7,577h-2.9v-10c0-2.8-1.1-5.2-4.4-5.2c-2.5,0-5,1.9-5,4.8V577h-2.9v-12.6c0-1.7-0.1-3-0.1-4.4h2.6
		l0.2,2.8h0.1c0.9-1.6,3.1-3.1,6.1-3.1c2.4,0,6.4,1.3,6.4,7L731.7,577L731.7,577z"/>
	<path class="st0" d="M752.8,560c-0.1,1.2-0.2,2.6-0.2,4.7v9.9c0,3-0.1,9.7-9.1,9.7c-2.2,0-4.5-0.5-6-1.3l0.8-2
		c1.2,0.7,3.1,1.3,5.4,1.3c3.5,0,6.1-1.6,6.1-6.1v-2h-0.1c-1,1.6-3,2.9-5.9,2.9c-4.5,0-7.8-3.6-7.8-8.3c0-5.9,4.1-9,8.3-9
		c3.3,0,5,1.6,5.8,2.9h0.1l0.1-2.5h2.5V560z M749.6,566.5c0-3-2.4-4.8-5.1-4.8c-3.4,0-5.7,2.6-5.7,6.7c0,3.6,2,6.4,5.7,6.4
		c2.2,0,5.1-1.5,5.1-5V566.5z"/>
	<path class="st0" d="M761,577h-2.9v-24.9h2.9V577z"/>
	<path class="st0" d="M780.3,576.3c-1.1,0.5-3.1,1.1-6,1.1c-5.6,0-8.9-3.5-8.9-8.6c0-5.3,3.4-9.1,8.5-9.1c5.9,0,7.4,4.8,7.4,7.7
		c0,0.6,0,1-0.1,1.4h-13c0,4.7,3,6.5,6.5,6.5c2.4,0,3.8-0.4,5-0.9L780.3,576.3z M778.5,566.9c0-2.3-1-5.3-4.8-5.3
		c-3.5,0-5,3-5.3,5.3H778.5z"/>
	<path class="st0" d="M803.5,562.2c-0.3,0-0.6-0.1-1-0.1c-3.1,0-4.8,2.8-4.8,5.6v9.2h-2.9V565c0-1.8,0-3.5-0.1-5.1h2.6l0.1,3.3h0.1
		c0.8-2.1,2.8-3.6,5.2-3.6c0.3,0,0.6,0.1,0.9,0.1L803.5,562.2L803.5,562.2z"/>
	<path class="st0" d="M820.2,576.3c-1.1,0.5-3.1,1.1-6,1.1c-5.6,0-8.9-3.5-8.9-8.6c0-5.3,3.4-9.1,8.5-9.1c5.9,0,7.4,4.8,7.4,7.7
		c0,0.6,0,1-0.1,1.4h-13c0,4.7,3,6.5,6.5,6.5c2.4,0,3.8-0.4,5-0.9L820.2,576.3z M818.3,566.9c0-2.3-1-5.3-4.8-5.3
		c-3.5,0-5,3-5.3,5.3H818.3z"/>
	<path class="st0" d="M828.4,577h-2.9v-24.9h2.9V577z"/>
	<path class="st0" d="M847.7,576.3c-1.1,0.5-3.1,1.1-6,1.1c-5.6,0-8.9-3.5-8.9-8.6c0-5.3,3.4-9.1,8.5-9.1c5.9,0,7.4,4.8,7.4,7.7
		c0,0.6,0,1-0.1,1.4h-13c0,4.7,3,6.5,6.5,6.5c2.4,0,3.8-0.4,5-0.9L847.7,576.3z M845.8,566.9c0-2.3-1-5.3-4.8-5.3
		c-3.5,0-5,3-5.3,5.3H845.8z"/>
	<path class="st0" d="M865.2,572.9c0,1.4,0,2.9,0.3,4h-2.7l-0.3-2.2h-0.1c-1,1.3-2.9,2.5-5.6,2.5c-3.6,0-5.6-2.4-5.6-4.8
		c0-4.1,4-6.3,11.1-6.2c0-1.4,0-4.7-4.3-4.7c-1.6,0-3.4,0.4-4.7,1.2l-0.7-1.8c1.5-0.9,3.7-1.4,5.8-1.4c5.4,0,6.8,3.4,6.8,6.7V572.9z
		 M862.3,568.2c-3.6,0-8.1,0.5-8.1,4c0,2.2,1.5,3.1,3.3,3.1c2.8,0,4.8-1.9,4.8-4V568.2z"/>
	<path class="st0" d="M879.4,562.6c-0.7-0.4-2-1-3.7-1c-2.1,0-3.2,1.2-3.2,2.5c0,1.5,1.1,2.1,3.5,3.1c3.1,1.1,4.9,2.5,4.9,5.1
		c0,3-2.6,5-6.8,5c-1.9,0-3.7-0.5-5-1.2l0.8-2c1,0.5,2.7,1.2,4.3,1.2c2.6,0,3.8-1.2,3.8-2.7c0-1.6-1-2.5-3.5-3.4
		c-3.2-1.2-4.9-2.7-4.9-4.8c0-2.6,2.4-4.8,6.2-4.8c1.8,0,3.4,0.5,4.4,1L879.4,562.6z"/>
	<path class="st0" d="M898.9,576.3c-1.1,0.5-3.1,1.1-6,1.1c-5.6,0-8.9-3.5-8.9-8.6c0-5.3,3.4-9.1,8.5-9.1c5.9,0,7.4,4.8,7.4,7.7
		c0,0.6,0,1-0.1,1.4h-13c0,4.7,3,6.5,6.5,6.5c2.4,0,3.8-0.4,5-0.9L898.9,576.3z M897,566.9c0-2.3-1-5.3-4.8-5.3c-3.5,0-5,3-5.3,5.3
		H897z"/>
</g>
</svg>
