<?xml version="1.0" encoding="utf-8"?>
<!-- Generator: Adobe Illustrator 27.2.0, SVG Export Plug-In . SVG Version: 6.00 Build 0)  -->
<svg version="1.1" id="レイヤー_1" xmlns="http://www.w3.org/2000/svg" xmlns:xlink="http://www.w3.org/1999/xlink" x="0px"
	 y="0px" viewBox="0 0 2580 824.1" style="enable-background:new 0 0 2580 824.1;" xml:space="preserve">
<style type="text/css">
	.st0{fill:#FFFFFF;}
</style>
<path class="st0" d="M1899.6,797.5c0,14.7,1.3,16.5,20,17.1v9.6h-112.9v-9.6c18.4-0.6,20-2.4,20-17.1V656.2c0-14.7-1.6-16.8-20-17.4
	v-9.3h128c39.7,0,73.2,4.2,73.2,46.1c0,24.8-20.3,45.5-66.3,47.3v1.8c43.3,7.8,55.8,27.8,60.7,50.3c7.2,34.4,10.2,36.8,25.6,39.5
	v9.6h-41.4c-32.5,0-48.6-7.2-56.1-29.6c-4.6-12.9-6.6-38-7.9-45.8c-1.6-12-8.9-16.8-17.4-16.8h-5.6V797.5z M1899.6,720.8h6.2
	c24.9,0,29.5-20.1,29.5-40.1c0-25.7-8.9-40.1-24.3-40.1c-10.2,0-11.5,2.4-11.5,11.1V720.8z"/>
</svg>
