<?xml version="1.0" encoding="utf-8"?>
<!-- Generator: Adobe Illustrator 27.2.0, SVG Export Plug-In . SVG Version: 6.00 Build 0)  -->
<svg version="1.1" id="レイヤー_1" xmlns="http://www.w3.org/2000/svg" xmlns:xlink="http://www.w3.org/1999/xlink" x="0px"
	 y="0px" viewBox="0 0 2580 824.1" style="enable-background:new 0 0 2580 824.1;" xml:space="preserve">
<style type="text/css">
	.st0{fill:#FFFFFF;}
</style>
<path class="st0" d="M528.7,629.5C553,663.9,588.1,709.4,615,746h1v-31.4c0-25.4-1.3-50.3-3-60.5c-1.6-10.5-5.9-12.9-13.5-13.5
	l-18.4-1.8v-9.3h72.2v9.3l-8.5,0.9c-7.2,0.9-10.2,3.3-11.8,13.5c-1.3,10.8-2.6,35.9-2.6,61.4v109.6h-51.2
	c-34.1-49.7-69.6-98.2-103.1-147.9h-1v50c0,25.4,0.7,62,2.3,72.1c1.6,10.2,5.9,13.2,13.5,14.1l19.4,2.1v9.6h-73.2v-9.6l8.5-1.5
	c7.2-1.2,11.2-3.9,12.5-14.4c1.6-10.5,2.6-47,2.6-72.4v-70.1c0-14.7-1.6-16.8-20-17.4v-9.3H528.7z"/>
</svg>
