<?xml version="1.0" encoding="utf-8"?>
<!-- Generator: Adobe Illustrator 27.2.0, SVG Export Plug-In . SVG Version: 6.00 Build 0)  -->
<svg version="1.1" id="レイヤー_1" xmlns="http://www.w3.org/2000/svg" xmlns:xlink="http://www.w3.org/1999/xlink" x="0px"
	 y="0px" viewBox="0 0 401 1342" style="enable-background:new 0 0 401 1342;" xml:space="preserve">
<style type="text/css">
	.st0{fill:#FFFFFF;}
</style>
<g>
	<path class="st0" d="M106.6,219.3v-52.7h10.6c1.6,11.5,1.6,13.3,13.9,20.8c17.5,10.5,45.9,24.8,67.3,35.6l100.3-37.9
		c9.6-3.5,11.9-6.3,12.2-16.1h10.2v85.9h-10.2l-1.6-10.1c-0.7-3.7-4.3-4.4-9.9-2.6l-48.5,16.8v0.5c16.2,7,36.6,15.4,49.5,20.4
		c6.3,2.3,7.9,1.6,8.6-2.1l2-10.8h10.2v49.4h-10.2c-1.6-11.2-3.6-14.5-13.9-20.8c-13.2-8.4-36.3-21.5-56.7-32.3l-110.2,43.3
		c-11.2,4.2-12.2,8.9-12.9,17.6h-10.6v-88.9h10.6l2,11c0.3,3.3,5.9,3.5,9.6,2.3l57.4-20.4v-0.9c-20.8-8-39.6-17.3-56.7-22.7
		c-5.6-1.4-9.9-0.5-10.6,3.7l-1.6,11H106.6z"/>
	<path class="st0" d="M106.6,360.2v-52.7h10.6c1.6,11.5,1.6,13.3,13.9,20.8c17.5,10.5,45.9,24.8,67.3,35.6L298.6,326
		c9.6-3.5,11.9-6.3,12.2-16.1h10.2v85.9h-10.2l-1.6-10.1c-0.7-3.7-4.3-4.4-9.9-2.6L250.8,400v0.5c16.2,7,36.6,15.4,49.5,20.4
		c6.3,2.3,7.9,1.6,8.6-2.1l2-10.8h10.2v49.4h-10.2c-1.6-11.2-3.6-14.5-13.9-20.8c-13.2-8.4-36.3-21.5-56.7-32.3l-110.2,43.3
		c-11.2,4.2-12.2,8.9-12.9,17.6h-10.6v-88.9h10.6l2,11c0.3,3.3,5.9,3.5,9.6,2.3l57.4-20.4v-0.9c-20.8-8-39.6-17.3-56.7-22.7
		c-5.6-1.4-9.9-0.5-10.6,3.7l-1.6,11H106.6z"/>
	<path class="st0" d="M106.6,501.1v-52.7h10.6c1.6,11.5,1.6,13.3,13.9,20.8c17.5,10.5,45.9,24.8,67.3,35.6l100.3-37.9
		c9.6-3.5,11.9-6.3,12.2-16.1h10.2v85.9h-10.2l-1.6-10.1c-0.7-3.7-4.3-4.4-9.9-2.6l-48.5,16.8v0.5c16.2,7,36.6,15.4,49.5,20.4
		c6.3,2.3,7.9,1.6,8.6-2.1l2-10.8h10.2v49.4h-10.2c-1.6-11.2-3.6-14.5-13.9-20.8c-13.2-8.4-36.3-21.5-56.7-32.3l-110.2,43.3
		c-11.2,4.2-12.2,8.9-12.9,17.6h-10.6V517h10.6l2,11c0.3,3.3,5.9,3.5,9.6,2.3l57.4-20.4V509c-20.8-8-39.6-17.3-56.7-22.7
		c-5.6-1.4-9.9-0.5-10.6,3.7l-1.6,11H106.6z"/>
	<path class="st0" d="M247.8,706.8c-17.7-3.6-50.7-9-67.9-12c-12.7-2.2-16.3-1.1-16.3,4.7c0,9.4,15.3,22.3,55.4,22.3
		c43.6,0,64.1-21.3,64.1-50.9c0-41.9-32.8-59.9-91.4-59.9c-36.8,0-73.5,14-73.5,54.8c0,19.3,7.3,32.6,27.8,43.8l-4.2,3.6
		c-27.1-13.5-35.6-32.2-35.6-54.7c0-33.3,21.4-64.2,85.5-64.2c66.7,0,99.7,31.3,99.7,76.9c0,38.7-27.1,61.2-70.7,61.2
		c-43.4,0-67.2-18-67.2-44.9c0-10.5,1.6-20.2,26.4-15.2l0.2-0.6c-17.9-7.9-26.6-17-26.6-31.4c0-7.7,7.5-13.9,26.9-13.9
		c23.8,0,70,11.4,70,45.1c0,6-2.1,10.1-4.5,12l1.9,0.6V706.8z M221.4,678.9c6.6,1.3,12.3,2.2,19.1,3.4c1.4-1.7,1.9-3.2,1.9-5.4
		c0-14.6-37.9-24.5-62-24.5c-7.8,0-9.9,1.5-9.9,4.5C170.5,663.7,190.5,673.3,221.4,678.9z"/>
	<path class="st0" d="M106.6,772.3v-52.7h10.6c1.6,11.5,1.6,13.3,13.9,20.8c17.5,10.5,45.9,24.8,67.3,35.6l100.3-37.9
		c9.6-3.5,11.9-6.3,12.2-16.1h10.2v85.9h-10.2l-1.6-10.1c-0.7-3.7-4.3-4.4-9.9-2.6l-48.5,16.8v0.5c16.2,7,36.6,15.4,49.5,20.4
		c6.3,2.3,7.9,1.6,8.6-2.1l2-10.8h10.2v49.4h-10.2c-1.6-11.2-3.6-14.5-13.9-20.8c-13.2-8.4-36.3-21.5-56.7-32.3l-110.2,43.3
		c-11.2,4.2-12.2,8.9-12.9,17.5h-10.6v-88.9h10.6l2,11c0.3,3.3,5.9,3.5,9.6,2.3l57.4-20.4v-0.9c-20.8-8-39.6-17.3-56.7-22.7
		c-5.6-1.4-9.9-0.5-10.6,3.7l-1.6,11H106.6z"/>
	<path class="st0" d="M106.6,913.2v-52.7h10.6c1.6,11.5,1.6,13.3,13.9,20.8c17.5,10.5,45.9,24.8,67.3,35.6L298.6,879
		c9.6-3.5,11.9-6.3,12.2-16.1h10.2v85.9h-10.2l-1.6-10.1c-0.7-3.7-4.3-4.4-9.9-2.6L250.8,953v0.5c16.2,7,36.6,15.4,49.5,20.4
		c6.3,2.3,7.9,1.6,8.6-2.1l2-10.8h10.2v49.4h-10.2c-1.6-11.2-3.6-14.5-13.9-20.8c-13.2-8.4-36.3-21.5-56.7-32.3l-110.2,43.3
		c-11.2,4.2-12.2,8.9-12.9,17.6h-10.6v-88.9h10.6l2,11c0.3,3.3,5.9,3.5,9.6,2.3l57.4-20.4v-0.9c-20.8-8-39.6-17.3-56.7-22.7
		c-5.6-1.4-9.9-0.5-10.6,3.7l-1.6,11H106.6z"/>
	<path class="st0" d="M106.6,1054.1v-52.7h10.6c1.6,11.5,1.6,13.3,13.9,20.8c17.5,10.5,45.9,24.8,67.3,35.6l100.3-37.9
		c9.6-3.5,11.9-6.3,12.2-16.1h10.2v85.9h-10.2l-1.6-10.1c-0.7-3.7-4.3-4.4-9.9-2.6l-48.5,16.8v0.5c16.2,7,36.6,15.4,49.5,20.4
		c6.3,2.3,7.9,1.6,8.6-2.1l2-10.8h10.2v49.4h-10.2c-1.6-11.2-3.6-14.5-13.9-20.8c-13.2-8.4-36.3-21.5-56.7-32.3l-110.2,43.3
		c-11.2,4.2-12.2,8.9-12.9,17.5h-10.6V1070h10.6l2,11c0.3,3.3,5.9,3.5,9.6,2.3l57.4-20.4v-0.9c-20.8-8-39.6-17.3-56.7-22.7
		c-5.6-1.4-9.9-0.5-10.6,3.7l-1.6,11H106.6z"/>
</g>
</svg>
