<?xml version="1.0" encoding="utf-8"?>
<!-- Generator: Adobe Illustrator 27.2.0, SVG Export Plug-In . SVG Version: 6.00 Build 0)  -->
<svg version="1.1" id="レイヤー_1" xmlns="http://www.w3.org/2000/svg" xmlns:xlink="http://www.w3.org/1999/xlink" x="0px"
	 y="0px" viewBox="0 0 2580 824.1" style="enable-background:new 0 0 2580 824.1;" xml:space="preserve">
<style type="text/css">
	.st0{fill:#FFFFFF;}
</style>
<g>
	<path class="st0" d="M1716.6,244.8c31.6,0,87.2-1.1,109.2-10.4l4.1,2.7c-0.7,29.6-39.8,101.4-73.5,101.4h-190.9
		c-16.5,0-20.6,5.5-23.4,17l-15.8,75.1c39.1-31.8,76.2-53.1,151.1-53.1c90.7,0,150.4,27.4,150.4,106.8c0,63-53.6,121.1-200.5,121.1
		c-87.9,0-151.8-21.4-151.8-66.8c0-25.2,28.8-41.6,57.7-41.6c20.6,0,28.8,11.5,35.7,30.7c13,40,32.3,56.4,55.6,56.4
		c21.3,0,43.3-19.7,43.3-92.6c0-61.4-33-71.8-65.9-71.8c-38.5,0-61.1,20.8-78.3,42.2l-25.4-12.1l31.6-202.2l2.7-2.7H1716.6z"/>
</g>
</svg>
