<?xml version="1.0" encoding="utf-8"?>
<!-- Generator: Adobe Illustrator 27.2.0, SVG Export Plug-In . SVG Version: 6.00 Build 0)  -->
<svg version="1.1" id="レイヤー_1" xmlns="http://www.w3.org/2000/svg" xmlns:xlink="http://www.w3.org/1999/xlink" x="0px"
	 y="0px" viewBox="0 0 1098 291" style="enable-background:new 0 0 1098 291;" xml:space="preserve">
<style type="text/css">
	.st0{fill:#FFFFFF;}
</style>
<g>
	<path class="st0" d="M92,263.4c0,15.9,1.3,17.8,19.7,18.4v10.4H0.4v-10.4c18.1-0.6,19.7-2.6,19.7-18.4V110.7
		c0-15.9-1.6-18.1-19.7-18.8v-10h126.2c39.1,0,72.1,4.5,72.1,49.8c0,26.8-20.1,49.2-65.3,51.1v1.9c42.7,8.4,55,30.1,59.8,54.3
		c7.1,37.2,10,39.8,25.2,42.7v10.4h-40.8c-32,0-47.9-7.8-55.3-32c-4.5-13.9-6.5-41.1-7.8-49.5c-1.6-12.9-8.7-18.1-17.1-18.1H92
		V263.4z M92,180.6h6.1c24.6,0,29.1-21.7,29.1-43.3c0-27.8-8.7-43.3-23.9-43.3c-10,0-11.3,2.6-11.3,12V180.6z"/>
	<path class="st0" d="M454.2,185.2c0,64.5-37,104.8-121.3,104.8c-83.6,0-121-40.6-121-104.8c0-64.8,37.4-104.8,121-104.8
		C417.6,80.4,454.2,120.1,454.2,185.2z M332.9,278.3c26.7,0,37-26.7,37-93.1c0-44.3-3.2-93.4-37-93.4c-19.9,0-36.7,16.9-36.7,93.4
		C296.2,255.6,309,278.3,332.9,278.3z"/>
	<path class="st0" d="M704.6,185.2c0,64.5-37,104.8-121.3,104.8c-83.6,0-121-40.6-121-104.8c0-64.8,37.4-104.8,121-104.8
		C668,80.4,704.6,120.1,704.6,185.2z M583.3,278.3c26.7,0,37-26.7,37-93.1c0-44.3-3.2-93.4-37-93.4c-19.9,0-36.7,16.9-36.7,93.4
		C546.6,255.6,559.4,278.3,583.3,278.3z"/>
	<path class="st0" d="M768.7,95.8H759c-18.4,0-21,2.3-35.9,50.5h-14.2V81.9h191.8v64.4h-13.9c-14.9-47.9-17.5-50.5-36.2-50.5h-9.7
		v167.6c0,15.9,5.5,17.8,28.1,18.4v10.4H741.2v-10.4c22.3-0.6,27.5-2.6,27.5-18.4V95.8z"/>
	<path class="st0" d="M1064.8,148.1c-18.2-38.2-35.7-55.3-60.9-55.3c-15.9,0-32.2,5.2-32.2,24.8c0,15.9,21.4,28.4,48.1,37.3
		c57.5,19.6,77.2,31.5,77.2,68.5c0,35.5-27.6,66.6-105.6,66.6c-24.1,0-59.8-5.2-81.9-16.8l-5.4-59.3h14.4
		c22.9,39.4,43.1,64.2,75.7,64.2c19.4,0,31.4-8.6,31.4-24.1c0-11.9-3.5-24.8-42.7-38.2c-64.4-21.7-78-39.4-78-70.9
		c0-39.7,35.7-63.3,97.8-63.3c28.3,0,55.5,4.3,76.9,11.3v55.3H1064.8z"/>
</g>
</svg>
