<?xml version="1.0" encoding="utf-8"?>
<!-- Generator: Adobe Illustrator 27.2.0, SVG Export Plug-In . SVG Version: 6.00 Build 0)  -->
<svg version="1.1" id="レイヤー_1" xmlns="http://www.w3.org/2000/svg" xmlns:xlink="http://www.w3.org/1999/xlink" x="0px"
	 y="0px" viewBox="0 0 827 321" style="enable-background:new 0 0 827 321;" xml:space="preserve">
<style type="text/css">
	.st0{fill:#FFFFFF;}
</style>
<path class="st0" d="M114.1,249c9,12.8,22.1,29.7,32.1,43.3h0.4v-11.7c0-9.5-0.5-18.7-1.1-22.5c-0.6-3.9-2.2-4.8-5-5l-6.8-0.7V249
	h26.8v3.4l-3.2,0.3c-2.7,0.3-3.8,1.2-4.4,5c-0.5,4-1,13.3-1,22.8v40.7h-19c-12.7-18.5-25.8-36.5-38.3-54.9h-0.4V285
	c0,9.5,0.2,23,0.9,26.8c0.6,3.8,2.2,4.9,5,5.2l7.2,0.8v3.6H80.1v-3.6l3.2-0.6c2.7-0.4,4.1-1.4,4.6-5.3c0.6-3.9,1-17.5,1-26.9v-26
	c0-5.4-0.6-6.2-7.4-6.5V249H114.1z"/>
</svg>
