<?xml version="1.0" encoding="utf-8"?>
<!-- Generator: Adobe Illustrator 27.2.0, SVG Export Plug-In . SVG Version: 6.00 Build 0)  -->
<svg version="1.1" id="レイヤー_1" xmlns="http://www.w3.org/2000/svg" xmlns:xlink="http://www.w3.org/1999/xlink" x="0px"
	 y="0px" viewBox="0 0 2580 824.1" style="enable-background:new 0 0 2580 824.1;" xml:space="preserve">
<style type="text/css">
	.st0{fill:#FFFFFF;}
</style>
<path class="st0" d="M1563.8,691.2c-16.4-35.9-32.1-52-54.7-52c-14.3,0-28.9,4.9-28.9,23.3c0,14.9,19.2,26.7,43.2,35.1
	c51.6,18.4,69.3,29.6,69.3,64.4c0,33.3-24.7,62.7-94.8,62.7c-21.6,0-53.7-4.9-73.5-15.8l-4.9-55.8h12.9c20.6,37.1,38.7,60.4,68,60.4
	c17.4,0,28.2-8,28.2-22.7c0-11.2-3.1-23.3-38.3-35.9c-57.8-20.4-70-37.1-70-66.7c0-37.4,32.1-59.5,87.8-59.5c25.4,0,49.8,4,69,10.6
	v52H1563.8z"/>
</svg>
