<?xml version="1.0" encoding="utf-8"?>
<!-- Generator: Adobe Illustrator 27.2.0, SVG Export Plug-In . SVG Version: 6.00 Build 0)  -->
<svg version="1.1" id="レイヤー_1" xmlns="http://www.w3.org/2000/svg" xmlns:xlink="http://www.w3.org/1999/xlink" x="0px"
	 y="0px" viewBox="0 0 827 321" style="enable-background:new 0 0 827 321;" xml:space="preserve">
<style type="text/css">
	.st0{fill:#FFFFFF;}
</style>
<path class="st0" d="M825.8,249v3.4c-4.5,0.3-6.5,0.6-8.5,4.6c-3.4,6.5-11.6,22.9-16.1,33.5c-0.6,1.3-1,2.6-1,5.1v16
	c0,5.3,0.5,5.7,9.8,6.1v3.6h-45.7v-3.6c9.1-0.4,9.6-0.8,9.6-6.1v-15.2c0-2.1-0.4-3.7-1.1-5.2c-4.8-9.8-14.5-28.4-18.4-34.6
	c-2.1-3.3-3.2-3.8-7.4-4.1V249h44.3v3.4l-5.5,0.7c-1.6,0.2-1.8,1.6-0.9,3.6c2.4,5.4,9.4,20.1,13.7,28.7h0.2
	c4.4-10.7,9.3-24.1,10.6-28c0.9-2.6,0.7-4-1.3-4.2l-5.9-0.7V249H825.8z"/>
</svg>
