<?xml version="1.0" encoding="utf-8"?>
<!-- Generator: Adobe Illustrator 27.2.0, SVG Export Plug-In . SVG Version: 6.00 Build 0)  -->
<svg version="1.1" id="レイヤー_1" xmlns="http://www.w3.org/2000/svg" xmlns:xlink="http://www.w3.org/1999/xlink" x="0px"
	 y="0px" viewBox="0 0 161 578" style="enable-background:new 0 0 161 578;" xml:space="preserve">
<style type="text/css">
	.st0{fill:#FFFFFF;}
</style>
<path class="st0" d="M37.2,108.9V87.5h4.3c0.7,4.7,0.7,5.4,5.6,8.5c7.1,4.3,18.6,10.1,27.3,14.4L115.2,95c3.9-1.4,4.8-2.6,5-6.6h4.2
	v34.9h-4.2l-0.7-4.1c-0.3-1.5-1.7-1.8-4-1L95.7,125v0.2c6.6,2.9,14.9,6.3,20.1,8.3c2.5,1,3.2,0.7,3.5-0.9l0.8-4.4h4.2v20.1h-4.2
	c-0.7-4.6-1.5-5.9-5.6-8.5c-5.4-3.4-14.7-8.7-23-13.1l-44.8,17.6c-4.6,1.7-5,3.6-5.2,7.1h-4.3v-36.1h4.3l0.8,4.5
	c0.1,1.3,2.4,1.4,3.9,1l23.3-8.3v-0.4c-8.4-3.2-16.1-7-23-9.2c-2.3-0.6-4-0.2-4.3,1.5l-0.7,4.5H37.2z"/>
<path class="st0" d="M37.2,166.1v-21.4h4.3c0.7,4.7,0.7,5.4,5.6,8.5c7.1,4.3,18.6,10.1,27.3,14.4l40.7-15.4c3.9-1.4,4.8-2.6,5-6.6
	h4.2v34.9h-4.2l-0.7-4.1c-0.3-1.5-1.7-1.8-4-1l-19.7,6.8v0.2c6.6,2.9,14.9,6.3,20.1,8.3c2.5,1,3.2,0.7,3.5-0.9l0.8-4.4h4.2v20.1
	h-4.2c-0.7-4.6-1.5-5.9-5.6-8.5c-5.4-3.4-14.7-8.7-23-13.1l-44.8,17.6c-4.6,1.7-5,3.6-5.2,7.1h-4.3v-36.1h4.3l0.8,4.5
	c0.1,1.3,2.4,1.4,3.9,1l23.3-8.3v-0.4c-8.4-3.2-16.1-7-23-9.2c-2.3-0.6-4-0.2-4.3,1.5l-0.7,4.5H37.2z"/>
<path class="st0" d="M37.2,223.3v-21.4h4.3c0.7,4.7,0.7,5.4,5.6,8.5c7.1,4.3,18.6,10.1,27.3,14.4l40.7-15.4c3.9-1.4,4.8-2.6,5-6.6
	h4.2v34.9h-4.2l-0.7-4.1c-0.3-1.5-1.7-1.8-4-1l-19.7,6.8v0.2c6.6,2.9,14.9,6.3,20.1,8.3c2.5,1,3.2,0.7,3.5-0.9l0.8-4.4h4.2v20.1
	h-4.2c-0.7-4.6-1.5-5.9-5.6-8.5c-5.4-3.4-14.7-8.7-23-13.1l-44.8,17.6c-4.6,1.7-5,3.6-5.2,7.1h-4.3v-36.1h4.3l0.8,4.5
	c0.1,1.3,2.4,1.4,3.9,1l23.3-8.3v-0.4c-8.4-3.2-16.1-7-23-9.2c-2.3-0.6-4-0.2-4.3,1.5l-0.7,4.5H37.2z"/>
<path class="st0" d="M94.5,306.9c-7.2-1.4-20.6-3.7-27.6-4.9c-5.2-0.9-6.6-0.5-6.6,1.9c0,3.8,6.2,9,22.5,9c17.7,0,26-8.7,26-20.7
	c0-17-13.3-24.3-37.1-24.3c-14.9,0-29.9,5.7-29.9,22.3c0,7.8,3,13.2,11.3,17.8l-1.7,1.4C40.4,304,37,296.4,37,287.3
	c0-13.5,8.7-26.1,34.7-26.1c27.1,0,40.5,12.7,40.5,31.3c0,15.7-11,24.9-28.7,24.9c-17.6,0-27.3-7.3-27.3-18.3
	c0-4.3,0.7-8.2,10.7-6.2l0.1-0.2c-7.3-3.2-10.8-6.9-10.8-12.8c0-3.1,3.1-5.6,10.9-5.6c9.7,0,28.4,4.6,28.4,18.3
	c0,2.4-0.9,4.1-1.8,4.9l0.8,0.2V306.9z M83.8,295.6c2.7,0.5,5,0.9,7.8,1.4c0.6-0.7,0.8-1.3,0.8-2.2c0-5.9-15.4-10-25.2-10
	c-3.2,0-4,0.6-4,1.8C63.1,289.4,71.2,293.3,83.8,295.6z"/>
<path class="st0" d="M37.2,333.5v-21.4h4.3c0.7,4.7,0.7,5.4,5.6,8.5c7.1,4.3,18.6,10.1,27.3,14.4l40.7-15.4c3.9-1.4,4.8-2.6,5-6.6
	h4.2v34.9h-4.2l-0.7-4.1c-0.3-1.5-1.7-1.8-4-1l-19.7,6.8v0.2c6.6,2.9,14.9,6.3,20.1,8.3c2.5,1,3.2,0.7,3.5-0.9l0.8-4.4h4.2v20.1
	h-4.2c-0.7-4.6-1.5-5.9-5.6-8.5c-5.4-3.4-14.7-8.7-23-13.1L46.7,369c-4.6,1.7-5,3.6-5.2,7.1h-4.3V340h4.3l0.8,4.5
	c0.1,1.3,2.4,1.4,3.9,1l23.3-8.3v-0.4c-8.4-3.2-16.1-7-23-9.2c-2.3-0.6-4-0.2-4.3,1.5l-0.7,4.5H37.2z"/>
<path class="st0" d="M37.2,390.7v-21.4h4.3c0.7,4.7,0.7,5.4,5.6,8.5c7.1,4.3,18.6,10.1,27.3,14.4l40.7-15.4c3.9-1.4,4.8-2.6,5-6.6
	h4.2v34.9h-4.2l-0.7-4.1c-0.3-1.5-1.7-1.8-4-1l-19.7,6.8v0.2c6.6,2.9,14.9,6.3,20.1,8.3c2.5,1,3.2,0.7,3.5-0.9l0.8-4.4h4.2v20.1
	h-4.2c-0.7-4.6-1.5-5.9-5.6-8.5c-5.4-3.4-14.7-8.7-23-13.1l-44.8,17.6c-4.6,1.7-5,3.6-5.2,7.1h-4.3v-36.1h4.3l0.8,4.5
	c0.1,1.3,2.4,1.4,3.9,1l23.3-8.3V394c-8.4-3.2-16.1-7-23-9.2c-2.3-0.6-4-0.2-4.3,1.5l-0.7,4.5H37.2z"/>
<path class="st0" d="M37.2,447.9v-21.4h4.3c0.7,4.7,0.7,5.4,5.6,8.5c7.1,4.3,18.6,10.1,27.3,14.4l40.7-15.4c3.9-1.4,4.8-2.6,5-6.6
	h4.2v34.9h-4.2l-0.7-4.1c-0.3-1.5-1.7-1.8-4-1l-19.7,6.8v0.2c6.6,2.9,14.9,6.3,20.1,8.3c2.5,1,3.2,0.7,3.5-0.9l0.8-4.4h4.2v20.1
	h-4.2c-0.7-4.6-1.5-5.9-5.6-8.5c-5.4-3.4-14.7-8.7-23-13.1l-44.8,17.6c-4.6,1.7-5,3.6-5.2,7.1h-4.3v-36.1h4.3l0.8,4.5
	c0.1,1.3,2.4,1.4,3.9,1l23.3-8.3v-0.4c-8.4-3.2-16.1-7-23-9.2c-2.3-0.6-4-0.2-4.3,1.5l-0.7,4.5H37.2z"/>
</svg>
