<?xml version="1.0" encoding="utf-8"?>
<!-- Generator: Adobe Illustrator 27.2.0, SVG Export Plug-In . SVG Version: 6.00 Build 0)  -->
<svg version="1.1" id="レイヤー_1" xmlns="http://www.w3.org/2000/svg" xmlns:xlink="http://www.w3.org/1999/xlink" x="0px"
	 y="0px" viewBox="0 0 827 321" style="enable-background:new 0 0 827 321;" xml:space="preserve">
<style type="text/css">
	.st0{fill:#FFFFFF;}
</style>
<g>
	<path class="st0" d="M570.8,89.2c12.8,0,35.3-0.5,44.2-4.3l1.7,1.1c-0.3,12.3-16.1,42-29.8,42h-77.3c-6.7,0-8.3,2.3-9.5,7
		l-6.4,31.1c15.9-13.2,30.9-22,61.2-22c36.7,0,60.9,11.4,60.9,44.3c0,26.1-21.7,50.2-81.2,50.2c-35.6,0-61.5-8.9-61.5-27.7
		c0-10.5,11.7-17.3,23.4-17.3c8.3,0,11.7,4.8,14.5,12.7c5.3,16.6,13.1,23.4,22.5,23.4c8.6,0,17.5-8.2,17.5-38.4
		c0-25.4-13.4-29.8-26.7-29.8c-15.6,0-24.8,8.6-31.7,17.5l-10.3-5l12.8-83.8l1.1-1.1H570.8z"/>
</g>
</svg>
