<?xml version="1.0" encoding="utf-8"?>
<!-- Generator: Adobe Illustrator 27.2.0, SVG Export Plug-In . SVG Version: 6.00 Build 0)  -->
<svg version="1.1" id="レイヤー_1" xmlns="http://www.w3.org/2000/svg" xmlns:xlink="http://www.w3.org/1999/xlink" x="0px"
	 y="0px" viewBox="0 0 827 321" style="enable-background:new 0 0 827 321;" xml:space="preserve">
<style type="text/css">
	.st0{fill:#FFFFFF;}
</style>
<path class="st0" d="M476.5,311.4c0,5.4,0.5,6.1,7.4,6.3v3.6H442v-3.6c6.8-0.2,7.4-0.9,7.4-6.3v-52.5c0-5.4-0.6-6.2-7.4-6.5V249
	h47.6c14.8,0,27.2,1.6,27.2,17.1c0,9.2-7.6,16.9-24.6,17.6v0.7c16.1,2.9,20.7,10.3,22.6,18.7c2.7,12.8,3.8,13.7,9.5,14.7v3.6h-15.4
	c-12.1,0-18-2.7-20.9-11c-1.7-4.8-2.4-14.1-2.9-17c-0.6-4.4-3.3-6.2-6.5-6.2h-2.1V311.4z M476.5,283h2.3c9.3,0,11-7.5,11-14.9
	c0-9.6-3.3-14.9-9-14.9c-3.8,0-4.3,0.9-4.3,4.1V283z"/>
</svg>
