<?xml version="1.0" encoding="utf-8"?>
<!-- Generator: Adobe Illustrator 27.2.0, SVG Export Plug-In . SVG Version: 6.00 Build 0)  -->
<svg version="1.1" id="レイヤー_1" xmlns="http://www.w3.org/2000/svg" xmlns:xlink="http://www.w3.org/1999/xlink" x="0px"
	 y="0px" viewBox="0 0 827 321" style="enable-background:new 0 0 827 321;" xml:space="preserve">
<style type="text/css">
	.st0{fill:#FFFFFF;}
</style>
<path class="st0" d="M627.4,321.3v-3.6l5.4-0.8c2.7-0.3,2.7-1.4,2-4.7c-1.1-4-3.3-11.1-4.8-15.6h-19.9c-1.8,6.2-3.5,12.5-4.4,16.1
	c-0.7,2.9-0.2,4.1,2.4,4.3l6.5,0.6v3.6h-24.9v-3.6c6-0.4,6.7-1,8.7-4.9c4.3-9,18.2-49,22.3-63.8H641c3.8,13.3,17.8,53.9,22.4,63.3
	c2.1,4.2,2.3,4.8,8.7,5.5v3.6H627.4z M628.4,292c-2.1-6.8-5.7-18-8.3-26.1h-0.6c-2.1,6.7-5.9,18.8-7.9,26.1H628.4z"/>
</svg>
