<?xml version="1.0" encoding="utf-8"?>
<!-- Generator: Adobe Illustrator 27.2.0, SVG Export Plug-In . SVG Version: 6.00 Build 0)  -->
<svg version="1.1" id="レイヤー_1" xmlns="http://www.w3.org/2000/svg" xmlns:xlink="http://www.w3.org/1999/xlink" x="0px"
	 y="0px" viewBox="0 0 2580 824.1" style="enable-background:new 0 0 2580 824.1;" xml:space="preserve">
<style type="text/css">
	.st0{fill:#FFFFFF;}
</style>
<path class="st0" d="M1633.8,206.1h-72.3V196c15.8-1.6,18.3-1.6,28.6-13.2c14.5-16.7,34.1-43.8,48.9-64.3l-52.1-95.8
	c-4.8-9.1-8.7-11.3-22.2-11.7V1.4h118v9.8l-13.8,1.6c-5.1,0.6-6.1,4.1-3.5,9.5l23.1,46.3h0.6c9.6-15.4,21.2-35,28-47.3
	c3.2-6,2.2-7.6-2.9-8.2l-14.8-1.9V1.4h67.8v9.8c-15.4,1.6-19.9,3.5-28.6,13.2C1727.1,37,1709,59,1694.3,78.5l59.5,105.2
	c5.8,10.7,12.2,11.7,24.1,12.3v10.1h-122.2V196l15.1-1.9c4.5-0.3,4.8-5.7,3.2-9.1l-28-54.8h-1.3c-10.9,19.8-23.8,37.8-31.2,54.2
	c-1.9,5.4-0.6,9.5,5.1,10.1l15.1,1.6V206.1z"/>
</svg>
