<?xml version="1.0" encoding="utf-8"?>
<!-- Generator: Adobe Illustrator 27.2.0, SVG Export Plug-In . SVG Version: 6.00 Build 0)  -->
<svg version="1.1" id="レイヤー_1" xmlns="http://www.w3.org/2000/svg" xmlns:xlink="http://www.w3.org/1999/xlink" x="0px"
	 y="0px" viewBox="0 0 827 321" style="enable-background:new 0 0 827 321;" xml:space="preserve">
<style type="text/css">
	.st0{fill:#FFFFFF;}
</style>
<path class="st0" d="M591.2,74.8h-26.4v-3.7c5.7-0.6,6.7-0.6,10.4-4.8c5.3-6.1,12.4-16,17.8-23.5l-19-35c-1.8-3.3-3.2-4.1-8.1-4.3
	V0.1H609v3.6l-5,0.6c-1.9,0.2-2.2,1.5-1.3,3.4l8.4,16.9h0.2c3.5-5.6,7.7-12.8,10.2-17.2c1.2-2.2,0.8-2.8-1.1-3l-5.4-0.7V0.1h24.8
	v3.6c-5.6,0.6-7.3,1.3-10.4,4.8c-4.2,4.6-10.8,12.6-16.2,19.8l21.7,38.4c2.1,3.9,4.5,4.3,8.8,4.5v3.7h-44.6v-3.7l5.5-0.7
	c1.6-0.1,1.8-2.1,1.2-3.3l-10.2-20h-0.5c-4,7.2-8.7,13.8-11.4,19.8c-0.7,2-0.2,3.4,1.9,3.7l5.5,0.6V74.8z"/>
</svg>
