<?xml version="1.0" encoding="utf-8"?>
<!-- Generator: Adobe Illustrator 27.2.0, SVG Export Plug-In . SVG Version: 6.00 Build 0)  -->
<svg version="1.1" id="レイヤー_1" xmlns="http://www.w3.org/2000/svg" xmlns:xlink="http://www.w3.org/1999/xlink" x="0px"
	 y="0px" viewBox="0 0 827 321" style="enable-background:new 0 0 827 321;" xml:space="preserve">
<style type="text/css">
	.st0{fill:#FFFFFF;}
</style>
<path class="st0" d="M581,272c-6.1-13.3-11.9-19.3-20.3-19.3c-5.3,0-10.7,1.8-10.7,8.6c0,5.6,7.1,9.9,16.1,13
	c19.2,6.8,25.8,11,25.8,23.9c0,12.4-9.2,23.3-35.2,23.3c-8,0-19.9-1.8-27.3-5.9l-1.8-20.7h4.8c7.6,13.8,14.4,22.4,25.2,22.4
	c6.5,0,10.5-3,10.5-8.4c0-4.2-1.2-8.6-14.2-13.3c-21.5-7.6-26-13.8-26-24.8c0-13.9,11.9-22.1,32.6-22.1c9.5,0,18.5,1.5,25.6,4V272
	H581z"/>
</svg>
