<?xml version="1.0" encoding="utf-8"?>
<!-- Generator: Adobe Illustrator 27.2.0, SVG Export Plug-In . SVG Version: 6.00 Build 0)  -->
<svg version="1.1" id="レイヤー_1" xmlns="http://www.w3.org/2000/svg" xmlns:xlink="http://www.w3.org/1999/xlink" x="0px"
	 y="0px" viewBox="0 0 2580 824.1" style="enable-background:new 0 0 2580 824.1;" xml:space="preserve">
<style type="text/css">
	.st0{fill:#FFFFFF;}
</style>
<path class="st0" d="M1688.9,824.1v-9.6l14.4-2.1c7.2-0.9,7.2-3.9,5.3-12.6c-3-10.8-8.9-29.9-12.8-41.9h-53.5
	c-4.9,16.8-9.5,33.5-11.8,43.4c-2,7.8-0.7,11.1,6.6,11.7l17.4,1.5v9.6h-67v-9.6c16.1-1.2,18.1-2.7,23.3-13.2
	c11.5-24.2,48.9-132,60.1-171.8h54.5c10.2,35.9,47.9,145.2,60.4,170.3c5.6,11.4,6.2,12.9,23.3,14.7v9.6H1688.9z M1691.5,745.1
	c-5.6-18.3-15.4-48.5-22.3-70.4h-1.6c-5.6,18-15.8,50.6-21.3,70.4H1691.5z"/>
</svg>
