<?xml version="1.0" encoding="utf-8"?>
<!-- Generator: Adobe Illustrator 27.2.0, SVG Export Plug-In . SVG Version: 6.00 Build 0)  -->
<svg version="1.1" id="レイヤー_1" xmlns="http://www.w3.org/2000/svg" xmlns:xlink="http://www.w3.org/1999/xlink" x="0px"
	 y="0px" viewBox="0 0 2580 824.1" style="enable-background:new 0 0 2580 824.1;" xml:space="preserve">
<style type="text/css">
	.st0{fill:#FFFFFF;}
</style>
<path class="st0" d="M1009.5,656.2c0-14.7-1.6-16.8-20-17.4v-9.3h175.3v56.3H1152c-20-42.5-21.3-43.7-47.6-43.7h-11.2
	c-9.2,0-9.8,1.2-9.8,10.2v66.2h11.2c19.7,0,21-1.2,31.8-29.6h12.5v72.4h-12.5c-11.2-28.7-12.1-29.9-31.8-29.9h-11.2v63.5
	c0,16.2,1.6,16.5,24,16.5c24,0,30.5-2.1,57.4-50.3h12.1l-5.9,63.2H989.5v-9.6c18.4-0.6,20-2.4,20-17.1V656.2z"/>
</svg>
