<?xml version="1.0" encoding="utf-8"?>
<!-- Generator: Adobe Illustrator 27.2.0, SVG Export Plug-In . SVG Version: 6.00 Build 0)  -->
<svg version="1.1" id="レイヤー_1" xmlns="http://www.w3.org/2000/svg" xmlns:xlink="http://www.w3.org/1999/xlink" x="0px"
	 y="0px" viewBox="0 0 1103 467" style="enable-background:new 0 0 1103 467;" xml:space="preserve">
<style type="text/css">
	.st0{fill:#FFFFFF;}
</style>
<g>
	<path class="st0" d="M192.9,104.6H162v-5.2c6.7-0.8,7.8-0.8,12.2-6.8c6.2-8.5,14.6-22.4,20.9-32.9l-22.2-49c-2.1-4.7-3.7-5.8-9.5-6
		v-5h50.4v5l-5.9,0.8c-2.2,0.3-2.6,2.1-1.5,4.8l9.9,23.7h0.3c4.1-7.9,9.1-17.9,11.9-24.2c1.4-3.1,1-3.9-1.2-4.2l-6.3-1v-5h29v5
		c-6.6,0.8-8.5,1.8-12.2,6.8c-4.9,6.4-12.6,17.7-19,27.7l25.4,53.8c2.5,5.5,5.2,6,10.3,6.3v5.2h-52.2v-5.2l6.5-1
		c1.9-0.2,2.1-2.9,1.4-4.7l-11.9-28h-0.5c-4.7,10.1-10.2,19.3-13.3,27.7c-0.8,2.7-0.3,4.8,2.2,5.2l6.5,0.8V104.6z"/>
	<path class="st0" d="M283.2,104.6h-30.9v-5.2c6.7-0.8,7.8-0.8,12.2-6.8c6.2-8.5,14.6-22.4,20.9-32.9l-22.2-49
		c-2.1-4.7-3.7-5.8-9.5-6v-5h50.4v5l-5.9,0.8c-2.2,0.3-2.6,2.1-1.5,4.8l9.9,23.7h0.3c4.1-7.9,9.1-17.9,11.9-24.2
		c1.4-3.1,1-3.9-1.2-4.2l-6.3-1v-5h29v5c-6.6,0.8-8.5,1.8-12.2,6.8c-4.9,6.4-12.6,17.7-19,27.7l25.4,53.8c2.5,5.5,5.2,6,10.3,6.3
		v5.2h-52.2v-5.2l6.5-1c1.9-0.2,2.1-2.9,1.4-4.7l-11.9-28h-0.5c-4.7,10.1-10.2,19.3-13.3,27.7c-0.8,2.7-0.3,4.8,2.2,5.2l6.5,0.8
		V104.6z"/>
	<path class="st0" d="M373.5,104.6h-30.9v-5.2c6.7-0.8,7.8-0.8,12.2-6.8c6.2-8.5,14.6-22.4,20.9-32.9l-22.2-49
		c-2.1-4.7-3.7-5.8-9.5-6v-5h50.4v5l-5.9,0.8c-2.2,0.3-2.6,2.1-1.5,4.8l9.9,23.7h0.3c4.1-7.9,9.1-17.9,11.9-24.2
		c1.4-3.1,1-3.9-1.2-4.2l-6.3-1v-5h29v5c-6.6,0.8-8.5,1.8-12.2,6.8c-4.9,6.4-12.6,17.7-19,27.7l25.4,53.8c2.5,5.5,5.2,6,10.3,6.3
		v5.2h-52.2v-5.2l6.5-1c1.9-0.2,2.1-2.9,1.4-4.7l-11.9-28h-0.5C373.5,76,368,85.1,364.9,93.5c-0.8,2.7-0.3,4.8,2.2,5.2l6.5,0.8
		V104.6z"/>
	<path class="st0" d="M463.8,104.6h-30.9v-5.2c6.7-0.8,7.8-0.8,12.2-6.8c6.2-8.5,14.6-22.4,20.9-32.9l-22.2-49
		c-2.1-4.7-3.7-5.8-9.5-6v-5h50.4v5l-5.9,0.8c-2.2,0.3-2.6,2.1-1.5,4.8l9.9,23.7h0.3c4.1-7.9,9.1-17.9,11.9-24.2
		c1.4-3.1,1-3.9-1.2-4.2l-6.3-1v-5h29v5c-6.6,0.8-8.5,1.8-12.2,6.8c-4.9,6.4-12.6,17.7-19,27.7L515,93.2c2.5,5.5,5.2,6,10.3,6.3v5.2
		h-52.2v-5.2l6.5-1c1.9-0.2,2.1-2.9,1.4-4.7l-11.9-28h-0.5c-4.7,10.1-10.2,19.3-13.3,27.7c-0.8,2.7-0.3,4.8,2.2,5.2l6.5,0.8V104.6z"
		/>
	<path class="st0" d="M527.9,92.1c0-8.1,4-14.2,11.7-14.2c7.8,0,11.7,6.1,11.7,14.2c0,8.4-3.8,14.3-11.7,14.3
		C531.8,106.4,527.9,100.4,527.9,92.1z"/>
	<path class="st0" d="M585.3,104.6h-30.9v-5.2c6.7-0.8,7.8-0.8,12.2-6.8c6.2-8.5,14.6-22.4,20.9-32.9l-22.2-49
		c-2.1-4.7-3.7-5.8-9.5-6v-5h50.4v5l-5.9,0.8c-2.2,0.3-2.6,2.1-1.5,4.8l9.9,23.7h0.3c4.1-7.9,9.1-17.9,11.9-24.2
		c1.4-3.1,1-3.9-1.2-4.2l-6.3-1v-5h29v5c-6.6,0.8-8.5,1.8-12.2,6.8c-4.9,6.4-12.6,17.7-19,27.7l25.4,53.8c2.5,5.5,5.2,6,10.3,6.3
		v5.2h-52.2v-5.2l6.5-1c1.9-0.2,2.1-2.9,1.4-4.7l-11.9-28H590c-4.7,10.1-10.2,19.3-13.3,27.7c-0.8,2.7-0.3,4.8,2.2,5.2l6.5,0.8
		V104.6z"/>
	<path class="st0" d="M675.6,104.6h-30.9v-5.2c6.7-0.8,7.8-0.8,12.2-6.8c6.2-8.5,14.6-22.4,20.9-32.9l-22.2-49
		c-2.1-4.7-3.7-5.8-9.5-6v-5h50.4v5l-5.9,0.8c-2.2,0.3-2.6,2.1-1.5,4.8l9.9,23.7h0.3c4.1-7.9,9.1-17.9,11.9-24.2
		c1.4-3.1,1-3.9-1.2-4.2l-6.3-1v-5h29v5c-6.6,0.8-8.5,1.8-12.2,6.8c-4.9,6.4-12.6,17.7-19,27.7l25.4,53.8c2.5,5.5,5.2,6,10.3,6.3
		v5.2H685v-5.2l6.5-1c1.9-0.2,2.1-2.9,1.4-4.7l-11.9-28h-0.5C675.6,76,670.2,85.1,667,93.5c-0.8,2.7-0.3,4.8,2.2,5.2l6.5,0.8V104.6z
		"/>
	<path class="st0" d="M739.7,92.1c0-8.1,4-14.2,11.7-14.2c7.8,0,11.7,6.1,11.7,14.2c0,8.4-3.8,14.3-11.7,14.3
		C743.7,106.4,739.7,100.4,739.7,92.1z"/>
	<path class="st0" d="M797.2,104.6h-30.9v-5.2c6.7-0.8,7.8-0.8,12.2-6.8c6.2-8.5,14.6-22.4,20.9-32.9l-22.2-49
		c-2.1-4.7-3.7-5.8-9.5-6v-5H818v5l-5.9,0.8c-2.2,0.3-2.6,2.1-1.5,4.8l9.9,23.7h0.3c4.1-7.9,9.1-17.9,11.9-24.2
		c1.4-3.1,1-3.9-1.2-4.2l-6.3-1v-5h29v5c-6.6,0.8-8.5,1.8-12.2,6.8c-4.9,6.4-12.6,17.7-19,27.7l25.4,53.8c2.5,5.5,5.2,6,10.3,6.3
		v5.2h-52.2v-5.2l6.5-1c1.9-0.2,2.1-2.9,1.4-4.7l-11.9-28h-0.5c-4.7,10.1-10.2,19.3-13.3,27.7c-0.8,2.7-0.3,4.8,2.2,5.2l6.5,0.8
		V104.6z"/>
	<path class="st0" d="M887.5,104.6h-30.9v-5.2c6.7-0.8,7.8-0.8,12.2-6.8c6.2-8.5,14.6-22.4,20.9-32.9l-22.2-49
		c-2.1-4.7-3.7-5.8-9.5-6v-5h50.4v5l-5.9,0.8c-2.2,0.3-2.6,2.1-1.5,4.8l9.9,23.7h0.3c4.1-7.9,9.1-17.9,11.9-24.2
		c1.4-3.1,1-3.9-1.2-4.2l-6.3-1v-5h29v5c-6.6,0.8-8.5,1.8-12.2,6.8c-4.9,6.4-12.6,17.7-19,27.7l25.4,53.8c2.5,5.5,5.2,6,10.3,6.3
		v5.2h-52.2v-5.2l6.5-1c1.9-0.2,2.1-2.9,1.4-4.7l-11.9-28h-0.5C887.5,76,882,85.1,878.8,93.5c-0.8,2.7-0.3,4.8,2.2,5.2l6.5,0.8
		V104.6z"/>
</g>
</svg>
