<?xml version="1.0" encoding="utf-8"?>
<!-- Generator: Adobe Illustrator 27.2.0, SVG Export Plug-In . SVG Version: 6.00 Build 0)  -->
<svg version="1.1" id="レイヤー_1" xmlns="http://www.w3.org/2000/svg" xmlns:xlink="http://www.w3.org/1999/xlink" x="0px"
	 y="0px" viewBox="0 0 64 288" style="enable-background:new 0 0 64 288;" xml:space="preserve">
<style type="text/css">
	.st0{fill:#FFFFFF;}
</style>
<g>
	<path class="st0" d="M64.1,32.1c-11.3,8.5-26.3,20.7-38.4,30v0.3h10.4c8.4,0,16.6-0.5,19.9-1c3.5-0.6,4.2-2.1,4.4-4.7l0.6-6.4h3.1
		v25.1h-3.1l-0.3-3c-0.3-2.5-1.1-3.5-4.4-4.1c-3.6-0.5-11.8-0.9-20.2-0.9H0V49.7c16.4-11.9,32.4-24.2,48.7-35.9v-0.3H32.3
		c-8.4,0-20.4,0.2-23.8,0.8s-4.3,2.1-4.6,4.7l-0.7,6.7H0V0.2h3.2l0.5,3C4,5.7,4.9,7.1,8.4,7.5c3.5,0.6,15.5,0.9,23.9,0.9h23.1
		c4.8,0,5.5-0.6,5.7-7h3.1V32.1z"/>
	<path class="st0" d="M55.3,85c4.8,0,5.5-0.6,5.7-7h3.1v61H45.6v-4.5c14-7,14.4-7.4,14.4-16.6v-3.9c0-3.2-0.4-3.4-3.4-3.4H34.8v3.9
		c0,6.9,0.4,7.3,9.8,11.1v4.3H20.7v-4.3c9.5-3.9,9.9-4.2,9.9-11.1v-3.9H9.7c-5.3,0-5.4,0.6-5.4,8.3c0,8.3,0.7,10.6,16.6,20v4.2
		L0,141.2V78h3.2c0.2,6.4,0.8,7,5.6,7H55.3z"/>
	<path class="st0" d="M0,170.2v-25.7h3.2c0.5,5.6,0.5,6.5,4.1,10.2c5.2,5.1,13.7,12.1,20.1,17.4l30-18.5c2.9-1.7,3.6-3.1,3.6-7.9
		h3.1v41.9h-3.1l-0.5-4.9c-0.2-1.8-1.3-2.2-3-1.3l-14.5,8.2v0.2c4.8,3.4,10.9,7.5,14.8,9.9c1.9,1.1,2.4,0.8,2.6-1l0.6-5.3h3.1v24.1
		h-3.1c-0.5-5.5-1.1-7.1-4.1-10.2c-3.9-4.1-10.8-10.5-17-15.8L7,212.8c-3.4,2.1-3.6,4.3-3.8,8.6H0V178h3.2l0.6,5.4
		c0.1,1.6,1.8,1.7,2.9,1.1l17.2-9.9v-0.5c-6.2-3.9-11.8-8.5-17-11.1c-1.7-0.7-3-0.2-3.2,1.8l-0.5,5.4H0z"/>
	<path class="st0" d="M59.9,241.3v-3.4c0-6.5-0.7-7.4-15.4-12.7v-5h19.6v67.7H44.5V283c14.6-5.3,15.4-6.2,15.4-12.8v-3.4H8.8
		c-4.8,0-5.4,1.9-5.6,9.9H0v-45.1h3.2c0.2,7.9,0.8,9.7,5.6,9.7H59.9z"/>
</g>
</svg>
