<?xml version="1.0" encoding="utf-8"?>
<!-- Generator: Adobe Illustrator 27.2.0, SVG Export Plug-In . SVG Version: 6.00 Build 0)  -->
<svg version="1.1" id="レイヤー_1" xmlns="http://www.w3.org/2000/svg" xmlns:xlink="http://www.w3.org/1999/xlink" x="0px"
	 y="0px" viewBox="0 0 1103 467" style="enable-background:new 0 0 1103 467;" xml:space="preserve">
<style type="text/css">
	.st0{fill:#FFFFFF;}
</style>
<g>
	<path class="st0" d="M126,178.7c40.4,0,67.7,6.6,87.7,32.3c19,23.9,27.3,58.5,27.3,107.7c0,64.2-21.4,105.5-48,124.5
		c-25.9,18.6-48,23.5-85.3,23.5H1.1v-14.2c19.3-0.9,21.1-3.5,21.1-25.3V218.2c0-21.7-1.7-24.8-21.1-25.7v-13.7H126z M99.8,431.7
		c0,13.3,3.1,18.2,14.8,18.2c19,0,44.9-16.8,44.9-128.5c0-88.2-16.6-126.3-46.3-126.3c-10,0-13.5,1.8-13.5,11.5V431.7z"/>
	<path class="st0" d="M259.2,218.2c0-21.7-1.7-24.8-21.1-25.7v-13.7h184.3V262h-13.5c-21.1-62.9-22.4-64.7-50.1-64.7h-11.7
		c-9.7,0-10.4,1.8-10.4,15.1v97.9h11.7c20.7,0,22.1-1.8,33.5-43.9h13.1v107.2h-13.1c-11.7-42.5-12.8-44.3-33.5-44.3h-11.7v93.9
		c0,23.9,1.7,24.4,25.2,24.4c25.2,0,32.1-3.1,60.4-74.4h12.8l-6.2,93.5H238.2v-14.2c19.3-0.9,21.1-3.5,21.1-25.3V218.2z"/>
	<path class="st0" d="M568.3,178.7c42.8,0,78,4,78,63.8c0,33.7-18.6,60.3-63.9,64.7v4c36.2,3.5,71.8,12.4,71.8,71.3
		c0,72.7-59.4,84.2-103.6,84.2H434v-14.2c19.3-0.9,21.1-3.5,21.1-25.3V218.2c0-21.7-1.7-24.8-21.1-25.7v-13.7H568.3z M531.7,305h8.6
		c22.4,0,28.7-14.2,28.7-52.7c0-41.2-13.8-56.3-25.2-56.3c-12.4,0-12.1,3.5-12.1,11.1V305z M531.7,428.2c0,13.7,1,21.7,15.2,21.7
		c15.9,0,27.3-22.2,27.3-64.2c0-39.9-9.7-63.8-33.5-63.8h-9V428.2z"/>
	<path class="st0" d="M668.5,217.6c0-21.1-1.7-24.2-21.4-25v-13.4h119.8v13.4c-19.3,0.9-21.1,3.9-21.1,25v159.7
		c0,50.9,7.6,72.9,27.6,72.9s27.3-22,27.3-72.9V217.6c0-21.1-1.7-24.2-21.1-25v-13.4h117.7v13.4c-19.3,0.9-21.1,3.9-21.1,25v141.1
		c0,70.8-19.3,107.9-103.6,107.9c-83.9,0-104.3-37.1-104.3-105.7V217.6z"/>
	<path class="st0" d="M961.6,197.8h-10.4c-19.7,0-22.4,3.1-38.3,69.1h-15.2v-88.2h204.7v88.2h-14.8c-15.9-65.6-18.6-69.1-38.7-69.1
		h-10.4v229.5c0,21.7,5.9,24.4,30,25.3v14.2H932.2v-14.2c23.8-0.9,29.3-3.5,29.3-25.3V197.8z"/>
</g>
</svg>
