<?xml version="1.0" encoding="utf-8"?>
<!-- Generator: Adobe Illustrator 27.2.0, SVG Export Plug-In . SVG Version: 6.00 Build 0)  -->
<svg version="1.1" id="レイヤー_1" xmlns="http://www.w3.org/2000/svg" xmlns:xlink="http://www.w3.org/1999/xlink" x="0px"
	 y="0px" viewBox="0 0 3233 290" style="enable-background:new 0 0 3233 290;" xml:space="preserve">
<style type="text/css">
	.st0{fill:#FFFFFF;}
</style>
<g>
	<path class="st0" d="M427.6,290.8h-12.7c-90.5-0.4-115.2-13.7-136.4-41.6c-14.8-19.5-28.3-43.4-43.8-70
		c-9.2-15.5-14.1-21.7-34.6-21.7h-20.5l-24,75.8c-12,41.2-7.8,44.3,48.1,48.7l-2.8,7.1H0l2.8-7.1c52.3-4,56.5-8,69.3-48.7
		l54.4-176.3c12.7-42.1,6.4-44.7-47.4-48.7L81.3,1h178.1c77,0,148.4,16.4,148.4,68.2c0,40.8-52.3,66.9-107.4,79.3
		c22.6,35.9,38.9,60.7,53,79.3c34.6,44.7,42.4,51.4,77,56.7L427.6,290.8z M202.8,147.2c76.3,0,116.6-25.7,116.6-84.2
		c0-24.4-15.5-51.8-62.2-51.8c-27.6,0-33.9,2.7-41,24.4l-33.2,111.6H202.8z"/>
	<path class="st0" d="M712.7,158.2c0,46.1-36,93.9-101.8,117.6c-24,8.8-50.2,14.5-81.3,14.5c-72.8,0-96.1-31.1-96.1-64.5
		c0-56.2,50.2-101.3,113.8-120.6c22.6-6.6,47.4-11,72.8-11C682.3,94.2,712.7,121,712.7,158.2z M512.6,226.7
		c0,36.8,19.8,52.2,43.1,52.2c62.9,0,78.5-90.4,78.5-121.1c0-36.8-17.7-51.8-40.3-51.8C532.4,106,512.6,194.7,512.6,226.7z"/>
	<path class="st0" d="M956.8,243.4c-45.2,32.9-92.6,46.9-134.3,46.9c-46.6,0-78.5-21.5-78.5-62.3c0-33.8,23.3-75.9,70-102.2
		c29.7-16.7,74.2-31.6,112.4-31.6c28.3,0,51.6,7.9,51.6,20.2c0,7.5-8.5,17.5-25.4,23.2c-9.9,3.5-17,2.2-22.6-3.9
		c-16.3-16.7-29-23.7-46.6-23.7c-31.1,0-59.4,43.9-59.4,105.7c0,36,21.9,47.8,47.4,47.8c31.1,0,58.7-12.7,80.6-26.3L956.8,243.4z"/>
	<path class="st0" d="M1282.8,249.9c-36,31.9-72.1,40.4-89.1,40.4c-18.4,0-32.5-4.8-50.9-27.4c-16.3-19.4-29-41.2-43.1-63.4
		c-10.6,7.7-29,21-31.8,27.8c-12,30.7-14.1,41.6-17.7,54.1c-24,1.6-55.8,5.6-72.8,8.5l-5.7-2.4c29.7-77.1,58-155.4,86.2-243.8
		c5.7-17.4,4.9-21.4-38.9-23.4l2.8-5.7c65-3.6,109.6-14.9,120.2-14.9c5.7,0,4.9,2.8,2.8,9.3c-23.3,61.3-45.2,128.7-68.6,194.9
		c31.8-23.4,130-94,179.5-94c20.5,0,31.1,7.3,31.1,13.7c0,6.5-9.9,18.2-21.2,24.2c-7.8,4.4-13.4,3.6-16.3,2.8
		c-12.7-4-23.3-9.7-40.3-9.7c-13.4,0-43.1,13.7-63.6,28.3c8.5,12.9,32.5,43.2,49.5,61.7c23.3,25.8,31.8,30.3,43.1,30.3
		c7.8,0,18.4-3.2,38.9-16.1L1282.8,249.9z"/>
	<path class="st0" d="M1575.4,1.8l-68.6,100.5l-14.1,1.8L1509,5.3c7.1-1.8,43.1-4.4,63.6-4.4L1575.4,1.8z"/>
	<path class="st0" d="M1858.8,245.4c-39.6,30.7-79.2,43.9-106.7,43.9c-22.6,0-31.1-9.7-19.1-41.7c11.3-32,23.3-63.2,35.3-95.2
		c7.8-21.9,4.9-29.8-8.5-29.8c-26.2,0-67.9,30.7-88.3,53.5c-17,18-19.1,29-24.7,41.7c-7.8,20.6-16.3,45.2-21.2,62.3
		c-22.6,1.3-53,5.3-72.8,8.8l-3.5-2.6c12.7-36.8,33.9-91.2,51.6-140.4c4.9-14,5.7-19.3-2.8-19.3c-9.9,0-27.6,8.8-40.3,17.1l-6.4-6.1
		c32.5-26.3,77-44.3,103.9-44.3c26.2,0,29,14,17,51.3l-8.5,22.8c41.7-41.7,105.3-74.1,150.5-74.1c24.7,0,43.8,6.6,24.7,61.4
		c-10.6,28.5-20.5,56.2-30.4,85.1c-4.9,12.3-2.8,16.2,3.5,16.2c4.9,0,19.8-3.1,41-17.1L1858.8,245.4z"/>
	<path class="st0" d="M1995.7,1.8l-68.6,100.5L1913,104l16.3-98.7c7.1-1.8,43.1-4.4,63.6-4.4L1995.7,1.8z"/>
	<path class="st0" d="M2496.8,290.8h-12.7c-90.5-0.4-115.2-13.7-136.4-41.6c-14.8-19.5-28.3-43.4-43.8-70
		c-9.2-15.5-14.1-21.7-34.6-21.7h-20.5l-24,75.8c-12,41.2-7.8,44.3,48.1,48.7l-2.8,7.1h-200.7l2.8-7.1c52.3-4,56.5-8,69.3-48.7
		l54.4-176.3c12.7-42.1,6.4-44.7-47.4-48.7l2.1-7.1h178.1c77,0,148.4,16.4,148.4,68.2c0,40.8-52.3,66.9-107.4,79.3
		c22.6,35.9,38.9,60.7,53,79.3c34.6,44.7,42.4,51.4,77,56.7L2496.8,290.8z M2272.1,147.2c76.3,0,116.6-25.7,116.6-84.2
		c0-24.4-15.5-51.8-62.2-51.8c-27.6,0-33.9,2.7-41,24.4l-33.2,111.6H2272.1z"/>
	<path class="st0" d="M2781.9,157.2c0,46.1-36,93.9-101.8,117.6c-24,8.8-50.2,14.5-81.3,14.5c-72.8,0-96.1-31.1-96.1-64.5
		c0-56.2,50.2-101.3,113.8-120.6c22.6-6.6,47.4-11,72.8-11C2751.5,93.2,2781.9,120,2781.9,157.2z M2581.9,225.7
		c0,36.8,19.8,52.2,43.1,52.2c62.9,0,78.5-90.4,78.5-121.1c0-36.8-17.7-51.8-40.3-51.8C2601.6,105,2581.9,193.7,2581.9,225.7z"/>
	<path class="st0" d="M2943.7,246.1c-40.3,29.9-83.4,42.8-107.4,42.8c-22.6,0-30.4-11.3-20.5-39.6c22.6-67,50.9-144.5,72.1-207.8
		c6.4-17,2.1-17.4-26.9-21.4c-5.7-0.8-7.8-0.8-11.3-1.2l2.1-5.2c35.3-2,74.2-6.5,96.1-11.3c11.3-2.4,19.8-3.6,23.3-3.6
		c5.7,0,4.9,5.2,1.4,14.9c-26.2,75.1-54.4,151.7-81.3,229.6c-4.2,11.3-1.4,14.9,4.9,14.9c5.7,0,20.5-3.6,41.7-17L2943.7,246.1z"/>
	<path class="st0" d="M3101.7,246.1c-40.3,29.9-83.4,42.8-107.4,42.8c-22.6,0-30.4-11.3-20.5-39.6c22.6-67,50.9-144.5,72.1-207.8
		c6.4-17,2.1-17.4-26.9-21.4c-5.7-0.8-7.8-0.8-11.3-1.2l2.1-5.2c35.3-2,74.2-6.5,96.1-11.3c11.3-2.4,19.8-3.6,23.3-3.6
		c5.7,0,4.9,5.2,1.4,14.9c-26.2,75.1-54.4,151.7-81.3,229.6c-4.2,11.3-1.4,14.9,4.9,14.9c5.7,0,20.5-3.6,41.7-17L3101.7,246.1z"/>
</g>
</svg>
