<?xml version="1.0" encoding="utf-8"?>
<!-- Generator: Adobe Illustrator 27.2.0, SVG Export Plug-In . SVG Version: 6.00 Build 0)  -->
<svg version="1.1" id="レイヤー_1" xmlns="http://www.w3.org/2000/svg" xmlns:xlink="http://www.w3.org/1999/xlink" x="0px"
	 y="0px" viewBox="0 0 429 73" style="enable-background:new 0 0 429 73;" xml:space="preserve">
<style type="text/css">
	.st0{fill:#FFFFFF;}
</style>
<g>
	<path class="st0" d="M22.7,4.9H19c-6.9,0-7.9,0.8-13.5,17.5H0.1V0.1h72.3v22.3h-5.2C61.6,5.8,60.6,4.9,53.5,4.9h-3.7V63
		c0,5.5,2.1,6.2,10.6,6.4V73H12.3v-3.6c8.4-0.2,10.4-0.9,10.4-6.4V4.9z"/>
	<path class="st0" d="M163.7,36.4c0,22.5-13.5,36.5-44.4,36.5C88.7,72.9,75,58.8,75,36.4c0-22.6,13.7-36.5,44.3-36.5
		C150.3-0.1,163.7,13.7,163.7,36.4z M119.3,68.9c9.8,0,13.5-9.3,13.5-32.5c0-15.4-1.2-32.6-13.5-32.6c-7.3,0-13.4,5.9-13.4,32.6
		C105.9,60.9,110.6,68.9,119.3,68.9z"/>
	<path class="st0" d="M199.8,63c0,5.5,0.5,6.2,8.8,6.4V73h-43.3v-3.6c6.8-0.2,7.4-0.9,7.4-6.4V10.1c0-5.5-0.6-6.3-7.4-6.5V0.1h42.2
		c11.3,0,16.7,0.4,21.8,2.8c7.8,3.5,10.7,9.9,10.7,18.6c0,16.4-12.4,23.9-32.5,23.9c-4,0-6-0.3-7.7-0.7V63z M199.8,7v29.6
		c0,3.4,1.6,4.6,4.1,4.6c6.9,0,8.4-10.7,8.4-19.3c0-11.7-3.7-17.6-8.9-17.6C200.1,4.3,199.8,4.8,199.8,7z"/>
	<path class="st0" d="M273.8,63c0,5.5,0.5,6.2,7.4,6.4V73h-42.3v-3.6c6.8-0.2,7.4-0.9,7.4-6.4V10.1c0-5.5-0.6-6.3-7.4-6.5V0.1h42.3
		v3.5c-6.9,0.2-7.4,1-7.4,6.5V63z"/>
	<path class="st0" d="M353.3,23.6C349.6,14.7,343.1,4,332.2,4c-17.4,0-19.5,23-19.5,32.1c0,12.7,2.9,32.9,20.2,32.9
		c11.6,0,15.6-8,22.1-20.7h4.6l-2.1,19.9c-8.2,3.6-18.2,4.8-28.1,4.8c-16.5,0-27.7-2.2-35.8-8.3c-7.7-5.7-11.6-15.7-11.6-27.4
		c0-10.6,3-20.5,10.8-27C300.3,3.8,310.4,0,331,0c7,0,21,1.5,26.8,4.4v19.1H353.3z"/>
	<path class="st0" d="M417.9,23.3C411.8,10,406,4,397.5,4c-5.3,0-10.8,1.8-10.8,8.7c0,5.6,7.2,9.9,16.1,13
		c19.3,6.8,25.9,11,25.9,23.9c0,12.4-9.2,23.3-35.4,23.3c-8.1,0-20.1-1.8-27.5-5.9L364,46.3h4.8c7.7,13.8,14.5,22.4,25.4,22.4
		c6.5,0,10.5-3,10.5-8.4c0-4.2-1.2-8.7-14.3-13.4c-21.6-7.6-26.2-13.8-26.2-24.8c0-13.9,12-22.1,32.8-22.1c9.5,0,18.6,1.5,25.8,4
		v19.3H417.9z"/>
</g>
</svg>
